<svg xmlns="http://www.w3.org/2000/svg" viewBox="0 0 704.93 513.56"><defs><style>.cls-1{fill:#e0e9ef;}.cls-2{fill:#f9d47f;}.cls-3,.cls-4,.cls-5,.cls-6{fill:none;stroke:#000;}.cls-3,.cls-4,.cls-6{stroke-miterlimit:10;}.cls-3{stroke-width:6px;}.cls-4{stroke-width:4px;}.cls-5{stroke-width:6px;}.cls-6{stroke-width:3px;}</style></defs><title>SplashLogo</title><g id="Layer_2" data-name="Layer 2"><g id="Layer_5" data-name="Layer 5"><polygon class="cls-1" points="331.5 239.82 326.14 239.82 324.38 237.48 323.33 229.26 318.05 226.31 316.88 236.42 321.25 253 34.5 253.09 23.94 255.54 13.09 262.74 5.56 273.89 3 283.38 3 364.09 3.35 409.64 6.91 424.61 18.7 433.34 37 441.16 37 424.61 28.26 423.19 19.14 415.9 17 408.87 17 283.9 23.83 271.67 34.24 266.72 668.14 267 678.22 269.77 686.09 278.47 687.93 288.49 687.93 409.3 685.55 417.12 678.32 424.69 668.14 427.51 668.14 441.51 679.21 439.64 690.96 432.62 699.89 419.29 701.93 407.72 701.93 288.09 700.07 275.75 693.25 264.2 683.16 256.53 670.55 253 382.94 253 386.29 246.69 388.07 240.22 383.55 240.22 381.27 237.15 381.07 229.64 377.72 227.12 373.57 227.2 374.5 237.52 369.21 246.65 362.01 251.99 347.26 252.89 340.49 252.29 334.92 247.17 331.5 239.82"/><path class="cls-2" d="M351.59,203.19l-16.05-1.52-22.3-7.27-21.29-12.67-16.05-18.92-7.6-10.31-6.75-18.87L259,115.5l.34-16.73,5.91-23.49L277.41,54,293.8,36.42l21.12-12.67,19.94-5.58L353.11,17,370,18.34l18.42,5.07L406.17,33l18.42,16.22,14.53,22.13,5.41,18.42,2.33,19.52-2,21.2-6.59,19.94L420.36,176l-28.73,19.09L371.87,201l-20.28,2.2M346.3,3.12,328.25,5.51,313.49,9.89,292.67,20.55,276.38,33.79,262.95,49.88l-11,20.6-5.56,19.08-1.91,18.82V130l7.8,20,6.2,14.58,13.57,16.73,21.2,18,22.79,11.27,9.16,2.82-7.44,13.87,3.53.43,2.75,4.07.28,2.61.67,4.45,1.84,1.21,4.64-.27.12-2.54,1.3-10,4.73-7,12.57-3.34,13.72.06,9.23,10.14,3.28.32,3.27,1.08,1.25,2.71-.22,3.12.73,3.95,2.37,1.91,4.64.75-.43-9.74-2.75-10.12-4.94-7.73,24.83-9.9,14.58-9.6,16.53-16,12-17.68,6.1-13.54,5-18.64,1.51-20.87L458,85.36l-7.46-21.27L438.76,44.87,420.9,26.59,403.05,14.9,384.47,7.4,365.59,3.63,346.3,3.12"/><polyline class="cls-2" points="80.31 55.9 54.36 55.9 43.61 59.2 38.16 67.97 38.82 78.71 77.5 131.45 93.54 149.96 93.54 153.1 66.76 154.43 53.37 152.44 50.56 145 47.25 141.53 39.65 143.02 37 150.96 40.31 160.38 49.07 166.99 59.32 169.14 87.26 169.14 102.63 165.67 109.24 156.08 107.42 144.34 64.94 89.46 52.87 74.08 54.52 71.27 93.7 71.93 94.53 77.22 97.01 81.85 103.95 82.84 108.09 79.7 109.24 71.11 104.12 62.34 95.69 57.22 80.31 55.9"/><polyline class="cls-2" points="195.04 55.9 176.69 80.86 159.66 56.73 141.65 55.9 141.15 161.7 143.96 167.65 152.39 168.47 155.86 163.02 156.03 77.89 169.42 96.4 169.91 103.01 175.7 107.64 182.81 105.49 184.3 97.89 198.35 77.39 198.18 164.51 204.96 169.14 211.41 167.65 213.23 161.04 213.23 57.22 195.04 55.9"/><path class="cls-2" d="M506.2,94l.65-23.72,36.46,1.13,5,2.9V87.52l-2.74,4.84L506.2,94m38.88-37.75H491.84V164.64l4.52,3.83h6.29l4.19-5.44-.32-54,3.87-.48,41.46,60h8.07l3.23-5.61-1.77-6.61-34.2-48.56h16.13l13.07-5,6.29-9.84,1.45-11.78-3.39-15.81-15.65-9"/><polyline class="cls-2" points="660.76 56.23 596.43 56.23 596.43 168.47 662.6 168.47 668.14 163.13 663.52 155.29 609.58 153.91 610.04 120.02 634.25 119.1 639.09 112.35 633.55 105.95 609.12 105.49 610.5 71.37 661.22 70.68 666.29 65.84 665.14 59.38 660.76 56.23"/><path id="OUTLINE1" class="cls-3" d="M348.85,253a18,18,0,0,1,0-36h3.35c57.93,0,105.59-44.53,108.5-101.38A107,107,0,0,0,353.85,3H351.5A107,107,0,0,0,244.64,115.62c2.43,47.38,35.94,86.21,80.58,97.83"/><path id="OUTLINE1-2" data-name="OUTLINE1" class="cls-3" d="M352.2,203c-50-.48-91.07-39-93.58-88.09A93,93,0,0,1,351.5,17h2.35a93,93,0,0,1,92.87,97.9c-2.53,49.4-44,88.1-94.52,88.1h-3.35a32,32,0,0,0-26.44,50"/><path class="cls-4" d="M303.9,243.63a41.77,41.77,0,0,1-.11-16.66q.21-1.08.47-2.13"/><polygon points="308.18 227.39 306.25 218.83 299.8 224.78 308.18 227.39"/><path class="cls-4" d="M399.87,218.83a41.77,41.77,0,0,1,2.84,16.42q0,1.1-.12,2.18"/><polygon points="398.31 235.54 401.61 243.67 407 236.75 398.31 235.54"/><path class="cls-5" d="M104.09,140.25c2.88,3.74,5,7.06,5,12,0,10.8-8.21,16.27-18.14,16.27H59.3c-5.47,0-10.22-1-14.54-4.61C40.87,160.7,38,155.51,38,150.47c0-4.61,2.59-8.64,7.63-8.64,4.18,0,6.77,3.46,6.77,7.34,0,4.32,2.3,4.9,6.34,4.9H90c1.15,0,4.75.43,4.75-1.73,0-1.15-2-3.31-2.59-4.18L42.74,84.67C39.72,80.78,38,77.9,38,72.86A16,16,0,0,1,45.62,59c4-2.59,7.34-2.59,12-2.59H88.1c5.47,0,10.08,1.15,14.26,4.75,3.74,3.31,6.77,8.64,6.77,13.68,0,4.61-2.3,8.35-7.49,8.35-4.32,0-6.91-2.74-6.91-6.77,0-4.9-2.45-5.62-6.91-5.62H57.29c-1.58,0-4.9-.43-4.9,2,0,1.3,1.58,3,2.16,3.89Z"/><path class="cls-5" d="M194.8,56.44h18V161.27c0,4.61-2,7.2-7.2,7.2s-7.2-2.59-7.2-7.2v-85h-.29l-13.68,20.3v2.3c0,4.46-1.73,8.64-7.2,8.64-5.18,0-7.2-4.18-7.2-8.64v-2.3l-13.68-20.3h-.29v85c0,4.61-2,7.2-7.2,7.2s-7.2-2.59-7.2-7.2V56.44h18l17.57,25.34Z"/><path class="cls-5" d="M506.59,161.27c0,4.61-2,7.2-7.2,7.2s-7.2-2.59-7.2-7.2V56.44h48.38c11.38,0,22.75,8.06,22.75,20.88v9.94c0,13.54-11.23,20.45-22.75,20.45H527.33l32.4,46.37c1.58,2.16,3.6,4.9,3.6,7.63,0,4-3.31,6.77-7.34,6.77-2.88,0-4.75-1.73-6.34-4L509.9,107.71h-3.31Zm0-68h32c4,0,10.37-.29,10.37-6V77.32c0-5.76-5.9-6.48-10.22-6.48H506.59Z"/><path class="cls-5" d="M659.8,154.07c3.74,0,7.2,2,7.2,7.2s-3.46,7.2-7.2,7.2H595.87v-112H659.8c3.74,0,7.2,2,7.2,7.2s-3.46,7.2-7.2,7.2H610.27v34.42h21.17c3.74,0,7.2,2,7.2,7.2s-3.46,7.2-7.2,7.2H610.27v34.42Z"/><path class="cls-6" d="M372.67,227.12l4.81.44a4,4,0,0,1,3.63,3.77s.09.92.11,4.17,1.43,4.73,3.93,4.73h2.91"/><path class="cls-6" d="M317.78,227.31l2.62.24a4,4,0,0,1,3.63,3.77s.09.92.11,4.17,1.43,4.73,3.93,4.73h3.54"/><polygon class="cls-5" points="37 510.56 656.88 510.56 668.13 499.3 668.13 343.42 48.26 343.42 37 354.67 37 510.56"/><polyline class="cls-5" points="37 354.67 656.79 354.67 656.79 510.56"/><line class="cls-5" x1="668.13" y1="343.42" x2="656.79" y2="354.67"/><path class="cls-5" d="M36.8,438.61A33.83,33.83,0,0,1,3,404.82v-118A33.83,33.83,0,0,1,36.8,253H356.5a18,18,0,0,0,0-36h-3.35"/><path class="cls-5" d="M36.8,424.61A19.82,19.82,0,0,1,17,404.82v-118A19.82,19.82,0,0,1,36.8,267H356.5a32,32,0,0,0,23.63-53.56"/><path class="cls-5" d="M668.14,441.51a33.83,33.83,0,0,0,33.8-33.8V286.8a33.83,33.83,0,0,0-33.8-33.8H382.94"/><path class="cls-5" d="M668.14,427.51a19.82,19.82,0,0,0,19.8-19.8V286.8a19.82,19.82,0,0,0-19.8-19.8H348.85"/><path d="M155.59,420.92h-8.86l-2.27,6.44h-4.14l9.32-25.59h3L162,427.37h-4.14Zm-1.33-3.82-3.1-8.89-3.1,8.89Z"/><path d="M176.22,408.4h3.85v1.15l2.48-1.44h3.28l3.35.9,1.08,1.51,1.22-1,2.45-1.4h3.28l3.35.9,2.27,3.06v15.3H199V413.47l-.68-1-1.8-.58h-1.94l-2.23,1.48-.86,1.22v12.74h-3.85V413.47l-.68-1-1.8-.58h-1.94l-2.23,1.48-.86,1.22v12.74h-3.85Z"/><path d="M210,425.89l-1.91-2.77-.68-3.1v-4.25l.68-3.1,1.91-2.77,3.64-1.8h3.82l3.67,1.8,1.91,2.77.65,3.1V420l-.65,3.1-1.91,2.77-3.67,1.76h-3.82Zm6.73-2,1.87-.94.79-1.22.47-2.2v-3.31l-.47-2.09-.86-1.3-1.76-.9H214.3l-1.69.9-.9,1.26-.43,2.12v3.31l.43,2.23.83,1.19,1.83.94Z"/><path d="M230.61,425.89l-2.41-3.28-.79-2.63v-4.14l.79-2.7,2.41-3.24,3.67-1.8h3.17l2.16.79.29.22v-8.89h3.85v27.14h-3.82v-1l-2.2,1.33h-3.38Zm6.41-2.05,2-1.37.9-1.3v-7.42l-.58-.72-1.15-.72-1.19-.43h-2.05l-1.8,1-1.51,2.05-.36,1.37v3.24l.36,1.26,1.48,2.09,2,.94Z"/><path d="M252.07,426.76l-2.41-3.13V408.4h3.85v13.89l.83,1.12,1.73.47h1.66l2.23-1.51.9-1.19V408.4h3.85v19h-3.82v-1.15l-2.52,1.44h-2.88Z"/><path d="M270.72,400.23h3.85v27.14h-3.85Z"/><path d="M291.59,425.5l-.43.47-3.31,1.69h-2.3l-2.45-.76-1.76-1-2.09-3v-2.2l.54-2.48,2.7-2.74,3.53-.9h2.38l2.38.79.14.11v-1.55l-.29-.72-1.22-.83-1.58-.4h-2.3l-1.19.43-1,.65-1,1-2.66-2.77,1.44-1.33,1.62-1,2.41-.72h3.35l2.41.61,2.84,1.91,1,2.52v10.26l1.51,2.2-3.1,2.23Zm-4.54-1.66,2.34-.9,1.22-1.3.29-.79v-1l-.58-.61-.83-.4-1.66-.5h-1.4l-1.94.54-1.15,1.19-.25.94v.72l.9,1.3.65.36,1.4.47Z"/><path d="M300.23,408.4h3.85v1.37l.43-.43,2.52-1.22h2.48l2.2.61-.94,3.71-1.84-.5h-1.22l-1.66.79-1.26,1.4-.72,1.55v11.7h-3.85Z"/><path d="M328.89,426.65l-2.05-2.92V412.68H323.6v-3.82h3.24v-6.62h3.85v6.62h4.72v3.82h-4.72v9.86l.65.86,1,.43h.76l2.92-.76,1,3.74-3.67.83h-1.73Z"/><path d="M342.28,425.89l-1.91-2.77-.68-3.1v-4.25l.68-3.1,1.91-2.77,3.64-1.8h3.82l3.67,1.8,1.91,2.77.65,3.1V420l-.65,3.1-1.91,2.77-3.67,1.76h-3.82Zm6.73-2,1.87-.94.79-1.22.47-2.2v-3.31l-.47-2.09-.86-1.3-1.76-.9h-2.48l-1.69.9-.9,1.26-.43,2.12v3.31l.43,2.23.83,1.19,1.83.94Z"/><path d="M362.37,425.89l-1.91-2.77-.68-3.1v-4.25l.68-3.1,1.91-2.77,3.64-1.8h3.82l3.67,1.8,1.91,2.77.65,3.1V420l-.65,3.1-1.91,2.77-3.67,1.76H366Zm6.73-2,1.87-.94.79-1.22.47-2.2v-3.31l-.47-2.09-.86-1.3-1.76-.9h-2.48l-1.69.9-.9,1.26-.43,2.12v3.31l.43,2.23.83,1.19,1.83.94Z"/><path d="M380.77,400.23h3.85v27.14h-3.85Z"/><path d="M390.34,400.26h3.85v15L401,408.4h5.47l-8,7.78,8,11.19h-4.71l-6-8.53-1.69,1.62v6.91h-3.85Z"/><path d="M410.28,400.23h5v5.22h-5Zm.61,8.17h3.85v19H410.9Z"/><path d="M424.29,426.65l-2.05-2.92V412.68H419v-3.82h3.24v-6.62h3.85v6.62h4.72v3.82h-4.72v9.86l.65.86,1,.43h.76l2.92-.76,1,3.74-3.67.83H427Z"/><path d="M447.65,412.68h-3.24v-3.82h3.24V404l2.09-3.09,3.13-.94h1.48l3.6.76-1,3.82-3-.76h-.76l-1,.36-.65.94v3.82h4.57v3.82H451.5v14.69h-3.85Z"/><path d="M462.81,425.89l-1.91-2.77-.68-3.1v-4.25l.68-3.1,1.91-2.77,3.64-1.8h3.82l3.67,1.8,1.91,2.77.65,3.1V420l-.65,3.1-1.91,2.77-3.67,1.76h-3.82Zm6.73-2,1.87-.94.79-1.22.47-2.2v-3.31l-.47-2.09-.86-1.3-1.76-.9h-2.48l-1.69.9-.9,1.26-.43,2.12v3.31l.43,2.23.83,1.19,1.83.94Z"/><path d="M480.92,408.4h3.85v1.37l.43-.43,2.52-1.22h2.48l2.2.61-.94,3.71-1.84-.5H488.4l-1.66.79-1.26,1.4-.72,1.55v11.7h-3.85Z"/><path d="M508,426.9l-1.73-1.4-1.15-1.3,2.7-2.59.94,1.08.79.61,2.09.58h2.09l1.19-.36.72-.5.47-.65v-1l-.47-.76-.79-.54L510,419l-2.41-1.3L506,415.56v-3.38l1.22-2.12,1.76-1.33,2.16-.61h3.17l2.84.76,2.56,1.73-2.12,3.17-1.94-1.33-1.73-.54h-2.12l-1.3.36-.36.32-.32.58v1.22l.5.65.76.4,5.25,1,2.12,1.4,1.48,2.38v3.24l-1.4,2.12-1.84,1.33-2.52.72H511Z"/><path d="M524.47,400.23h5v5.22h-5Zm.61,8.17h3.85v19h-3.85Z"/><path d="M538.48,426.65l-2.05-2.92V412.68h-3.24v-3.82h3.24v-6.62h3.85v6.62H545v3.82h-4.72v9.86l.65.86,1,.43h.76l2.92-.76,1,3.74-3.67.83h-1.73Z"/><path d="M552.37,425.86,550,422.62l-.76-2.63v-4.14l.76-2.7,2.41-3.24,3.67-1.8h3.24l3.67,1.8,2.38,3.24.86,2.48V420H553.06l.36.86,1.51,2.12,1.87.9h1.84l2.16-.58,2.2-1.33,2,3.1-2.77,1.84-3.17.79h-3Zm9.94-9.72-.4-1.15-1.48-2.05-1.84-1h-1.94l-1.76.94-1.55,2.09-.25,1.19Z"/><path d="M162.84,470.1l-1.73-1.4L160,467.4l2.7-2.59.94,1.08.79.61,2.09.58h2.09l1.19-.36.72-.5.47-.65v-1l-.47-.76-.79-.54-4.86-1-2.41-1.3-1.58-2.16v-3.38l1.22-2.12,1.76-1.33,2.16-.61h3.17l2.84.76,2.56,1.73L172.42,457l-1.94-1.33-1.73-.54h-2.12l-1.3.36-.36.32-.32.58v1.22l.5.65.76.4,5.25,1,2.12,1.4,1.48,2.38v3.24l-1.4,2.12-1.84,1.33-2.52.72h-3.17Z"/><path d="M179.58,451.6h3.82v1l2.2-1.33H189l3.74,1.76,2.41,3.28.79,2.63v4.14l-.79,2.7-2.41,3.24-3.67,1.8h-3.2l-2.12-.79-.29-.22v6.59h-3.85Zm8.82,15.48,1.8-1,1.51-2.05.36-1.37v-3.2l-.36-1.29-1.48-2.09-2-.94h-1.94l-2,1.37-.9,1.3v7.42l.58.72,1.15.72,1.19.43Z"/><path d="M202.73,469.06l-2.41-3.24-.76-2.63V459l.76-2.7,2.41-3.24,3.67-1.8h3.24l3.67,1.8,2.38,3.24.86,2.48v4.32H203.41l.36.86,1.51,2.12,1.87.9H209l2.16-.58,2.2-1.33,2,3.1-2.77,1.84-3.17.79h-3Zm9.94-9.72-.4-1.15-1.48-2.05-1.84-1H207l-1.76.94-1.55,2.09-.25,1.19Z"/><path d="M223.43,469.06,221,465.82l-.79-2.63V459l.79-2.7,2.41-3.24,3.64-1.8h3l3,1,2.63,2.66-2.77,2.59-2-2-1.22-.43h-2.05l-1.73.94-1.55,2.09-.32,1.37v3.2l.36,1.3,1.55,2.12,1.84.9h1.8l1.26-.43,2.12-2,2.66,2.66-2.59,2.59-3,1h-3Z"/><path d="M239.84,443.43h5v5.22h-5Zm.61,8.17h3.85v19h-3.85Z"/><path d="M251.69,455.88h-3.24v-3.82h3.24v-4.9l2.09-3.1,3.13-.94h1.48l3.6.76-1,3.82-3-.76h-.76l-1,.36-.65.94v3.82h4.57v3.82h-4.57v14.69h-3.85Z"/><path d="M265.33,443.43h5v5.22h-5Zm.61,8.17h3.85v19h-3.85Z"/><path d="M278.36,469.06,276,465.82l-.79-2.63V459l.79-2.7,2.41-3.24,3.64-1.8h3l3,1,2.63,2.66-2.77,2.59-2-2-1.22-.43h-2.05l-1.73.94-1.55,2.09-.32,1.37v3.2l.36,1.3,1.55,2.12,1.84.9h1.8l1.26-.43,2.12-2,2.66,2.66L288,469.88l-3,1h-3Z"/><path d="M304.93,451.6h3.85V453l.43-.43,2.52-1.22h2.48l2.2.61-.94,3.71-1.84-.5h-1.22l-1.66.79-1.26,1.4-.72,1.55v11.7h-3.85Z"/><path d="M322,469.06l-2.41-3.24-.76-2.63V459l.76-2.7,2.41-3.24,3.67-1.8h3.24l3.67,1.8,2.38,3.24.86,2.48v4.32H322.64l.36.86,1.51,2.12,1.87.9h1.84l2.16-.58,2.2-1.33,2,3.1-2.77,1.84-3.17.79h-3Zm9.94-9.72-.4-1.15L330,456.13l-1.84-1h-1.94l-1.76.94-1.55,2.09-.25,1.19Z"/><path d="M342.66,469.06l-2.41-3.24-.79-2.63V459l.79-2.7,2.41-3.24,3.64-1.8h3l3,1,2.63,2.66-2.77,2.59-2-2-1.22-.43h-2.05l-1.73.94-1.55,2.09-.32,1.37v3.2l.36,1.3,1.55,2.12,1.84.9h1.8l1.26-.43,2.12-2,2.66,2.66-2.59,2.59-3,1h-3Z"/><path d="M360.59,469.09l-1.91-2.77-.68-3.1V459l.68-3.1,1.91-2.77,3.64-1.8H368l3.67,1.8,1.91,2.77.65,3.1v4.25l-.65,3.1-1.91,2.77L368,470.86h-3.82Zm6.73-2,1.87-.94.79-1.22.47-2.2v-3.31l-.47-2.09-.86-1.3-1.76-.9h-2.48l-1.69.9-.9,1.26-.43,2.12v3.31l.43,2.23.83,1.19,1.83.94Z"/><path d="M379.38,451.6h3.85v1.15l2.48-1.44H389l3.35.9,1.08,1.51,1.22-1,2.45-1.4h3.28l3.35.9,2.27,3.06v15.3h-3.85V456.67l-.68-1-1.8-.58H397.7l-2.23,1.48-.86,1.22v12.74h-3.85V456.67l-.68-1-1.8-.58h-1.94l-2.23,1.48-.86,1.22v12.74h-3.85Z"/><path d="M416,470.06l-.29-.22v.72h-3.85V443.43h3.85v9.21l2.16-1.33h3.38l3.74,1.76,2.41,3.28.79,2.63v4.14l-.79,2.7L425,469.06l-3.67,1.8h-3.2Zm4.68-3,1.8-1L424,464l.36-1.37v-3.2l-.36-1.29-1.48-2.09-2-.94h-1.94l-2,1.37-.9,1.3v7.42l.58.72,1.15.72,1.19.43Z"/><path d="M433.05,443.43h5v5.22h-5Zm.61,8.17h3.85v19h-3.85Z"/><path d="M444.25,451.6h3.85v1.15l2.48-1.44h3.24l3.35.9,2.27,3.06v15.3h-3.85V456.67l-.68-1-1.8-.58H451.2L449,456.6l-.86,1.22v12.74h-3.85Z"/><path d="M476.36,468.7l-.43.47-3.31,1.69h-2.3l-2.45-.76-1.76-1L464,466v-2.2l.54-2.48,2.7-2.74,3.53-.9h2.38l2.38.79.14.11v-1.55l-.29-.72-1.22-.83-1.58-.4h-2.3l-1.19.43-1,.65-1,1-2.66-2.77,1.44-1.33,1.62-1,2.41-.72h3.35l2.41.61,2.84,1.91,1,2.52v10.26l1.51,2.2-3.1,2.23ZM471.82,467l2.34-.9,1.22-1.3.29-.79v-1l-.58-.61-.83-.4-1.66-.5h-1.4l-1.94.54-1.15,1.19-.25.94v.72l.9,1.3.65.36,1.4.47Z"/><path d="M488.49,469.85l-2.05-2.92V455.88H483.2v-3.82h3.24v-6.62h3.85v6.62H495v3.82h-4.72v9.86l.65.86,1,.43h.76l2.92-.76,1,3.74-3.67.83h-1.73Z"/><path d="M500.37,443.43h5v5.22h-5Zm.61,8.17h3.85v19H501Z"/><path d="M512.86,469.09,511,466.32l-.68-3.1V459l.68-3.1,1.91-2.77,3.64-1.8h3.82l3.67,1.8,1.91,2.77.65,3.1v4.25l-.65,3.1L524,469.09l-3.67,1.76H516.5Zm6.73-2,1.87-.94.79-1.22.47-2.2v-3.31l-.47-2.09-.86-1.3-1.76-.9h-2.48l-1.69.9-.9,1.26-.43,2.12v3.31l.43,2.23.83,1.19,1.83.94Z"/><path d="M531.66,451.6h3.85v1.15l2.48-1.44h3.24l3.35.9,2.27,3.06v15.3H543V456.67l-.68-1-1.8-.58H538.6l-2.23,1.48-.86,1.22v12.74h-3.85Z"/><path class="cls-5" d="M31,395.82"/></g></g></svg>