<svg xmlns="http://www.w3.org/2000/svg" viewBox="0 0 283.4 283.17"><defs><style>.cls-1{fill:#fff;}.cls-1,.cls-2{stroke:#000;stroke-width:3px;}.cls-2{fill:none;}</style></defs><title>ButtonHomeNormal</title><g id="Layer_2" data-name="Layer 2"><g id="Layer_12" data-name="Layer 12"><polygon class="cls-1" points="281.9 1.5 12.76 1.5 1.5 12.76 1.5 281.67 270.64 281.67 281.9 270.41 281.9 1.5"/><polyline class="cls-2" points="281.9 270.41 12.84 270.41 12.81 2"/><line class="cls-1" x1="1.5" y1="281.67" x2="12.84" y2="270.41"/><path d="M101.78,123.33h3.89v10.08h10.11V123.33h3.92v25.59h-3.92V137.3H105.67v11.63h-3.89Z"/><path d="M127.45,147.45l-1.91-2.77-.68-3.1v-4.25l.68-3.1,1.91-2.77,3.64-1.8h3.82l3.67,1.8,1.91,2.77.65,3.1v4.25l-.65,3.1-1.91,2.77-3.67,1.76h-3.82Zm6.73-2,1.87-.94.79-1.22.47-2.2v-3.31l-.47-2.09-.86-1.3-1.76-.9h-2.48l-1.69.9-.9,1.26-.43,2.12v3.31l.43,2.23.83,1.19,1.84.94Z"/><path d="M146.24,130h3.85v1.15l2.48-1.44h3.28l3.35.9,1.08,1.51,1.22-1,2.45-1.4h3.28l3.35.9,2.27,3.06v15.3H169V135l-.68-1-1.8-.58h-1.94L162.33,135l-.86,1.22v12.74h-3.85V135l-.68-1-1.8-.58h-1.94L151,135l-.86,1.22v12.74h-3.85Z"/><path d="M180.55,147.41l-2.41-3.24-.76-2.63V137.4l.76-2.7,2.41-3.24,3.67-1.8h3.24l3.67,1.8,2.38,3.24.86,2.48v4.32H181.23l.36.86,1.51,2.12,1.87.9h1.84l2.16-.58,2.2-1.33,2,3.1-2.77,1.84-3.17.79h-3Zm9.93-9.72-.4-1.15-1.48-2.05-1.84-1h-1.94l-1.76.94-1.55,2.09-.25,1.19Z"/></g></g></svg>