<svg xmlns="http://www.w3.org/2000/svg" viewBox="0 0 283.4 283.17"><defs><style>.cls-1{fill:#fff;}.cls-1,.cls-2{stroke:#000;stroke-width:3px;}.cls-2{fill:none;}</style></defs><title>ButtonTeamNormal</title><g id="Layer_2" data-name="Layer 2"><g id="Layer_12" data-name="Layer 12"><polygon class="cls-1" points="281.9 1.5 12.76 1.5 1.5 12.76 1.5 281.67 270.64 281.67 281.9 270.41 281.9 1.5"/><polyline class="cls-2" points="281.9 270.41 12.84 270.41 12.81 2"/><line class="cls-1" x1="1.5" y1="281.67" x2="12.84" y2="270.41"/><path d="M108.57,125.28h-6.52v-3.85h17.1v3.85h-6.66V147h-3.92Z"/><path d="M124.87,145.51l-2.41-3.24-.76-2.63v-4.14l.76-2.7,2.41-3.24,3.67-1.8h3.24l3.67,1.8,2.38,3.24.86,2.48v4.32H125.56l.36.86,1.51,2.12,1.87.9h1.84l2.16-.58,2.2-1.33,2,3.1-2.77,1.84-3.17.79h-3Zm9.93-9.72-.4-1.15-1.48-2.05-1.84-1h-1.94l-1.76.94-1.55,2.09-.25,1.19Z"/><path d="M154.75,145.15l-.43.47L151,147.31h-2.3l-2.45-.76-1.76-1-2.09-3v-2.2l.54-2.48,2.7-2.74,3.53-.9h2.38l2.38.79.14.11v-1.55l-.29-.72-1.22-.83-1.58-.4h-2.3l-1.19.43-1,.65-1,1-2.66-2.77,1.44-1.33,1.62-1,2.41-.72h3.35l2.41.61,2.84,1.91,1,2.52v10.26l1.51,2.2-3.1,2.23Zm-4.54-1.66,2.34-.9,1.22-1.3.29-.79v-1l-.58-.61-.83-.4L151,138h-1.4l-1.94.54-1.15,1.19-.25.94v.72l.9,1.3.65.36,1.4.47Z"/><path d="M164.08,128.06h3.85v1.15l2.48-1.44h3.28l3.35.9,1.08,1.51,1.22-1,2.45-1.4h3.28l3.35.9,2.27,3.06V147h-3.85V133.13l-.68-1-1.8-.58H182.4l-2.23,1.48-.86,1.22V147h-3.85V133.13l-.68-1-1.8-.58H171l-2.23,1.48-.86,1.22V147h-3.85Z"/></g></g></svg>