<svg xmlns="http://www.w3.org/2000/svg" viewBox="0 0 283.4 283.17"><defs><style>.cls-1{fill:#fff;}.cls-1,.cls-2{stroke:#000;stroke-width:3px;}.cls-2{fill:none;}.cls-3{fill:#f4aa00;}</style></defs><title>ButtonProjectMouse</title><g id="Layer_2" data-name="Layer 2"><g id="Layer_12" data-name="Layer 12"><polygon class="cls-1" points="1.5 1.5 270.64 1.5 281.9 12.76 281.9 281.67 12.76 281.67 1.5 270.41 1.5 1.5"/><polyline class="cls-2" points="1.5 270.41 270.56 270.41 270.59 2"/><line class="cls-1" x1="281.9" y1="281.67" x2="270.56" y2="270.41"/><path class="cls-3" d="M79.85,96.68H90.72l3.35.86,2.74,2.74,1.08,3.78-1,3.6-1.84,2.7-3.42,1.69H83.74v10.22H79.85ZM90.58,108.2l1.84-.9.86-1.26.54-1.87-.5-1.8L92,101.11l-1.87-.58H83.74v7.67Z"/><path class="cls-3" d="M101.12,103.3H105v1.37l.43-.43,2.52-1.22h2.48l2.2.61-.94,3.71-1.84-.5h-1.22l-1.66.79L105.7,109l-.72,1.55v11.7h-3.85Z"/><path class="cls-3" d="M117.65,120.8,115.74,118l-.68-3.1v-4.25l.68-3.1,1.91-2.77,3.64-1.8h3.82l3.67,1.8,1.91,2.77.65,3.1v4.25l-.65,3.1-1.91,2.77-3.67,1.76h-3.82Zm6.73-2,1.87-.94.79-1.22.47-2.2v-3.31L127,109l-.86-1.3-1.76-.9h-2.48l-1.69.9-.9,1.26-.43,2.12v3.31l.43,2.23.83,1.19,1.84.94Z"/><path class="cls-3" d="M131.22,127.53l1-3.71,1.76.43h.79l1-.32.65-1V103.3h3.85V124l-1.91,3-3.13,1.08h-1.66Zm4.43-32.4h5v5.22h-5Z"/><path class="cls-3" d="M148.07,120.76l-2.41-3.24-.76-2.63v-4.14l.76-2.7,2.41-3.24,3.67-1.8H155l3.67,1.8,2.38,3.24.86,2.48v4.32H148.75l.36.86,1.51,2.12,1.87.9h1.84l2.16-.58,2.2-1.33,2,3.1-2.77,1.84-3.17.79h-3ZM158,111l-.4-1.15-1.48-2.05-1.84-1h-1.94l-1.76.94L149,109.86l-.25,1.19Z"/><path class="cls-3" d="M168.77,120.76l-2.41-3.24-.79-2.63v-4.14l.79-2.7,2.41-3.24,3.64-1.8h3l3,1,2.63,2.66-2.77,2.59-2-2-1.22-.43H173l-1.73.94-1.55,2.09-.32,1.37v3.2l.36,1.3,1.55,2.12,1.84.9H175l1.26-.43,2.12-2L181,119l-2.59,2.59-3,1h-3Z"/><path class="cls-3" d="M188.21,121.55l-2.05-2.92V107.59h-3.24v-3.82h3.24V97.15H190v6.62h4.72v3.82H190v9.86l.65.86,1,.43h.76l2.92-.76,1,3.74-3.67.83h-1.73Z"/><path class="cls-3" d="M42.63,149.88h9.61l4.14,1.62L58.86,154l1.58,3.13.76,3.13v4.79l-.76,3.13-1.58,3.13-2.48,2.52-4.14,1.62H42.63Zm8.85,21.74,2.63-1.12L55.66,169l1-2,.68-2.48V160.9l-.65-2.48-1-2.09-1.55-1.51-2.59-1.08h-5v17.89Z"/><path class="cls-3" d="M68.26,174l-2.41-3.24-.76-2.63V164l.76-2.7L68.26,158l3.67-1.8h3.24l3.67,1.8,2.38,3.24.86,2.48v4.32H68.94l.36.86L70.81,171l1.87.9h1.84l2.16-.58,2.2-1.33,2,3.1L78.12,175l-3.17.79h-3Zm9.93-9.72-.4-1.15L76.32,161l-1.84-1H72.54l-1.76.94-1.55,2.09L69,164.24Z"/><path class="cls-3" d="M88.34,175l-1.73-1.4-1.15-1.3,2.7-2.59.94,1.08.79.61L92,172h2.09l1.19-.36.72-.5.47-.65v-1l-.47-.76-.79-.54-4.86-1-2.41-1.3-1.58-2.16v-3.38l1.22-2.12,1.76-1.33,2.16-.61h3.17l2.84.76L100,158.7l-2.12,3.17L96,160.54,94.25,160H92.12l-1.3.36-.36.32-.32.58v1.22l.5.65.76.4,5.25,1,2.12,1.4,1.48,2.38v3.24l-1.4,2.12L97,175l-2.52.72H91.33Z"/><path class="cls-3" d="M106.88,174l-2.41-3.24-.79-2.63V164l.79-2.7,2.41-3.24,3.64-1.8h3l3,1,2.63,2.66-2.77,2.59-2-2-1.22-.43h-2.05l-1.73.94-1.55,2.09-.32,1.37v3.2l.36,1.3,1.55,2.12,1.84.9h1.8l1.26-.43,2.12-2,2.66,2.66-2.59,2.59-3,1h-3Z"/><path class="cls-3" d="M122.83,156.51h3.85v1.37l.43-.43,2.52-1.22h2.48l2.2.61-.94,3.71-1.84-.5h-1.22l-1.66.79-1.26,1.4-.72,1.55v11.7h-3.85Z"/><path class="cls-3" d="M137.84,148.33h5v5.22h-5Zm.61,8.17h3.85v19h-3.85Z"/><path class="cls-3" d="M149.07,156.51h3.82v1l2.2-1.33h3.38l3.74,1.76,2.41,3.28.79,2.63V168l-.79,2.7L162.21,174l-3.67,1.8h-3.2l-2.12-.79-.29-.22v6.59h-3.85ZM157.89,172l1.8-1,1.51-2.05.36-1.37v-3.2l-.36-1.29L159.73,161l-2-.94h-1.94l-2,1.37-.9,1.3v7.42l.58.72,1.15.72,1.19.43Z"/><path class="cls-3" d="M173.23,174.76l-2.05-2.92V160.79h-3.24V157h3.24v-6.62H175V157h4.72v3.82H175v9.86l.65.86,1,.43h.76l2.92-.76,1,3.74-3.67.83h-1.73Z"/><path class="cls-3" d="M185.11,148.33h5v5.22h-5Zm.61,8.17h3.85v19h-3.85Z"/><path class="cls-3" d="M197.6,174l-1.91-2.77-.68-3.1v-4.25l.68-3.1L197.6,158l3.64-1.8h3.82l3.67,1.8,1.91,2.77.65,3.1v4.25l-.65,3.1L208.72,174l-3.67,1.76h-3.82Zm6.73-2,1.87-.94.79-1.22.47-2.2v-3.31l-.47-2.09-.86-1.3-1.76-.9h-2.48l-1.69.9-.9,1.26-.43,2.12v3.31l.43,2.23.83,1.19L202,172Z"/><path class="cls-3" d="M216.39,156.51h3.85v1.15l2.48-1.44H226l3.35.9,2.27,3.06v15.3h-3.85V161.58l-.68-1-1.8-.58h-1.91l-2.23,1.48-.86,1.22v12.74h-3.85Z"/></g></g></svg>