<svg xmlns="http://www.w3.org/2000/svg" viewBox="0 0 849.48 71.22"><title>UnderConstructionWarning</title><g id="Layer_2" data-name="Layer 2"><g id="Layer_12" data-name="Layer 12"><path d="M0,1.55H3.89V11.63H14V1.55h3.92V27.14H14V15.51H3.89V27.14H0Z"/><path d="M24.16,0h5V5.22h-5Zm.61,8.17h3.85v19H24.77Z"/><path d="M48.78,26.42,46.73,23.5V12.45H43.49V8.64h3.24V2h3.85V8.64h4.72v3.82H50.58v9.86l.65.86,1,.43H53l2.92-.76,1,3.74-3.67.83H51.44Z"/><path d="M60.87,0h3.85V9.29l2.48-1.4h3.28l3.13.94,2.27,3v15.3H72V13.25l-.72-1-1.44-.5H67.82l-2.23,1.48-.86,1.3V27.14H60.87Z"/><path d="M83.59,25.63l-2.41-3.24-.76-2.63V15.62l.76-2.7,2.41-3.24,3.67-1.8H90.5l3.67,1.8,2.38,3.24.86,2.48v4.32H84.27l.36.86,1.51,2.12,1.87.9h1.84L92,23l2.2-1.33,2,3.1-2.77,1.84-3.17.79h-3Zm9.93-9.72-.4-1.15-1.48-2.05-1.84-1H87.87l-1.76.94-1.55,2.09-.25,1.19Z"/><path d="M101.77,8.17h3.85V9.54l.43-.43,2.52-1.22h2.48l2.2.61-.94,3.71-1.84-.5h-1.22l-1.66.79-1.26,1.4-.72,1.55v11.7h-3.85Z"/><path d="M118.8,25.63l-2.41-3.24-.76-2.63V15.62l.76-2.7,2.41-3.24,3.67-1.8h3.24l3.67,1.8,2.38,3.24.86,2.48v4.32H119.48l.36.86,1.51,2.12,1.87.9h1.84l2.16-.58,2.2-1.33,2,3.1-2.77,1.84-3.17.79h-3Zm9.93-9.72-.4-1.15-1.48-2.05-1.84-1h-1.94l-1.76.94-1.55,2.09-.25,1.19Z"/><path d="M136.8,30.92l2-3.78L137,26.46V22.14h4.86v4.5L138.67,32Z"/><path d="M161.13,26.42l-2.05-2.92V12.45h-3.24V8.64h3.24V2h3.85V8.64h4.72v3.82h-4.72v9.86l.65.86,1,.43h.76l2.92-.76,1,3.74-3.67.83H163.8Z"/><path d="M173.23,0h3.85V9.29l2.48-1.4h3.28l3.13.94,2.27,3v15.3h-3.85V13.25l-.72-1-1.44-.5h-2.05l-2.23,1.48-.86,1.3V27.14h-3.85Z"/><path d="M193.93,0h5V5.22h-5Zm.61,8.17h3.85v19h-3.85Z"/><path d="M206.35,26.67l-1.73-1.4L203.47,24l2.7-2.59.94,1.08.79.61,2.09.58h2.09l1.19-.36.72-.5.47-.65v-1l-.47-.76-.79-.54-4.86-1-2.41-1.3-1.58-2.16V12l1.22-2.12,1.76-1.33,2.16-.61h3.17l2.84.76L218,10.37l-2.12,3.17L214,12.2l-1.73-.54h-2.12l-1.3.36-.36.32-.32.58v1.22l.5.65.76.4,5.25,1,2.12,1.4L218.26,20v3.24l-1.4,2.12L215,26.71l-2.52.72h-3.17Z"/><path d="M233.71,8.17h3.82v1l2.2-1.33h3.38l3.74,1.76,2.41,3.28.79,2.63v4.14l-.79,2.7-2.41,3.24-3.67,1.8H240l-2.12-.79-.29-.22V33h-3.85Zm8.82,15.48,1.8-1,1.51-2.05.36-1.37V16l-.36-1.29-1.48-2.09-2-.94h-1.94l-2,1.37-.9,1.3v7.42l.58.72,1.15.72,1.19.43Z"/><path d="M266.07,25.27l-.43.47-3.31,1.69H260l-2.45-.76-1.76-1-2.09-3v-2.2l.54-2.48,2.7-2.74,3.53-.9h2.38l2.38.79.14.11V13.64l-.29-.72-1.22-.83-1.58-.4H260l-1.19.43-1,.65-1,1L254.16,11l1.44-1.33,1.62-1,2.41-.72H263l2.41.61,2.84,1.91,1,2.52V23.18l1.51,2.2-3.1,2.23Zm-4.54-1.66,2.34-.9,1.22-1.3.29-.79v-1l-.58-.61-.83-.4-1.66-.5h-1.4l-1.94.54-1.15,1.19-.25.94v.72l.9,1.3.65.36,1.4.47Z"/><path d="M278.35,32.54l-1.91-1.22-1.3-1.3,2.7-2.77L279,28.44l.65.5,1.66.43h2.2l1.4-.5,1.3-.94.32-.79V25l-2.16,1.3h-3.31l-3.71-1.44-2.52-3.28-.79-2.66V15.62l.79-2.7,2.41-3.24,3.64-1.8h3.2l2.16.79.29.22V8.17h3.82V27.68l-.9,2.7-2.88,1.91-2.59.9h-3.2Zm5.33-10,2-1.37.9-1.4V13.53l-.61-.72-1.12-.72-1.19-.43h-2.09l-1.76,1-1.51,2.05-.36,1.37v2.38l.32,1.26,1.48,2,1.94.76Z"/><path d="M298.58,25.63l-2.41-3.24-.76-2.63V15.62l.76-2.7,2.41-3.24,3.67-1.8h3.24l3.67,1.8,2.38,3.24.86,2.48v4.32H299.26l.36.86,1.51,2.12,1.87.9h1.84L307,23l2.2-1.33,2,3.1-2.77,1.84-3.17.79h-3Zm9.93-9.72-.4-1.15-1.48-2.05-1.84-1h-1.94l-1.76.94-1.55,2.09-.25,1.19Z"/><path d="M327.85,0h5V5.22h-5Zm.61,8.17h3.85v19h-3.85Z"/><path d="M340.27,26.67l-1.73-1.4L337.39,24l2.7-2.59.94,1.08.79.61,2.09.58H346l1.19-.36.72-.5.47-.65v-1l-.47-.76-.79-.54-4.86-1-2.41-1.3-1.58-2.16V12l1.22-2.12,1.76-1.33,2.16-.61h3.17l2.84.76L352,10.37l-2.12,3.17L347.9,12.2l-1.73-.54H344l-1.3.36-.36.32-.32.58v1.22l.5.65.76.4,5.25,1,2.12,1.4L352.18,20v3.24l-1.4,2.12-1.84,1.33-2.52.72h-3.17Z"/><path d="M369.43,25.63,367,22.39l-.79-2.63V15.62l.79-2.7,2.41-3.24,3.64-1.8h3l3,1,2.63,2.66-2.77,2.59-2-2-1.22-.43h-2.05l-1.73.94-1.55,2.09-.32,1.37v3.2l.36,1.3L372,22.71l1.84.9h1.8l1.26-.43,2.12-2,2.66,2.66-2.59,2.59-3,1h-3Z"/><path d="M387.93,26.53l-2.41-3.13V8.17h3.85V22.07l.83,1.12,1.73.47h1.66l2.23-1.51.9-1.19V8.17h3.85v19h-3.82V26l-2.52,1.44h-2.88Z"/><path d="M406.29,8.17h3.85V9.54l.43-.43,2.52-1.22h2.48l2.2.61-.94,3.71L415,11.7h-1.22l-1.66.79-1.26,1.4-.72,1.55v11.7h-3.85Z"/><path d="M420.83,8.17h3.85V9.54l.43-.43,2.52-1.22h2.48l2.2.61-.94,3.71-1.84-.5h-1.22l-1.66.79-1.26,1.4-.72,1.55v11.7h-3.85Z"/><path d="M437.86,25.63l-2.41-3.24-.76-2.63V15.62l.76-2.7,2.41-3.24,3.67-1.8h3.24l3.67,1.8,2.38,3.24.86,2.48v4.32H438.54l.36.86,1.51,2.12,1.87.9h1.84l2.16-.58,2.2-1.33,2,3.1-2.77,1.84-3.17.79h-3Zm9.93-9.72-.4-1.15-1.48-2.05-1.84-1h-1.94l-1.76.94-1.55,2.09-.25,1.19Z"/><path d="M456.72,8.17h3.85V9.32l2.48-1.44h3.24l3.35.9,2.27,3.06v15.3h-3.85V13.25l-.68-1-1.8-.58h-1.91l-2.23,1.48-.86,1.22V27.14h-3.85Z"/><path d="M480.63,26.42l-2.05-2.92V12.45h-3.24V8.64h3.24V2h3.85V8.64h4.72v3.82h-4.72v9.86l.65.86,1,.43h.76l2.92-.76,1,3.74-3.67.83h-1.73Z"/><path d="M492.33,0h3.85V27.14h-3.85Z"/><path d="M506.87,24.26,499.56,8.17h4.36l5,11.45,5-11.45h4.28L507.09,33h-4.18Z"/><path d="M534.55,26.53l-2.41-3.13V8.17H536V22.07l.83,1.12,1.73.47h1.66l2.23-1.51.9-1.19V8.17h3.85v19h-3.82V26l-2.52,1.44H538Z"/><path d="M553.6,8.17h3.85V9.32l2.48-1.44h3.24l3.35.9,2.27,3.06v15.3h-3.85V13.25l-.68-1-1.8-.58h-1.91l-2.23,1.48-.86,1.22V27.14H553.6Z"/><path d="M576.49,25.67l-2.41-3.28-.79-2.63V15.62l.79-2.7,2.41-3.24,3.67-1.8h3.17l2.16.79.29.22V0h3.85V27.14h-3.82v-1l-2.2,1.33h-3.38Zm6.41-2.05,2-1.37.9-1.3V13.53l-.58-.72-1.15-.72-1.19-.43h-2.05l-1.8,1-1.51,2.05-.36,1.37v3.24l.36,1.26L579,22.68l2,.94Z"/><path d="M597.88,25.63l-2.41-3.24-.76-2.63V15.62l.76-2.7,2.41-3.24,3.67-1.8h3.24l3.67,1.8,2.38,3.24.86,2.48v4.32H598.56l.36.86,1.51,2.12,1.87.9h1.84L606.3,23l2.2-1.33,2,3.1-2.77,1.84-3.17.79h-3Zm9.93-9.72-.4-1.15-1.48-2.05-1.84-1h-1.94l-1.76.94-1.55,2.09-.25,1.19Z"/><path d="M616.06,8.17h3.85V9.54l.43-.43,2.52-1.22h2.48l2.2.61-.94,3.71-1.84-.5h-1.22l-1.66.79-1.26,1.4-.72,1.55v11.7h-3.85Z"/><path d="M643.74,25.63l-2.41-3.24-.79-2.63V15.62l.79-2.7,2.41-3.24,3.64-1.8h3l3,1L656,11.52l-2.77,2.59-2-2L650,11.7H648l-1.73.94-1.55,2.09-.32,1.37v3.2l.36,1.3,1.55,2.12,1.84.9h1.8l1.26-.43,2.12-2L656,23.87l-2.59,2.59-3,1h-3Z"/><path d="M661.67,25.67l-1.91-2.77-.68-3.1V15.55l.68-3.1,1.91-2.77,3.64-1.8h3.82l3.67,1.8,1.91,2.77.65,3.1V19.8l-.65,3.1-1.91,2.77-3.67,1.76H665.3Zm6.73-2,1.87-.94.79-1.22.47-2.2V16l-.47-2.09-.86-1.3-1.76-.9H666l-1.69.9-.9,1.26L662.93,16v3.31l.43,2.23.83,1.19,1.84.94Z"/><path d="M680.46,8.17h3.85V9.32l2.48-1.44H690l3.35.9,2.27,3.06v15.3H691.8V13.25l-.68-1-1.8-.58h-1.91l-2.23,1.48-.86,1.22V27.14h-3.85Z"/><path d="M702.78,26.67l-1.73-1.4L699.9,24l2.7-2.59.94,1.08.79.61,2.09.58h2.09l1.19-.36.72-.5.47-.65v-1l-.47-.76-.79-.54-4.86-1-2.41-1.3-1.58-2.16V12L702,9.83l1.76-1.33,2.16-.61h3.17l2.84.76,2.56,1.73-2.12,3.17-1.94-1.33-1.73-.54h-2.12l-1.3.36-.36.32-.32.58v1.22l.5.65.76.4,5.25,1,2.12,1.4L714.69,20v3.24l-1.4,2.12-1.84,1.33-2.52.72h-3.17Z"/><path d="M722.29,26.42l-2.05-2.92V12.45H717V8.64h3.24V2h3.85V8.64h4.72v3.82h-4.72v9.86l.65.86,1,.43h.76l2.92-.76,1,3.74-3.67.83H725Z"/><path d="M733.7,8.17h3.85V9.54l.43-.43,2.52-1.22H743l2.2.61-.94,3.71-1.84-.5h-1.22l-1.66.79-1.26,1.4-.72,1.55v11.7H733.7Z"/><path d="M750.8,26.53l-2.41-3.13V8.17h3.85V22.07l.83,1.12,1.73.47h1.66l2.23-1.51.9-1.19V8.17h3.85v19h-3.82V26l-2.52,1.44h-2.88Z"/><path d="M771.68,25.63l-2.41-3.24-.79-2.63V15.62l.79-2.7,2.41-3.24,3.64-1.8h3l3,1L784,11.52l-2.77,2.59-2-2L778,11.7h-2.05l-1.73.94-1.55,2.09-.32,1.37v3.2l.36,1.3,1.55,2.12,1.84.9h1.8l1.26-.43,2.12-2,2.66,2.66-2.59,2.59-3,1h-3Z"/><path d="M791.12,26.42l-2.05-2.92V12.45h-3.24V8.64h3.24V2h3.85V8.64h4.72v3.82h-4.72v9.86l.65.86,1,.43h.76l2.92-.76,1,3.74-3.67.83h-1.73Z"/><path d="M803,0h5V5.22h-5Zm.61,8.17h3.85v19h-3.85Z"/><path d="M815.49,25.67l-1.91-2.77-.68-3.1V15.55l.68-3.1,1.91-2.77,3.64-1.8h3.82l3.67,1.8,1.91,2.77.65,3.1V19.8l-.65,3.1-1.91,2.77-3.67,1.76h-3.82Zm6.73-2,1.87-.94.79-1.22.47-2.2V16l-.47-2.09L824,12.6l-1.76-.9h-2.48l-1.69.9-.9,1.26L816.75,16v3.31l.43,2.23.83,1.19,1.84.94Z"/><path d="M834.29,8.17h3.85V9.32l2.48-1.44h3.24l3.35.9,2.27,3.06v15.3h-3.85V13.25l-.68-1-1.8-.58h-1.91L839,13.17l-.86,1.22V27.14h-3.85Z"/><path d="M78.58,52.69H74.23V50.12h11.4v2.57H81.19v14.5H78.58Z"/><path d="M89.11,66.21l-1.27-1.85-.46-2.06V59.46l.46-2.06,1.27-1.85,2.42-1.2h2.54l2.45,1.2L97.8,57.4l.43,2.06v2.83l-.43,2.06-1.27,1.85-2.45,1.18H91.54Zm4.49-1.34,1.25-.62.53-.82L95.69,62V59.75l-.31-1.39-.58-.86-1.18-.6H92l-1.13.6-.6.84L90,59.75V62l.29,1.49.55.79,1.22.62Z"/><path d="M108.27,54.54h2.57v.91l.29-.29,1.68-.82h1.66l1.46.41-.62,2.47-1.22-.34h-.82l-1.1.53-.84.94-.48,1v7.8h-2.57Z"/><path d="M119.62,66.18,118,64l-.5-1.75V59.51l.5-1.8,1.61-2.16,2.45-1.2h2.16l2.45,1.2,1.58,2.16.58,1.66v2.88h-8.76l.24.58,1,1.42,1.25.6h1.22l1.44-.38,1.46-.89L128,65.63l-1.85,1.22-2.11.53h-2Zm6.62-6.48-.26-.77-1-1.37-1.22-.67h-1.3l-1.18.62-1,1.39-.17.79Z"/><path d="M134.07,66.71l-1.37-1.94V57.4h-2.16V54.85h2.16V50.44h2.57v4.42h3.14V57.4h-3.14V64l.43.58.65.29h.5l1.94-.5.65,2.5-2.45.55h-1.15Z"/><path d="M143.38,66.78l-1.61-2.09V54.54h2.57V63.8l.55.74,1.15.31h1.1l1.49-1,.6-.79V54.54h2.57V67.19h-2.54v-.77l-1.68,1h-1.92Z"/><path d="M155.62,54.54h2.57v.91l.29-.29,1.68-.82h1.66l1.46.41-.62,2.47-1.22-.34h-.82l-1.1.53-.84.94-.48,1v7.8h-2.57Z"/><path d="M165.77,54.54h2.57v.77l1.66-1h2.16l2.23.6,1.51,2v10.2h-2.57V57.92l-.46-.65-1.2-.38H170.4l-1.49,1-.58.82v8.5h-2.57Z"/><path d="M188.79,66.71l-1.37-1.94V57.4h-2.16V54.85h2.16V50.44H190v4.42h3.14V57.4H190V64l.43.58.65.29h.5l1.94-.5.65,2.5-2.45.55h-1.15Z"/><path d="M197.71,66.21l-1.27-1.85L196,62.29V59.46l.46-2.06,1.27-1.85,2.42-1.2h2.54l2.45,1.2,1.27,1.85.43,2.06v2.83l-.43,2.06-1.27,1.85-2.45,1.18h-2.54Zm4.49-1.34,1.25-.62.53-.82.31-1.46V59.75L204,58.36l-.58-.86-1.18-.6h-1.66l-1.13.6-.6.84-.29,1.42V62l.29,1.49.55.79,1.22.62Z"/><path d="M224.67,65.94l-.29.31-2.21,1.13h-1.54l-1.63-.5-1.18-.7-1.39-2V62.7l.36-1.66,1.8-1.82,2.35-.6h1.58l1.58.53.1.07v-1l-.19-.48-.82-.55-1.06-.26h-1.54l-.79.29-.65.43-.67.65-1.78-1.85,1-.89,1.08-.7,1.61-.48h2.23l1.61.41,1.9,1.27.67,1.68v6.84l1,1.46-2.06,1.49Zm-3-1.1,1.56-.6.82-.86.19-.53v-.67l-.38-.41-.55-.26-1.1-.34h-.94l-1.3.36-.77.79-.17.62v.48l.6.86.43.24.94.31Z"/><path d="M238.39,57.4h-2.16V54.85h2.16V51.59l1.39-2.06,2.09-.62h1l2.4.5-.67,2.54-2-.5h-.5l-.67.24-.43.62v2.54h3V57.4h-3v9.79h-2.57Z"/><path d="M247.49,49.09h3.36v3.48h-3.36Zm.41,5.45h2.57V67.19H247.9Z"/><path d="M255,54.54h2.57v.77l1.66-1h2.16l2.23.6,1.51,2v10.2h-2.57V57.92l-.46-.65-1.2-.38h-1.27l-1.49,1-.58.82v8.5H255Z"/><path d="M276.36,65.94l-.29.31-2.21,1.13h-1.54l-1.63-.5-1.18-.7-1.39-2V62.7l.36-1.66,1.8-1.82,2.35-.6h1.58l1.58.53.1.07v-1l-.19-.48-.82-.55-1.06-.26H272.3l-.79.29-.65.43-.67.65-1.78-1.85,1-.89,1.08-.7,1.61-.48h2.23l1.61.41L277.8,56l.67,1.68v6.84l1,1.46-2.06,1.49Zm-3-1.1,1.56-.6.82-.86.19-.53v-.67l-.38-.41L275,61.5l-1.1-.34h-.94l-1.3.36-.77.79-.17.62v.48l.6.86.43.24.94.31Z"/><path d="M282.31,49.09h2.57v18.1h-2.57Z"/><path d="M288.74,49.09h3.36v3.48h-3.36Zm.41,5.45h2.57V67.19h-2.57Z"/><path d="M297,66.88l-1.15-.94-.77-.86,1.8-1.73.62.72.53.41,1.39.38h1.39l.79-.24.48-.34.31-.43v-.7l-.31-.5-.53-.36-3.24-.67-1.61-.86-1.06-1.44V57.06l.82-1.42,1.18-.89,1.44-.41h2.11l1.9.5,1.7,1.15-1.42,2.11-1.3-.89L301,56.87h-1.42l-.86.24-.24.22-.22.38v.82l.34.43.5.26,3.5.7,1.42.94,1,1.58V64.6L304,66l-1.22.89-1.68.48H299Z"/><path d="M309.36,66.18,307.75,64l-.5-1.75V59.51l.5-1.8,1.61-2.16,2.45-1.2H314l2.45,1.2L318,57.71l.58,1.66v2.88h-8.76l.24.58,1,1.42,1.25.6h1.22l1.44-.38,1.46-.89,1.34,2.06-1.85,1.22-2.11.53h-2ZM316,59.7l-.26-.77-1-1.37-1.22-.67h-1.3l-1.18.62-1,1.39-.17.79Z"/><path d="M323.13,66.21,321.53,64,321,62.27V59.51l.53-1.8,1.61-2.16,2.45-1.2h2.11l1.44.53.19.14V49.09h2.57v18.1h-2.54v-.7l-1.46.89h-2.26Zm4.27-1.37,1.32-.91.6-.86V58.12l-.38-.48-.77-.48-.79-.29H326l-1.2.67-1,1.37-.24.91V62l.24.84,1,1.39,1.32.62Z"/><path d="M343.29,54.54h2.54v.7l1.46-.89h2.26l2.5,1.18,1.61,2.18.53,1.75v2.76l-.53,1.8-1.61,2.16-2.45,1.2h-2.14l-1.42-.53-.19-.14V71.1h-2.57Zm5.88,10.32,1.2-.67,1-1.37.24-.91V59.77l-.24-.86-1-1.39-1.32-.62h-1.3l-1.32.91-.6.86v4.94l.38.48.77.48.79.29Z"/><path d="M364.87,65.94l-.29.31-2.21,1.13h-1.54l-1.63-.5-1.18-.7-1.39-2V62.7L357,61l1.8-1.82,2.35-.6h1.58l1.58.53.1.07v-1l-.19-.48-.82-.55-1.06-.26h-1.54l-.79.29-.65.43-.67.65-1.78-1.85,1-.89,1.08-.7,1.61-.48h2.23l1.61.41,1.9,1.27.67,1.68v6.84L368,66l-2.06,1.49Zm-3-1.1,1.56-.6.82-.86.19-.53v-.67l-.38-.41-.55-.26-1.1-.34h-.94l-1.3.36-.77.79-.17.62v.48l.6.86.43.24.94.31Z"/><path d="M373.05,70.79,371.78,70l-.86-.86,1.8-1.85.79.79.43.34,1.1.29h1.46l.94-.34.86-.62.22-.53V65.77l-1.44.86h-2.21l-2.47-1-1.68-2.18-.53-1.78V59.51l.53-1.8,1.61-2.16,2.42-1.2h2.14l1.44.53.19.14v-.48h2.54v13l-.6,1.8-1.92,1.27-1.73.6h-2.14Zm3.55-6.7,1.32-.91.6-.94V58.12l-.41-.48-.74-.48-.79-.29h-1.39l-1.18.67-1,1.37-.24.91v1.58l.22.84,1,1.34,1.3.5Z"/><path d="M386.54,66.18,384.93,64l-.5-1.75V59.51l.5-1.8,1.61-2.16,2.45-1.2h2.16l2.45,1.2,1.58,2.16.58,1.66v2.88H387l.24.58,1,1.42,1.25.6h1.22l1.44-.38,1.46-.89L395,65.63l-1.85,1.22-2.11.53h-2Zm6.62-6.48-.26-.77-1-1.37-1.22-.67h-1.3l-1.18.62-1,1.39-.17.79Z"/><path d="M398.54,69.71l1.34-2.52-1.18-.46V63.85h3.24v3l-2.16,3.55Z"/><path d="M412.92,54.54h2.54v.7l1.46-.89h2.26l2.5,1.18,1.61,2.18.53,1.75v2.76l-.53,1.8-1.61,2.16-2.45,1.2h-2.14l-1.42-.53-.19-.14V71.1h-2.57Zm5.88,10.32,1.2-.67,1-1.37.24-.91V59.77l-.24-.86-1-1.39-1.32-.62h-1.3l-1.32.91-.6.86v4.94l.38.48.77.48.79.29Z"/><path d="M426.89,49.09h2.57v18.1h-2.57Z"/><path d="M434.66,66.18,433.05,64l-.5-1.75V59.51l.5-1.8,1.61-2.16,2.45-1.2h2.16l2.45,1.2,1.58,2.16.58,1.66v2.88h-8.76l.24.58,1,1.42,1.25.6h1.22l1.44-.38,1.46-.89,1.34,2.06-1.85,1.22-2.11.53h-2Zm6.62-6.48-.26-.77-1-1.37-1.22-.67h-1.3l-1.18.62-1,1.39-.17.79Z"/><path d="M454.58,65.94l-.29.31-2.21,1.13h-1.54l-1.63-.5-1.18-.7-1.39-2V62.7l.36-1.66,1.8-1.82,2.35-.6h1.58l1.58.53.1.07v-1l-.19-.48-.82-.55-1.06-.26h-1.54l-.79.29-.65.43-.67.65-1.78-1.85,1-.89,1.08-.7,1.61-.48h2.23l1.61.41L456,56l.67,1.68v6.84l1,1.46-2.06,1.49Zm-3-1.1,1.56-.6.82-.86.19-.53v-.67l-.38-.41-.55-.26-1.1-.34h-.94l-1.3.36-.77.79-.17.62v.48l.6.86.43.24.94.31Z"/><path d="M461.61,66.88l-1.15-.94-.77-.86,1.8-1.73.62.72.53.41,1.39.38h1.39l.79-.24.48-.34.31-.43v-.7l-.31-.5-.53-.36-3.24-.67-1.61-.86-1.06-1.44V57.06l.82-1.42,1.18-.89,1.44-.41h2.11l1.9.5,1.7,1.15L468,58.12l-1.3-.89-1.15-.36h-1.42l-.86.24-.24.22-.22.38v.82l.34.43.5.26,3.5.7,1.42.94,1,1.58V64.6L468.62,66l-1.22.89-1.68.48H463.6Z"/><path d="M473.95,66.18,472.34,64l-.5-1.75V59.51l.5-1.8,1.61-2.16,2.45-1.2h2.16l2.45,1.2,1.58,2.16.58,1.66v2.88H474.4l.24.58,1,1.42,1.25.6h1.22l1.44-.38,1.46-.89,1.34,2.06-1.85,1.22-2.11.53h-2Zm6.62-6.48-.26-.77-1-1.37-1.22-.67h-1.3l-1.18.62-1,1.39-.17.79Z"/><path d="M494,57.4h-2.16V54.85H494V51.59l1.39-2.06,2.09-.62h1l2.4.5-.67,2.54-2-.5h-.5l-.67.24-.43.62v2.54h3V57.4h-3v9.79H494Z"/><path d="M504.14,66.21l-1.27-1.85-.46-2.06V59.46l.46-2.06,1.27-1.85,2.42-1.2h2.54l2.45,1.2,1.27,1.85.43,2.06v2.83l-.43,2.06-1.27,1.85-2.45,1.18h-2.54Zm4.49-1.34,1.25-.62.53-.82.31-1.46V59.75l-.31-1.39-.58-.86-1.18-.6H507l-1.13.6-.6.84L505,59.75V62l.29,1.49.55.79,1.22.62Z"/><path d="M516.4,49.09H519v18.1H516.4Z"/><path d="M522.72,49.09h2.57v18.1h-2.57Z"/><path d="M530.16,66.21l-1.27-1.85-.46-2.06V59.46l.46-2.06,1.27-1.85,2.42-1.2h2.54l2.45,1.2,1.27,1.85.43,2.06v2.83l-.43,2.06-1.27,1.85-2.45,1.18h-2.54Zm4.49-1.34,1.25-.62.53-.82.31-1.46V59.75l-.31-1.39-.58-.86-1.18-.6H533l-1.13.6-.6.84L531,59.75V62l.29,1.49.55.79,1.22.62Z"/><path d="M541.15,54.54h2.66L546,62.63,548.73,55h2l2.69,7.61,2.21-8.07h2.69l-3.67,12.65H552.4l-2.66-7.66-2.64,7.66h-2.28Z"/><path d="M569.06,66.21l-1.27-1.85-.46-2.06V59.46l.46-2.06,1.27-1.85,2.42-1.2H574l2.45,1.2,1.27,1.85.43,2.06v2.83l-.43,2.06-1.27,1.85L574,67.38h-2.54Zm4.49-1.34,1.25-.62.53-.82.31-1.46V59.75l-.31-1.39-.58-.86-1.18-.6h-1.66l-1.13.6-.6.84-.29,1.42V62l.29,1.49.55.79,1.22.62Z"/><path d="M581.59,54.54h2.57v.77l1.66-1H588l2.23.6,1.51,2v10.2h-2.57V57.92l-.46-.65-1.2-.38h-1.27l-1.49,1-.58.82v8.5h-2.57Z"/><path d="M596.85,66.18,595.24,64l-.5-1.75V59.51l.5-1.8,1.61-2.16,2.45-1.2h2.16l2.45,1.2,1.58,2.16.58,1.66v2.88h-8.76l.24.58,1,1.42,1.25.6H601l1.44-.38,1.46-.89,1.34,2.06-1.85,1.22-2.11.53h-2Zm6.62-6.48-.26-.77-1-1.37L601,56.89h-1.3l-1.18.62-1,1.39-.17.79Z"/><path d="M617.37,66.21l-1.27-1.85-.46-2.06V59.46l.46-2.06,1.27-1.85,2.42-1.2h2.54l2.45,1.2,1.27,1.85.43,2.06v2.83l-.43,2.06-1.27,1.85-2.45,1.18h-2.54Zm4.49-1.34,1.25-.62.53-.82.31-1.46V59.75l-.31-1.39-.58-.86-1.18-.6h-1.66l-1.13.6-.6.84-.29,1.42V62l.29,1.49.55.79,1.22.62Z"/><path d="M630.33,57.4h-2.16V54.85h2.16V51.59l1.39-2.06,2.09-.62h1l2.4.5-.67,2.54-2-.5H634l-.67.24-.43.62v2.54h3V57.4h-3v9.79h-2.57Z"/><path d="M648.52,66.71l-1.37-1.94V57.4H645V54.85h2.16V50.44h2.57v4.42h3.14V57.4h-3.14V64l.43.58.65.29h.5l1.94-.5.65,2.5-2.45.55H650.3Z"/><path d="M656.59,49.09h2.57v6.19l1.66-.94H663l2.09.62,1.51,2v10.2H664V57.92l-.48-.7-1-.34h-1.37l-1.49,1-.58.86v8.45h-2.57Z"/><path d="M671.73,66.18,670.12,64l-.5-1.75V59.51l.5-1.8,1.61-2.16,2.45-1.2h2.16l2.45,1.2,1.58,2.16.58,1.66v2.88h-8.76l.24.58,1,1.42,1.25.6h1.22l1.44-.38,1.46-.89,1.34,2.06-1.85,1.22-2.11.53h-2Zm6.62-6.48-.26-.77-1-1.37-1.22-.67h-1.3l-1.18.62-1,1.39-.17.79Z"/><path d="M685.12,66.88,684,65.94l-.77-.86,1.8-1.73.62.72.53.41,1.39.38h1.39l.79-.24.48-.34.31-.43v-.7l-.31-.5-.53-.36-3.24-.67-1.61-.86-1.06-1.44V57.06l.82-1.42,1.18-.89,1.44-.41h2.11l1.9.5,1.7,1.15-1.42,2.11-1.3-.89-1.15-.36h-1.42l-.86.24-.24.22-.22.38v.82l.34.43.5.26,3.5.7,1.42.94,1,1.58V64.6L692.13,66l-1.22.89-1.68.48h-2.11Z"/><path d="M697.46,66.18,695.85,64l-.5-1.75V59.51l.5-1.8,1.61-2.16,2.45-1.2h2.16l2.45,1.2,1.58,2.16.58,1.66v2.88h-8.76l.24.58,1,1.42,1.25.6h1.22l1.44-.38,1.46-.89,1.34,2.06L704,66.85l-2.11.53h-2Zm6.62-6.48-.26-.77-1-1.37-1.22-.67h-1.3l-1.18.62-1,1.39-.17.79Z"/><path d="M716.85,49.09h2.57v18.1h-2.57Z"/><path d="M723.28,49.09h3.36v3.48h-3.36Zm.41,5.45h2.57V67.19h-2.57Z"/><path d="M730.75,54.54h2.57v.77l1.66-1h2.16l2.23.6,1.51,2v10.2h-2.57V57.92l-.46-.65-1.2-.38h-1.27l-1.49,1-.58.82v8.5h-2.57Z"/><path d="M744.62,49.12h2.57v10l4.56-4.56h3.65l-5.3,5.18,5.35,7.46H752.3l-4-5.69-1.13,1.08v4.61h-2.57Z"/><path d="M758.87,66.88l-1.15-.94-.77-.86,1.8-1.73.62.72.53.41,1.39.38h1.39l.79-.24.48-.34.31-.43v-.7l-.31-.5-.53-.36-3.24-.67-1.61-.86-1.06-1.44V57.06l.82-1.42,1.18-.89,1.44-.41h2.11l1.9.5,1.7,1.15-1.42,2.11-1.3-.89-1.15-.36h-1.42l-.86.24-.24.22-.22.38v.82l.34.43.5.26,3.5.7,1.42.94,1,1.58V64.6L765.88,66l-1.22.89-1.68.48h-2.11Z"/><path d="M773.05,57.19H770V54.1h3.09Zm0,10H770V64.1h3.09Z"/></g></g></svg>