<svg xmlns="http://www.w3.org/2000/svg" viewBox="0 0 168.37 71.59"><defs><style>.cls-1{fill:#fff;}.cls-2,.cls-3{fill:none;stroke:#000;}.cls-2{stroke-miterlimit:10;stroke-width:1.59px;}.cls-3{stroke-width:1.59px;}</style></defs><title>HeaderLogoFill</title><g id="Layer_2" data-name="Layer 2"><g id="Layer_7" data-name="Layer 7"><polygon class="cls-1" points="85.25 67.08 85.25 70.8 87.92 70.36 90.93 68.94 92.98 65.81 93.71 62.88 93.55 60.56 91.77 56.53 87.19 57.54 88.78 59.02 89.69 61.03 89.79 63.51 89.29 65.02 86.84 67.08 85.25 67.08"/></g><g id="Layer_9" data-name="Layer 9"><path id="OUTLINE1" class="cls-2" d="M85.25,67.08a4.77,4.77,0,1,0,0-9.55h-.89"/><path id="OUTLINE1-2" data-name="OUTLINE1" class="cls-2" d="M91.51,56.59a8.48,8.48,0,0,1-6.27,14.2"/><path id="OUTLINE1-3" data-name="OUTLINE1" class="cls-2" d="M83.22,67.08a4.77,4.77,0,0,1,0-9.55h.89a28.57,28.57,0,0,0,28.77-26.88A28.37,28.37,0,0,0,84.55.8h-.62A28.37,28.37,0,0,0,55.59,30.66,28.41,28.41,0,0,0,77,56.6"/><path id="OUTLINE1-4" data-name="OUTLINE1" class="cls-2" d="M84.11,53.82A24.85,24.85,0,0,1,59.3,30.47a24.66,24.66,0,0,1,24.63-26h.62a24.66,24.66,0,0,1,24.63,26A24.86,24.86,0,0,1,84.11,53.83h-.89a8.48,8.48,0,0,0-7,13.26"/><path class="cls-3" d="M18.32,37.19a5,5,0,0,1,1.34,3.17c0,2.86-2.18,4.31-4.81,4.31H6.45a5.63,5.63,0,0,1-3.86-1.22A4.83,4.83,0,0,1,.8,39.9a2.06,2.06,0,0,1,2-2.29,1.83,1.83,0,0,1,1.79,1.95c0,1.15.61,1.3,1.68,1.3h8.28c.31,0,1.26.11,1.26-.46,0-.31-.53-.88-.69-1.11L2.06,22.45A4.58,4.58,0,0,1,.8,19.32a4.25,4.25,0,0,1,2-3.67A5.11,5.11,0,0,1,6,15h8.09a5.41,5.41,0,0,1,3.78,1.26,5.2,5.2,0,0,1,1.79,3.63,2,2,0,0,1-2,2.21,1.69,1.69,0,0,1-1.83-1.79c0-1.3-.65-1.49-1.83-1.49H5.91c-.42,0-1.3-.11-1.3.54,0,.34.42.8.57,1Z"/><path class="cls-3" d="M42.37,15h4.77V42.76a1.67,1.67,0,0,1-1.91,1.91,1.67,1.67,0,0,1-1.91-1.91V20.24h-.08l-3.63,5.38v.61c0,1.18-.46,2.29-1.91,2.29s-1.91-1.11-1.91-2.29v-.61l-3.63-5.38H32.1V42.76a1.67,1.67,0,0,1-1.91,1.91,1.67,1.67,0,0,1-1.91-1.91V15h4.77l4.66,6.72Z"/><path class="cls-3" d="M125,42.76a1.91,1.91,0,1,1-3.82,0V15h12.83c3,0,6,2.14,6,5.54v2.63c0,3.59-3,5.42-6,5.42h-3.51l8.59,12.29a3.83,3.83,0,0,1,1,2,1.83,1.83,0,0,1-1.95,1.79,2,2,0,0,1-1.68-1.07l-10.54-15H125Zm0-18h8.48c1.07,0,2.75-.08,2.75-1.6V20.51c0-1.53-1.57-1.72-2.71-1.72H125Z"/><path class="cls-3" d="M165.67,40.86a1.91,1.91,0,1,1,0,3.82h-17V15h17a1.76,1.76,0,0,1,1.91,1.91,1.76,1.76,0,0,1-1.91,1.91H152.54v9.13h5.61a1.76,1.76,0,0,1,1.91,1.91,1.76,1.76,0,0,1-1.91,1.91h-5.61v9.12Z"/></g></g></svg>