<svg xmlns="http://www.w3.org/2000/svg" viewBox="0 0 640 480"><defs><style>.cls-1{fill:#e0e9ef;}</style></defs><title>CaroPlaceholder6</title><g id="Layer_2" data-name="Layer 2"><g id="Layer_10" data-name="Layer 10"><rect class="cls-1" width="640" height="480"/><path d="M117.45,230,115,227.5l-1.55-3.2-.68-3.06v-5.29l.68-3.13,1.51-3.13,2.59-2.52,3.78-1.66h4l3.82,1.51,1.62,1.26,1.73,2L129.69,213l-1.51-1.73-1-.76-2.45-1.08h-2.66l-2.27,1L118.21,212l-1,2-.54,2.34v4.39l.54,2.34,1,2.09,1.55,1.51,2.3,1.08h2.66l2.52-1.08.94-.76,1.48-1.73,2.81,2.66-1.73,2-1.62,1.26-3.82,1.51h-4Z"/><path d="M136.6,204.25h3.85v27.14H136.6Z"/><path d="M146.25,204.25h5v5.22h-5Zm.61,8.17h3.85v19h-3.85Z"/><path d="M159.28,229.88l-2.41-3.24-.79-2.63v-4.14l.79-2.7,2.41-3.24,3.64-1.8h3l3,1,2.63,2.66-2.77,2.59-2-2-1.22-.43h-2.05l-1.73.94L160.25,219l-.32,1.37v3.2l.36,1.3,1.55,2.12,1.84.9h1.8l1.26-.43,2.12-2,2.66,2.66-2.59,2.59-3,1h-3Z"/><path d="M175.63,204.28h3.85v15l6.84-6.84h5.47l-8,7.78,8,11.19h-4.71l-6-8.53-1.69,1.62v6.91h-3.85Z"/><path d="M206.4,204.25h3.85v9.29l2.48-1.4H216l3.13.94,2.27,3v15.3h-3.85V217.49l-.72-1-1.44-.5h-2.05l-2.23,1.48-.86,1.29v12.67H206.4Z"/><path d="M229.12,229.88l-2.41-3.24L226,224v-4.14l.76-2.7,2.41-3.24,3.67-1.8H236l3.67,1.8,2.38,3.24.86,2.48V224H229.8l.36.86,1.51,2.12,1.87.9h1.84l2.16-.58,2.2-1.33,2,3.1L239,230.88l-3.17.79h-3Zm9.94-9.72-.4-1.15L237.18,217l-1.84-1H233.4l-1.76.94L230.09,219l-.25,1.19Z"/><path d="M247.3,212.42h3.85v1.37l.43-.43,2.52-1.22h2.48l2.2.61-.94,3.71-1.84-.5h-1.22l-1.66.79-1.26,1.4-.72,1.55v11.7H247.3Z"/><path d="M264.33,229.88l-2.41-3.24-.76-2.63v-4.14l.76-2.7,2.41-3.24,3.67-1.8h3.24l3.67,1.8,2.38,3.24.86,2.48V224H265l.36.86,1.51,2.12,1.87.9h1.84l2.16-.58,2.2-1.33,2,3.1-2.77,1.84-3.17.79h-3Zm9.94-9.72-.4-1.15L272.39,217l-1.84-1h-1.94l-1.76.94L265.3,219l-.25,1.19Z"/><path d="M296.62,230.67l-2.05-2.92V216.7h-3.24v-3.82h3.24v-6.62h3.85v6.62h4.72v3.82h-4.72v9.86l.65.86,1,.43h.76l2.92-.76,1,3.74-3.67.83h-1.73Z"/><path d="M310,229.91l-1.91-2.77-.68-3.1V219.8l.68-3.1,1.91-2.77,3.64-1.8h3.82l3.67,1.8L323,216.7l.65,3.1V224l-.65,3.1-1.91,2.77-3.67,1.76h-3.82Zm6.73-2,1.87-.94.79-1.22.47-2.2v-3.31l-.47-2.09-.86-1.3-1.76-.9H314.3l-1.69.9-.9,1.26-.43,2.12v3.31l.43,2.23.83,1.19,1.83.94Z"/><path d="M341.22,229.88l-2.41-3.24-.76-2.63v-4.14l.76-2.7,2.41-3.24,3.67-1.8h3.24l3.67,1.8,2.38,3.24.86,2.48V224H341.91l.36.86,1.51,2.12,1.87.9h1.84l2.16-.58,2.2-1.33,2,3.1-2.77,1.84-3.17.79h-3Zm9.94-9.72-.4-1.15L349.29,217l-1.84-1h-1.94l-1.76.94L342.2,219l-.25,1.19Z"/><path d="M364.41,221.88l-7.09-9.47h4.82l4.68,6.3,4.64-6.3h4.82l-7.09,9.47c2.2,3,5,6.62,7.16,9.5H371.5L366.82,225l-4.71,6.37h-4.86Z"/><path d="M380,212.42h3.82v1l2.2-1.33h3.38l3.74,1.76,2.41,3.28.79,2.63v4.14l-.79,2.7-2.41,3.24-3.67,1.8h-3.2l-2.12-.79-.29-.22v6.59H380Zm8.82,15.48,1.8-1,1.51-2.05.36-1.37v-3.2l-.36-1.29-1.48-2.09-2-.94h-1.94l-2,1.37-.9,1.3V226l.58.72,1.15.72,1.19.43Z"/><path d="M400.95,204.25h3.85v27.14h-3.85Z"/><path d="M412.11,229.91l-1.91-2.77-.68-3.1V219.8l.68-3.1,1.91-2.77,3.64-1.8h3.82l3.67,1.8,1.91,2.77.65,3.1V224l-.65,3.1-1.91,2.77-3.67,1.76h-3.82Zm6.73-2,1.87-.94.79-1.22.47-2.2v-3.31l-.47-2.09-.86-1.3-1.76-.9h-2.48l-1.69.9-.9,1.26-.43,2.12v3.31l.43,2.23.83,1.19,1.83.94Z"/><path d="M430.21,212.42h3.85v1.37l.43-.43,2.52-1.22h2.48l2.2.61-.94,3.71-1.84-.5H437.7l-1.66.79-1.26,1.4-.72,1.55v11.7h-3.85Z"/><path d="M447.24,229.88l-2.41-3.24-.76-2.63v-4.14l.76-2.7,2.41-3.24,3.67-1.8h3.24l3.67,1.8,2.38,3.24.86,2.48V224H447.93l.36.86L449.8,227l1.87.9h1.84l2.16-.58,2.2-1.33,2,3.1-2.77,1.84-3.17.79h-3Zm9.94-9.72-.4-1.15L455.31,217l-1.84-1h-1.94l-1.76.94L448.21,219l-.25,1.19Z"/><path d="M478,229.91l-1.91-2.77-.68-3.1V219.8l.68-3.1,1.91-2.77,3.64-1.8h3.82l3.67,1.8,1.91,2.77.65,3.1V224l-.65,3.1-1.91,2.77-3.67,1.76h-3.82Zm6.73-2,1.87-.94.79-1.22.47-2.2v-3.31l-.47-2.09-.86-1.3-1.76-.9h-2.48l-1.69.9-.9,1.26-.43,2.12v3.31l.43,2.23.83,1.19,1.83.94Z"/><path d="M498.69,230.78l-2.41-3.13V212.42h3.85v13.89l.83,1.12,1.73.47h1.66l2.23-1.51.9-1.19V212.42h3.85v19h-3.82v-1.15L505,231.68h-2.88Z"/><path d="M517,212.42h3.85v1.37l.43-.43,2.52-1.22h2.48l2.2.61-.94,3.71-1.84-.5h-1.22l-1.66.79-1.26,1.4-.72,1.55v11.7H517Z"/><path d="M121.88,255.62h3.82v1l2.2-1.33h3.38l3.74,1.76,2.41,3.28.79,2.63v4.14l-.79,2.7L135,273.08l-3.67,1.8h-3.2l-2.12-.79-.29-.22v6.59h-3.85Zm8.82,15.48,1.8-1L134,268l.36-1.37v-3.2l-.36-1.29-1.48-2.09-2-.94h-1.94l-2,1.37-.9,1.3v7.42l.58.72,1.15.72,1.19.43Z"/><path d="M142.54,255.62h3.85V257l.43-.43,2.52-1.22h2.48l2.2.61-.94,3.71-1.84-.5H150l-1.66.79-1.26,1.4-.72,1.55v11.7h-3.85Z"/><path d="M159.07,273.11l-1.91-2.77-.68-3.1V263l.68-3.1,1.91-2.77,3.64-1.8h3.82l3.67,1.8,1.91,2.77.65,3.1v4.25l-.65,3.1-1.91,2.77-3.67,1.76H162.7Zm6.73-2,1.87-.94.79-1.22.47-2.2v-3.31l-.47-2.09-.86-1.3-1.76-.9h-2.48l-1.69.9-.9,1.26-.43,2.12v3.31l.43,2.23.83,1.19,1.83.94Z"/><path d="M172.64,279.84l1-3.71,1.76.43h.79l1-.32.65-1V255.62h3.85v20.73l-1.91,3-3.13,1.08H175Zm4.43-32.4h5v5.22h-5Z"/><path d="M189.49,273.08l-2.41-3.24-.76-2.63v-4.14l.76-2.7,2.41-3.24,3.67-1.8h3.24l3.67,1.8,2.38,3.24.86,2.48v4.32H190.17l.36.86,1.51,2.12,1.87.9h1.84l2.16-.58,2.2-1.33,2,3.1-2.77,1.84-3.17.79h-3Zm9.94-9.72-.4-1.15-1.48-2.05-1.84-1h-1.94l-1.76.94-1.55,2.09-.25,1.19Z"/><path d="M210.19,273.08l-2.41-3.24-.79-2.63v-4.14l.79-2.7,2.41-3.24,3.64-1.8h3l3,1,2.63,2.66-2.77,2.59-2-2-1.22-.43h-2.05l-1.73.94-1.55,2.09-.32,1.37v3.2l.36,1.3,1.55,2.12,1.84.9h1.8l1.26-.43,2.12-2,2.66,2.66-2.59,2.59-3,1h-3Z"/><path d="M229.63,273.87,227.57,271V259.9h-3.24v-3.82h3.24v-6.62h3.85v6.62h4.72v3.82h-4.72v9.86l.65.86,1,.43h.76l2.92-.76,1,3.74-3.67.83h-1.73Z"/><path d="M252.13,247.45h5v5.22h-5Zm.61,8.17h3.85v19h-3.85Z"/><path d="M263.32,255.62h3.85v1.15l2.48-1.44h3.24l3.35.9,2.27,3.06v15.3h-3.85V260.69l-.68-1-1.8-.58h-1.91L268,260.62l-.86,1.22v12.74h-3.85Z"/><path d="M295.68,259.9h-3.24v-3.82h3.24v-4.9l2.09-3.09,3.13-.94h1.48l3.6.76-1,3.82-3-.76h-.76l-1,.36-.65.94v3.82h4.57v3.82h-4.57v14.69h-3.85Z"/><path d="M311.42,274,309,270.84V255.62h3.85v13.89l.83,1.12,1.73.47h1.66l2.23-1.51.9-1.19V255.62h3.85v19h-3.82v-1.15l-2.52,1.44h-2.88Z"/><path d="M329.78,255.62h3.85V257l.43-.43,2.52-1.22h2.48l2.2.61-.94,3.71-1.84-.5h-1.22l-1.66.79-1.26,1.4-.72,1.55v11.7h-3.85Z"/><path d="M347.81,273.87,345.76,271V259.9h-3.24v-3.82h3.24v-6.62h3.85v6.62h4.72v3.82h-4.72v9.86l.65.86,1,.43H352l2.92-.76,1,3.74-3.67.83h-1.73Z"/><path d="M359.91,247.45h3.85v9.29l2.48-1.4h3.28l3.13.94,2.27,3v15.3h-3.85V260.69l-.72-1-1.44-.5h-2.05l-2.23,1.48-.86,1.3v12.67h-3.85Z"/><path d="M382.62,273.08l-2.41-3.24-.76-2.63v-4.14l.76-2.7,2.41-3.24,3.67-1.8h3.24l3.67,1.8,2.38,3.24.86,2.48v4.32H383.31l.36.86,1.51,2.12,1.87.9h1.84l2.16-.58,2.2-1.33,2,3.1-2.77,1.84-3.17.79h-3Zm9.94-9.72-.4-1.15-1.48-2.05-1.84-1h-1.94l-1.76.94-1.55,2.09-.25,1.19Z"/><path d="M400.8,255.62h3.85V257l.43-.43,2.52-1.22h2.48l2.2.61-.94,3.71-1.84-.5h-1.22l-1.66.79-1.26,1.4-.72,1.55v11.7H400.8Z"/><path d="M428.45,273.11,426,269.84l-.79-2.63v-4.14l.79-2.7,2.41-3.24,3.67-1.8h3.17l2.16.79.29.22v-8.89h3.85v27.14h-3.82v-1l-2.2,1.33H432.2Zm6.41-2.05,2-1.37.9-1.3V261l-.58-.72-1.15-.72-1.19-.43h-2.05l-1.8,1-1.51,2.05-.36,1.37v3.24l.36,1.26,1.48,2.09,2,.94Z"/><path d="M449.84,273.08l-2.41-3.24-.76-2.63v-4.14l.76-2.7,2.41-3.24,3.67-1.8h3.24l3.67,1.8,2.38,3.24.86,2.48v4.32H450.52l.36.86,1.51,2.12,1.87.9h1.84l2.16-.58,2.2-1.33,2,3.1-2.77,1.84-3.17.79h-3Zm9.94-9.72-.4-1.15-1.48-2.05-1.84-1h-1.94l-1.76.94-1.55,2.09-.25,1.19Z"/><path d="M471.51,273.87,469.46,271V259.9h-3.24v-3.82h3.24v-6.62h3.85v6.62H478v3.82h-4.72v9.86l.65.86,1,.43h.76l2.92-.76,1,3.74-3.67.83h-1.73Z"/><path d="M494.62,272.72l-.43.47-3.31,1.69h-2.3l-2.45-.76-1.76-1-2.09-3v-2.2l.54-2.48,2.7-2.74,3.53-.9h2.38l2.38.79.14.11v-1.55l-.29-.72-1.22-.83-1.58-.4h-2.3l-1.19.43-1,.65-1,1-2.66-2.77,1.44-1.33,1.62-1,2.41-.72h3.35l2.41.61,2.84,1.91,1,2.52v10.26l1.51,2.2-3.1,2.23Zm-4.54-1.66,2.34-.9,1.22-1.3.29-.79v-1l-.58-.61-.83-.4-1.66-.5h-1.4l-1.94.54-1.15,1.19-.25.94v.72l.9,1.3.65.36,1.4.47Z"/><path d="M503.73,247.45h5v5.22h-5Zm.61,8.17h3.85v19h-3.85Z"/><path d="M514.53,247.45h3.85v27.14h-3.85Z"/></g></g></svg>