<svg xmlns="http://www.w3.org/2000/svg" viewBox="0 0 640 480"><defs><style>.cls-1{fill:#0091b5;}.cls-2{fill:#fff;}</style></defs><title>CaroPlaceholder2</title><g id="Layer_2" data-name="Layer 2"><g id="Layer_10" data-name="Layer 10"><rect class="cls-1" width="640" height="480"/><path class="cls-2" d="M86,217.4h2.59v17.07H86Z"/><path class="cls-2" d="M94.53,234,93.17,232v-7.37H91v-2.54h2.16v-4.42h2.57v4.42h3.14v2.54H95.73v6.58l.43.58.65.29h.5l1.94-.5.65,2.5-2.45.55H96.31Z"/><path class="cls-2" d="M109.53,216.37h3.36v3.48h-3.36Zm.41,5.45h2.57v12.65h-2.57Z"/><path class="cls-2" d="M117.81,234.16l-1.15-.94-.77-.86,1.8-1.73.62.72.53.41,1.39.38h1.39l.79-.24.48-.34.31-.43v-.7l-.31-.5-.53-.36-3.24-.67-1.61-.86-1.06-1.44v-2.26l.82-1.42,1.18-.89,1.44-.41H122l1.9.5,1.7,1.15-1.42,2.11-1.3-.89-1.15-.36h-1.42l-.86.24-.24.22L119,225v.82l.34.43.5.26,3.5.7,1.42.94,1,1.58v2.16l-.94,1.42-1.22.89-1.68.48H119.8Z"/><path class="cls-2" d="M136.46,224.68H134.3v-2.54h2.16v-3.26l1.39-2.06,2.09-.62h1l2.4.5-.67,2.54-2-.5h-.5l-.67.24-.43.62v2.54h3v2.54h-3v9.79h-2.57Z"/><path class="cls-2" d="M146.56,233.48l-1.27-1.85-.46-2.06v-2.83l.46-2.06,1.27-1.85,2.42-1.2h2.54l2.45,1.2,1.27,1.85.43,2.06v2.83l-.43,2.06L154,233.48l-2.45,1.18H149Zm4.49-1.34,1.25-.62.53-.82.31-1.46V227l-.31-1.39-.58-.86-1.18-.6h-1.66l-1.13.6-.6.84L147.4,227v2.21l.29,1.49.55.79,1.22.62Z"/><path class="cls-2" d="M160.34,234.06,158.73,232V221.82h2.57v9.26l.55.74,1.15.31h1.1l1.49-1,.6-.79v-8.52h2.57v12.65h-2.54v-.77l-1.68,1h-1.92Z"/><path class="cls-2" d="M173,221.82h2.57v.77l1.66-1h2.16l2.23.6,1.51,2v10.2H180.6V225.2l-.46-.65-1.2-.38h-1.27l-1.49,1-.58.82v8.5H173Z"/><path class="cls-2" d="M188.3,233.48l-1.61-2.18-.53-1.75v-2.76l.53-1.8,1.61-2.16,2.45-1.2h2.11l1.44.53.19.14v-5.93h2.57v18.1h-2.54v-.7l-1.46.89H190.8Zm4.27-1.37,1.32-.91.6-.86V225.4l-.38-.48-.77-.48-.79-.29h-1.37l-1.2.67-1,1.37-.24.91v2.16l.24.84,1,1.39,1.32.62Z"/><path class="cls-2" d="M208.29,216.37h3.36v3.48h-3.36Zm.41,5.45h2.57v12.65H208.7Z"/><path class="cls-2" d="M215.76,221.82h2.57v.77l1.66-1h2.16l2.23.6,1.51,2v10.2h-2.57V225.2l-.46-.65-1.2-.38h-1.27l-1.49,1-.58.82v8.5h-2.57Z"/><path class="cls-2" d="M244.25,233.22l-.29.31-2.21,1.13h-1.54l-1.63-.5-1.18-.7-1.39-2V230l.36-1.66,1.8-1.82,2.35-.6h1.58l1.58.53.1.07v-1l-.19-.48-.82-.55-1.06-.26h-1.54l-.79.29-.65.43-.67.65-1.78-1.85,1-.89,1.08-.7,1.61-.48h2.23l1.61.41,1.9,1.27.67,1.68v6.84l1,1.46-2.06,1.49Zm-3-1.1,1.56-.6.82-.86.19-.53v-.67l-.38-.41-.55-.26-1.1-.34h-.94l-1.3.36-.77.79-.17.62v.48l.6.86.43.24.94.31Z"/><path class="cls-2" d="M250.2,216.37h2.57v18.1H250.2Z"/><path class="cls-2" d="M256.51,216.37h2.57v18.1h-2.57Z"/><path class="cls-2" d="M271.36,233.48l-1.61-2.18-.53-1.75v-2.76l.53-1.8,1.61-2.16,2.45-1.2h2.11l1.44.53.19.14v-5.93h2.57v18.1h-2.54v-.7l-1.46.89h-2.26Zm4.27-1.37,1.32-.91.6-.86V225.4l-.38-.48-.77-.48-.79-.29h-1.37l-1.2.67-1,1.37-.24.91v2.16l.24.84,1,1.39,1.32.62Z"/><path class="cls-2" d="M285.28,233.48,284,231.64l-.46-2.06v-2.83l.46-2.06,1.27-1.85,2.42-1.2h2.54l2.45,1.2,1.27,1.85.43,2.06v2.83l-.43,2.06-1.27,1.85-2.45,1.18h-2.54Zm4.49-1.34,1.25-.62.53-.82.31-1.46V227l-.31-1.39-.58-.86-1.18-.6h-1.66l-1.13.6-.6.84-.29,1.42v2.21l.29,1.49.55.79,1.22.62Z"/><path class="cls-2" d="M297.81,221.82h2.57v.77l1.66-1h2.18l2.23.6.72,1,.82-.67,1.63-.94h2.18l2.23.6,1.51,2v10.2H313V225.2l-.46-.65-1.2-.38H310l-1.49,1L308,226v8.5H305.4V225.2l-.46-.65-1.2-.38h-1.3l-1.49,1-.58.82v8.5h-2.57Z"/><path class="cls-2" d="M326.83,233.22l-.29.31-2.21,1.13H322.8l-1.63-.5-1.18-.7-1.39-2V230l.36-1.66,1.8-1.82,2.35-.6h1.58l1.58.53.1.07v-1l-.19-.48-.82-.55-1.06-.26h-1.54l-.79.29-.65.43-.67.65-1.78-1.85,1-.89,1.08-.7,1.61-.48h2.23l1.61.41,1.9,1.27.67,1.68v6.84l1,1.46-2.06,1.49Zm-3-1.1,1.56-.6.82-.86.19-.53v-.67L326,229l-.55-.26-1.1-.34h-.94l-1.3.36-.77.79-.17.62v.48l.6.86.43.24.94.31Z"/><path class="cls-2" d="M332.9,216.37h3.36v3.48H332.9Zm.41,5.45h2.57v12.65h-2.57Z"/><path class="cls-2" d="M340.36,221.82h2.57v.77l1.66-1h2.16l2.23.6,1.51,2v10.2h-2.57V225.2l-.46-.65-1.2-.38H345l-1.49,1-.58.82v8.5h-2.57Z"/><path class="cls-2" d="M355.24,234.16l-1.15-.94-.77-.86,1.8-1.73.62.72.53.41,1.39.38h1.39l.79-.24.48-.34.31-.43v-.7l-.31-.5-.53-.36-3.24-.67L355,228l-1.06-1.44v-2.26l.82-1.42,1.18-.89,1.44-.41h2.11l1.9.5,1.7,1.15-1.42,2.11-1.3-.89-1.15-.36h-1.42l-.86.24-.24.22-.22.38v.82l.34.43.5.26,3.5.7,1.42.94,1,1.58v2.16l-.94,1.42-1.22.89-1.68.48h-2.11Z"/><path class="cls-2" d="M374.32,233.48l-1.27-1.85-.46-2.06v-2.83l.46-2.06,1.27-1.85,2.42-1.2h2.54l2.45,1.2,1.27,1.85.43,2.06v2.83l-.43,2.06-1.27,1.85-2.45,1.18h-2.54Zm4.49-1.34,1.25-.62.53-.82.31-1.46V227l-.31-1.39-.58-.86-1.18-.6h-1.66l-1.13.6-.6.84-.29,1.42v2.21l.29,1.49.55.79,1.22.62Z"/><path class="cls-2" d="M387.28,224.68h-2.16v-2.54h2.16v-3.26l1.39-2.06,2.09-.62h1l2.4.5-.67,2.54-2-.5H391l-.67.24-.43.62v2.54h3v2.54h-3v9.79h-2.57Z"/><path class="cls-2" d="M403.34,216.37h2.57v18.1h-2.57Z"/><path class="cls-2" d="M409.77,216.37h3.36v3.48h-3.36Zm.41,5.45h2.57v12.65h-2.57Z"/><path class="cls-2" d="M417.67,224.68h-2.16v-2.54h2.16v-3.26l1.39-2.06,2.09-.62h1l2.4.5-.67,2.54-2-.5h-.5l-.67.24-.43.62v2.54h3v2.54h-3v9.79h-2.57Z"/><path class="cls-2" d="M428.1,233.46l-1.61-2.16-.5-1.75v-2.76l.5-1.8,1.61-2.16,2.45-1.2h2.16l2.45,1.2,1.58,2.16.58,1.66v2.88h-8.76l.24.58,1,1.42,1.25.6h1.22l1.44-.38,1.46-.89,1.34,2.06-1.85,1.22-2.11.53h-2Zm6.63-6.48-.26-.77-1-1.37-1.22-.67H431l-1.18.62-1,1.39-.17.79Z"/><path class="cls-2" d="M440.1,237l1.34-2.52-1.18-.46v-2.88h3.24v3l-2.16,3.55Z"/><path class="cls-2" d="M454.31,216.37h3.36v3.48h-3.36Zm.41,5.45h2.57v12.65h-2.57Z"/><path class="cls-2" d="M461.78,221.82h2.57v.77l1.66-1h2.16l2.23.6,1.51,2v10.2h-2.57V225.2l-.46-.65-1.2-.38h-1.27l-1.49,1-.58.82v8.5h-2.57Z"/><path class="cls-2" d="M477.06,233.46l-1.61-2.16-.53-1.75v-2.76l.53-1.8,1.61-2.16,2.42-1.2h2l2,.65,1.75,1.78-1.85,1.73-1.32-1.32-.82-.29H479.9l-1.15.62-1,1.39-.22.91v2.14l.24.86,1,1.42,1.22.6h1.2l.84-.29,1.42-1.32,1.78,1.78L483.5,234l-2,.65h-2Z"/><path class="cls-2" d="M487.89,216.37h2.57v18.1h-2.57Z"/><path class="cls-2" d="M495.71,234.06,494.1,232V221.82h2.57v9.26l.55.74,1.15.31h1.1l1.49-1,.6-.79v-8.52h2.57v12.65h-2.54v-.77l-1.68,1H498Z"/><path class="cls-2" d="M509.61,233.48,508,231.3l-.53-1.75v-2.76L508,225l1.61-2.16,2.45-1.2h2.11l1.44.53.19.14v-5.93h2.57v18.1h-2.54v-.7l-1.46.89H512.1Zm4.27-1.37,1.32-.91.6-.86V225.4l-.38-.48-.77-.48-.79-.29h-1.37l-1.2.67-1,1.37-.24.91v2.16l.24.84,1,1.39,1.32.62Z"/><path class="cls-2" d="M522.52,216.37h3.36v3.48h-3.36Zm.41,5.45h2.57v12.65h-2.57Z"/><path class="cls-2" d="M530,221.82h2.57v.77l1.66-1h2.16l2.23.6,1.51,2v10.2h-2.57V225.2l-.46-.65-1.2-.38h-1.27l-1.49,1-.58.82v8.5H530Z"/><path class="cls-2" d="M546,238.07l-1.27-.82-.86-.86,1.8-1.85.79.79.43.34,1.1.29h1.46l.94-.34.86-.62.22-.53v-1.42l-1.44.86h-2.21l-2.47-1-1.68-2.18-.53-1.78v-2.21l.53-1.8,1.61-2.16,2.42-1.2h2.14l1.44.53.19.14v-.48H554v13l-.6,1.8-1.92,1.27-1.73.6h-2.14Zm3.55-6.7,1.32-.91.6-.94V225.4l-.41-.48-.74-.48-.79-.29h-1.39l-1.18.67-1,1.37-.24.91v1.58l.22.84,1,1.34,1.3.5Z"/><path class="cls-2" d="M276.28,250.62H279l3.36,8.67,3.38-8.67h2.74l-5,12.65H281.3Z"/><path class="cls-2" d="M290.8,245.17h3.36v3.48H290.8Zm.41,5.45h2.57v12.65h-2.57Z"/><path class="cls-2" d="M297.81,250.62h2.57v.91l.29-.29,1.68-.82H304l1.46.41-.62,2.47-1.22-.34h-.82l-1.1.53-.84.94-.48,1v7.8h-2.57Z"/><path class="cls-2" d="M309.21,262.86l-1.61-2.09V250.62h2.57v9.26l.55.74,1.15.31H313l1.49-1,.6-.79v-8.52h2.57v12.65h-2.54v-.77l-1.68,1h-1.92Z"/><path class="cls-2" d="M322.72,263l-1.15-.94-.77-.86,1.8-1.73.62.72.53.41,1.39.38h1.39l.79-.24.48-.34.31-.43v-.7l-.31-.5-.53-.36L324,257.7l-1.61-.86-1.06-1.44v-2.26l.82-1.42,1.18-.89,1.44-.41h2.11l1.9.5,1.7,1.15-1.42,2.11-1.3-.89-1.15-.36h-1.42l-.86.24-.24.22-.22.38v.82l.34.43.5.26,3.5.7,1.42.94,1,1.58v2.16l-.94,1.42-1.22.89-1.68.48h-2.11Z"/><path class="cls-2" d="M335.06,262.26l-1.61-2.16-.5-1.75v-2.76l.5-1.8,1.61-2.16,2.45-1.2h2.16l2.45,1.2,1.58,2.16.58,1.66v2.88h-8.76l.24.58,1,1.42,1.25.6h1.22l1.44-.38,1.46-.89,1.34,2.06-1.85,1.22-2.11.53h-2Zm6.63-6.48-.26-.77-1-1.37-1.22-.67h-1.3l-1.18.62-1,1.39-.17.79Z"/><path class="cls-2" d="M348.45,263,347.3,262l-.77-.86,1.8-1.73.62.72.53.41,1.39.38h1.39l.79-.24.48-.34.31-.43v-.7l-.31-.5-.53-.36-3.24-.67-1.61-.86-1.06-1.44v-2.26l.82-1.42,1.18-.89,1.44-.41h2.11l1.9.5,1.7,1.15-1.42,2.11-1.3-.89-1.15-.36H351l-.86.24-.24.22-.22.38v.82l.34.43.5.26,3.5.7,1.42.94,1,1.58v2.16l-.94,1.42-1.22.89-1.68.48h-2.11Z"/><path class="cls-2" d="M359.18,259.93h3.24v3.34h-3.24Z"/></g></g></svg>