<svg xmlns="http://www.w3.org/2000/svg" viewBox="0 0 640 480"><defs><style>.cls-1{fill:#f9d47f;}.cls-2{fill:#fff;}</style></defs><title>CaroPlaceholder5</title><g id="Layer_2" data-name="Layer 2"><g id="Layer_10" data-name="Layer 10"><rect class="cls-1" width="640" height="480"/><path class="cls-2" d="M134.42,216.54l-1.44-1-.74-.94,1.87-1.8.65.82.91.6,1.9.55h1.9l1.58-.62.43-.53.29-.58v-1.2l-.46-.91-.94-.5-4.66-1.3-1.92-1.34-.82-1.3-.34-2.06.67-2.11,1.58-1.66,2.26-.74h2.54l2.71.7,1.85,1.15-1.39,2.18-1.61-.94-1.94-.5h-1.78l-1.18.38-.77.79-.26,1,.19.91.19.36,1.08.77,4.85,1.34,1.94,1.34.77,1.9v2.4l-.62,1.32-1.2,1.39-2.66,1h-2.78Z"/><path class="cls-2" d="M147.78,200.1h2.47l5.42,11.79,5.42-11.79h2.47v17.07H161V206.41l-4.08,8.93H154.5l-4.1-9v10.78h-2.62Z"/><path class="cls-2" d="M170.27,216.23l-1.63-1.66-1.06-2.14-.46-2v-3.53l.46-2.09,1-2.09,1.73-1.68,2.5-1.1h2.71l2.52,1.1,1.73,1.68,1,2.09.46,2.09v3.53l-.46,2-1,2.14-1.63,1.66-2.59,1.13h-2.71Zm4.78-1.46,1.56-.72,1-1,.72-1.39.34-1.56v-2.93l-.34-1.56-.7-1.34-1.06-1.06-1.54-.7h-1.7l-1.51.7-1.06,1.06-.7,1.34-.34,1.58v2.93l.31,1.46.74,1.44,1,1,1.58.72Z"/><path class="cls-2" d="M184.84,200.1h7.25l2.23.58,1.82,1.82.72,2.52-.65,2.4-1.22,1.8-1.15.58,3.26,7.37h-2.88l-3-6.82h-3.82v6.82h-2.59Zm7.15,7.68,1.22-.6.58-.84.36-1.25-.34-1.2L193,203l-1.25-.38h-4.27v5.11Z"/><path class="cls-2" d="M200,200.1h11v2.57h-8.35v4.15h5.76v2.59h-5.76v5.18H211v2.57H200Z"/><path class="cls-2" d="M220.91,199.07h3.36v3.48h-3.36Zm.41,5.45h2.57v12.65h-2.57Z"/><path class="cls-2" d="M229.19,216.85l-1.15-.94-.77-.86,1.8-1.73.62.72.53.41,1.39.38H233l.79-.24.48-.34.31-.43v-.7l-.31-.5-.53-.36-3.24-.67-1.61-.86-1.06-1.44V207l.82-1.42,1.18-.89,1.44-.41h2.11l1.9.5L237,206l-1.42,2.11-1.3-.89-1.15-.36h-1.42l-.86.24-.24.22-.22.38v.82l.34.43.5.26,3.5.7,1.42.94,1,1.58v2.16L236.2,216l-1.22.89-1.68.48h-2.11Z"/><path class="cls-2" d="M254.75,215.91l-.29.31-2.21,1.13h-1.54l-1.63-.5-1.18-.7-1.39-2v-1.46l.36-1.66,1.8-1.82,2.35-.6h1.58l1.58.53.1.07v-1l-.19-.48-.82-.55-1.06-.26h-1.54l-.79.29-.65.43-.67.65-1.78-1.85,1-.89,1.08-.7,1.61-.48h2.23l1.61.41,1.9,1.27.67,1.68v6.84l1,1.46-2.06,1.49Zm-3-1.1,1.56-.6.82-.86.19-.53v-.67l-.38-.41-.55-.26-1.1-.34h-.94l-1.3.36-.77.79-.17.62v.48l.6.86.43.24.94.31Z"/><path class="cls-2" d="M268,204.51h2.57v.77l1.66-1h2.18l2.23.6.72,1,.82-.67,1.63-.94H282l2.23.6,1.51,2v10.2h-2.57V207.9l-.46-.65-1.2-.38h-1.3l-1.49,1-.58.82v8.5h-2.57V207.9l-.46-.65-1.2-.38h-1.3l-1.49,1-.58.82v8.5H268Z"/><path class="cls-2" d="M290.58,216.18l-1.27-1.85-.46-2.06v-2.83l.46-2.06,1.27-1.85,2.42-1.2h2.54l2.45,1.2,1.27,1.85.43,2.06v2.83l-.43,2.06L298,216.18l-2.45,1.18H293Zm4.49-1.34,1.25-.62.53-.82.31-1.46v-2.21l-.31-1.39-.58-.86-1.18-.6h-1.66l-1.13.6-.6.84-.29,1.42v2.21l.29,1.49.55.79,1.22.62Z"/><path class="cls-2" d="M304.31,216.18,302.7,214l-.53-1.75v-2.76l.53-1.8,1.61-2.16,2.45-1.2h2.11l1.44.53.19.14v-5.93h2.57v18.1h-2.54v-.7l-1.46.89H306.8Zm4.27-1.37,1.32-.91.6-.86v-4.95l-.38-.48-.77-.48-.79-.29h-1.37l-1.2.67-1,1.37-.24.91V212l.24.84,1,1.39,1.32.62Z"/><path class="cls-2" d="M318.61,216.75,317,214.67V204.51h2.57v9.26l.55.74,1.15.31h1.1l1.49-1,.6-.79v-8.52H327v12.65h-2.54v-.77l-1.68,1h-1.92Z"/><path class="cls-2" d="M331,199.07h2.57v18.1H331Z"/><path class="cls-2" d="M345,215.91l-.29.31-2.21,1.13h-1.54l-1.63-.5-1.18-.7-1.39-2v-1.46l.36-1.66,1.8-1.82,2.35-.6h1.58l1.58.53.1.07v-1l-.19-.48-.82-.55-1.06-.26h-1.54l-.79.29-.65.43-.67.65L337,206.39l1-.89,1.08-.7,1.61-.48h2.23l1.61.41,1.9,1.27.67,1.68v6.84l1,1.46L346,217.48Zm-3-1.1,1.56-.6.82-.86.19-.53v-.67l-.38-.41-.55-.26-1.1-.34h-.94l-1.3.36-.77.79-.17.62v.48l.6.86.43.24.94.31Z"/><path class="cls-2" d="M350.72,204.51h2.57v.91l.29-.29,1.68-.82h1.66l1.46.41-.62,2.47-1.22-.34h-.82l-1.1.53-.84.94-.48,1v7.8h-2.57Z"/><path class="cls-2" d="M368.77,216.85l-1.15-.94-.77-.86,1.8-1.73.62.72.53.41,1.39.38h1.39l.79-.24.48-.34.31-.43v-.7l-.31-.5-.53-.36-3.24-.67-1.61-.86-1.06-1.44V207l.82-1.42,1.18-.89,1.44-.41H373l1.9.5,1.7,1.15-1.42,2.11-1.3-.89-1.15-.36h-1.42l-.86.24-.24.22-.22.38v.82l.34.43.5.26,3.5.7,1.42.94,1,1.58v2.16l-.94,1.42-1.22.89-1.68.48h-2.11Z"/><path class="cls-2" d="M379.76,199.07h3.36v3.48h-3.36Zm.41,5.45h2.57v12.65h-2.57Z"/><path class="cls-2" d="M389.1,216.68l-1.37-1.94v-7.37h-2.16v-2.54h2.16v-4.42h2.57v4.42h3.14v2.54H390.3v6.58l.43.58.65.29h.5l1.94-.5.65,2.5-2.45.55h-1.15Z"/><path class="cls-2" d="M398.36,216.16,396.75,214l-.5-1.75v-2.76l.5-1.8,1.61-2.16,2.45-1.2H403l2.45,1.2,1.58,2.16.58,1.66v2.88h-8.76l.24.58,1,1.42,1.25.6h1.22l1.44-.38,1.46-.89,1.34,2.06-1.85,1.22-2.11.53h-2Zm6.63-6.48-.26-.77-1-1.37-1.22-.67h-1.3l-1.18.62-1,1.39-.17.79Z"/><path class="cls-2" d="M410.48,208.62h8.16v2.28h-8.16Z"/><path class="cls-2" d="M423.27,216.85l-1.15-.94-.77-.86,1.8-1.73.62.72.53.41,1.39.38h1.39l.79-.24.48-.34.31-.43v-.7l-.31-.5-.53-.36-3.24-.67-1.61-.86-1.06-1.44V207l.82-1.42,1.18-.89,1.44-.41h2.11l1.9.5,1.7,1.15-1.42,2.11-1.3-.89-1.15-.36h-1.42l-.86.24-.24.22-.22.38v.82l.34.43.5.26,3.5.7,1.42.94,1,1.58v2.16l-.94,1.42-1.22.89-1.68.48h-2.11Z"/><path class="cls-2" d="M434.43,204.51H437v.7l1.46-.89h2.26l2.5,1.18,1.61,2.18.53,1.75v2.76l-.53,1.8-1.61,2.16-2.45,1.2h-2.14l-1.42-.53-.19-.14v4.39h-2.57Zm5.88,10.32,1.2-.67,1-1.37.24-.91v-2.14l-.24-.86-1-1.39-1.32-.62h-1.3l-1.32.91-.6.86v4.94l.38.48.77.48.79.29Z"/><path class="cls-2" d="M449.86,216.16,448.26,214l-.5-1.75v-2.76l.5-1.8,1.61-2.16,2.45-1.2h2.16l2.45,1.2,1.58,2.16.58,1.66v2.88h-8.76l.24.58,1,1.42,1.25.6H454l1.44-.38,1.46-.89,1.34,2.06-1.85,1.22-2.11.53h-2Zm6.63-6.48-.26-.77-1-1.37-1.22-.67h-1.3l-1.18.62-1,1.39-.17.79Z"/><path class="cls-2" d="M463.66,216.16,462.05,214l-.53-1.75v-2.76l.53-1.8,1.61-2.16,2.42-1.2h2l2,.65,1.75,1.78L470,208.47l-1.32-1.32-.82-.29H466.5l-1.15.62-1,1.39-.22.91v2.14l.24.86,1,1.42,1.22.6h1.2l.84-.29L470,213.2l1.78,1.78-1.73,1.73-2,.65h-2Z"/><path class="cls-2" d="M474.61,199.07H478v3.48h-3.36Zm.41,5.45h2.57v12.65H475Z"/><path class="cls-2" d="M482.5,207.37h-2.16v-2.54h2.16v-3.26l1.39-2.06,2.09-.62h1l2.4.5-.67,2.54-2-.5h-.5l-.67.24-.43.62v2.54h3v2.54h-3v9.79H482.5Z"/><path class="cls-2" d="M491.6,199.07H495v3.48H491.6Zm.41,5.45h2.57v12.65H492Z"/><path class="cls-2" d="M500.29,216.16,498.68,214l-.53-1.75v-2.76l.53-1.8,1.61-2.16,2.42-1.2h2l2,.65,1.75,1.78-1.85,1.73-1.32-1.32-.82-.29h-1.37l-1.15.62-1,1.39-.22.91v2.14l.24.86,1,1.42,1.22.6h1.2l.84-.29,1.42-1.32,1.78,1.78-1.73,1.73-2,.65h-2Z"/><path class="cls-2" d="M102.11,233.31h2.57v.91l.29-.29,1.68-.82h1.66l1.46.41-.62,2.47-1.22-.34h-.82l-1.1.53-.84.94-.48,1V246h-2.57Z"/><path class="cls-2" d="M113.46,245l-1.61-2.16-.5-1.75v-2.76l.5-1.8,1.61-2.16,2.45-1.2h2.16l2.45,1.2,1.58,2.16.58,1.66V241h-8.76l.24.58,1,1.42,1.25.6h1.22l1.44-.38,1.46-.89,1.34,2.06L120,245.63l-2.11.53h-2Zm6.63-6.48-.26-.77-1-1.37-1.22-.67h-1.3l-1.18.62-1,1.39-.17.79Z"/><path class="cls-2" d="M127.26,245l-1.61-2.16-.53-1.75v-2.76l.53-1.8,1.61-2.16,2.42-1.2h2l2,.65,1.75,1.78-1.85,1.73L132.28,236l-.82-.29h-1.37l-1.15.62-1,1.39-.22.91v2.14l.24.86,1,1.42,1.22.6h1.2l.84-.29,1.42-1.32,1.78,1.78-1.73,1.73-2,.65h-2Z"/><path class="cls-2" d="M139.21,245l-1.27-1.85-.46-2.06v-2.83l.46-2.06,1.27-1.85,2.42-1.2h2.54l2.45,1.2,1.27,1.85.43,2.06v2.83l-.43,2.06L146.63,245l-2.45,1.18h-2.54Zm4.49-1.34L145,243l.53-.82.31-1.46v-2.21l-.31-1.39-.58-.86-1.18-.6h-1.66l-1.13.6-.6.84-.29,1.42v2.21l.29,1.49.55.79,1.22.62Z"/><path class="cls-2" d="M151.74,233.31h2.57v.77l1.66-1h2.18l2.23.6.72,1,.82-.67,1.63-.94h2.18l2.23.6,1.51,2V246h-2.57V236.7l-.46-.65-1.2-.38H164l-1.49,1-.58.82V246h-2.57V236.7l-.46-.65-1.2-.38h-1.3l-1.49,1-.58.82V246h-2.57Z"/><path class="cls-2" d="M173.27,227.87h3.36v3.48h-3.36Zm.41,5.45h2.57V246h-2.57Z"/><path class="cls-2" d="M180.73,233.31h2.57v.77l1.66-1h2.16l2.23.6,1.51,2V246h-2.57V236.7l-.46-.65-1.2-.38h-1.27l-1.49,1-.58.82V246h-2.57Z"/><path class="cls-2" d="M202.14,244.71l-.29.31-2.21,1.13h-1.54l-1.63-.5-1.18-.7-1.39-2v-1.46l.36-1.66,1.8-1.82,2.35-.6H200l1.58.53.1.07v-1l-.19-.48-.82-.55-1.06-.26h-1.54l-.79.29-.65.43L196,237l-1.78-1.85,1-.89,1.08-.7,1.61-.48h2.23l1.61.41,1.9,1.27.67,1.68v6.84l1,1.46-2.06,1.49Zm-3-1.1,1.56-.6.82-.86.19-.53v-.67l-.38-.41-.55-.26-1.1-.34h-.94l-1.3.36-.77.79-.17.62v.48l.6.86.43.24.94.31Z"/><path class="cls-2" d="M210.23,245.48l-1.37-1.94v-7.37H206.7v-2.54h2.16v-4.42h2.57v4.42h3.14v2.54h-3.14v6.58l.43.58.65.29h.5l1.94-.5.65,2.5-2.45.55H212Z"/><path class="cls-2" d="M218.15,227.87h3.36v3.48h-3.36Zm.41,5.45h2.57V246h-2.57Z"/><path class="cls-2" d="M226.48,245l-1.27-1.85-.46-2.06v-2.83l.46-2.06,1.27-1.85,2.42-1.2h2.54l2.45,1.2,1.27,1.85.43,2.06v2.83l-.43,2.06L233.89,245l-2.45,1.18H228.9Zm4.49-1.34,1.25-.62.53-.82.31-1.46v-2.21l-.31-1.39-.58-.86-1.18-.6h-1.66l-1.13.6-.6.84-.29,1.42v2.21l.29,1.49.55.79,1.22.62Z"/><path class="cls-2" d="M239,233.31h2.57v.77l1.66-1h2.16l2.23.6,1.51,2V246h-2.57V236.7l-.46-.65-1.2-.38h-1.27l-1.49,1-.58.82V246H239Z"/><path class="cls-2" d="M262,245.48l-1.37-1.94v-7.37h-2.16v-2.54h2.16v-4.42h2.57v4.42h3.14v2.54h-3.14v6.58l.43.58.65.29h.5l1.94-.5.65,2.5-2.45.55H263.8Z"/><path class="cls-2" d="M270.95,245l-1.27-1.85-.46-2.06v-2.83l.46-2.06,1.27-1.85,2.42-1.2h2.54l2.45,1.2,1.27,1.85.43,2.06v2.83l-.43,2.06L278.36,245l-2.45,1.18h-2.54Zm4.49-1.34,1.25-.62.53-.82.31-1.46v-2.21l-.31-1.39-.58-.86-1.18-.6H273.8l-1.13.6-.6.84-.29,1.42v2.21l.29,1.49.55.79,1.22.62Z"/><path class="cls-2" d="M284.34,245l-1.27-1.85-.46-2.06v-2.83l.46-2.06,1.27-1.85,2.42-1.2h2.54l2.45,1.2,1.27,1.85.43,2.06v2.83l-.43,2.06L291.76,245l-2.45,1.18h-2.54Zm4.49-1.34,1.25-.62.53-.82.31-1.46v-2.21l-.31-1.39-.58-.86-1.18-.6H287.2l-1.13.6-.6.84-.29,1.42v2.21l.29,1.49.55.79,1.22.62Z"/><path class="cls-2" d="M296.6,227.87h2.57V246H296.6Z"/><path class="cls-2" d="M303,227.89h2.57v10l4.56-4.56h3.65l-5.3,5.18,5.35,7.46h-3.14l-4-5.69-1.13,1.08V246H303Z"/><path class="cls-2" d="M316.28,227.87h3.36v3.48h-3.36Zm.41,5.45h2.57V246h-2.57Z"/><path class="cls-2" d="M325.62,245.48l-1.37-1.94v-7.37h-2.16v-2.54h2.16v-4.42h2.57v4.42H330v2.54h-3.14v6.58l.43.58.65.29h.5l1.94-.5.65,2.5-2.45.55h-1.15Z"/><path class="cls-2" d="M341.19,236.17H339v-2.54h2.16v-3.26l1.39-2.06,2.09-.62h1l2.4.5-.67,2.54-2-.5h-.5l-.67.24-.43.62v2.54h3v2.54h-3V246h-2.57Z"/><path class="cls-2" d="M351.3,245,350,243.13l-.46-2.06v-2.83l.46-2.06,1.27-1.85,2.42-1.2h2.54l2.45,1.2,1.27,1.85.43,2.06v2.83l-.43,2.06L358.71,245l-2.45,1.18h-2.54Zm4.49-1.34L357,243l.53-.82.31-1.46v-2.21l-.31-1.39-.58-.86-1.18-.6h-1.66l-1.13.6-.6.84-.29,1.42v2.21l.29,1.49.55.79,1.22.62Z"/><path class="cls-2" d="M363.37,233.31h2.57v.91l.29-.29,1.68-.82h1.66l1.46.41L370.4,236l-1.22-.34h-.82l-1.1.53-.84.94-.48,1V246h-2.57Z"/><path class="cls-2" d="M380.6,233.31h2.57v.77l1.66-1H387l2.23.6.72,1,.82-.67,1.63-.94h2.18l2.23.6,1.51,2V246h-2.57V236.7l-.46-.65-1.2-.38h-1.3l-1.49,1-.58.82V246h-2.57V236.7l-.46-.65-1.2-.38h-1.3l-1.49,1-.58.82V246H380.6Z"/><path class="cls-2" d="M403.47,245l-1.61-2.16-.5-1.75v-2.76l.5-1.8,1.61-2.16,2.45-1.2h2.16l2.45,1.2,1.58,2.16.58,1.66V241h-8.76l.24.58,1,1.42,1.25.6h1.22l1.44-.38,1.46-.89,1.34,2.06L410,245.63l-2.11.53h-2Zm6.63-6.48-.26-.77-1-1.37-1.22-.67h-1.3l-1.18.62-1,1.39-.17.79Z"/><path class="cls-2" d="M417.92,245.48l-1.37-1.94v-7.37h-2.16v-2.54h2.16v-4.42h2.57v4.42h3.14v2.54h-3.14v6.58l.43.58.65.29h.5l1.94-.5.65,2.5-2.45.55H419.7Z"/><path class="cls-2" d="M433.33,244.71,433,245l-2.21,1.13H429.3l-1.63-.5-1.18-.7-1.39-2v-1.46l.36-1.66,1.8-1.82,2.35-.6h1.58l1.58.53.1.07v-1l-.19-.48-.82-.55-1.06-.26h-1.54l-.79.29-.65.43-.67.65-1.78-1.85,1-.89,1.08-.7,1.61-.48h2.23l1.61.41,1.9,1.27.67,1.68v6.84l1,1.46-2.06,1.49Zm-3-1.1,1.56-.6.82-.86.19-.53v-.67l-.38-.41-.55-.26-1.1-.34h-.94l-1.3.36-.77.79-.17.62v.48l.6.86.43.24.94.31Z"/><path class="cls-2" d="M442.3,245.63l-.19-.14V246h-2.57v-18.1h2.57V234l1.44-.89h2.26l2.5,1.18,1.61,2.18.53,1.75V241l-.53,1.8L448.3,245l-2.45,1.2h-2.14Zm3.12-2,1.2-.67,1-1.37.24-.91v-2.14l-.24-.86-1-1.39-1.32-.62H444l-1.32.91-.6.86v4.94l.38.48.77.48.79.29Z"/><path class="cls-2" d="M454.66,245l-1.27-1.85-.46-2.06v-2.83l.46-2.06,1.27-1.85,2.42-1.2h2.54l2.45,1.2,1.27,1.85.43,2.06v2.83l-.43,2.06L462.08,245l-2.45,1.18h-2.54Zm4.49-1.34,1.25-.62.53-.82.31-1.46v-2.21l-.31-1.39-.58-.86-1.18-.6h-1.66l-1.13.6-.6.84-.29,1.42v2.21l.29,1.49.55.79,1.22.62Z"/><path class="cls-2" d="M466.93,227.87h2.57V246h-2.57Z"/><path class="cls-2" d="M473.36,227.87h3.36v3.48h-3.36Zm.41,5.45h2.57V246h-2.57Z"/><path class="cls-2" d="M482,245l-1.61-2.16-.53-1.75v-2.76l.53-1.8,1.61-2.16,2.42-1.2h2l2,.65,1.75,1.78-1.85,1.73L487.06,236l-.82-.29h-1.37l-1.15.62-1,1.39-.22.91v2.14l.24.86,1,1.42,1.22.6h1.2l.84-.29,1.42-1.32,1.78,1.78-1.73,1.73-2,.65h-2Z"/><path class="cls-2" d="M507.56,244.71l-.29.31-2.21,1.13h-1.54l-1.63-.5-1.18-.7-1.39-2v-1.46l.36-1.66,1.8-1.82,2.35-.6h1.58l1.58.53.1.07v-1l-.19-.48-.82-.55-1.06-.26H503.5l-.79.29-.65.43-.67.65-1.78-1.85,1-.89,1.08-.7,1.61-.48h2.23l1.61.41,1.9,1.27.67,1.68v6.84l1,1.46-2.06,1.49Zm-3-1.1,1.56-.6.82-.86.19-.53v-.67l-.38-.41-.55-.26-1.1-.34h-.94l-1.3.36-.77.79-.17.62v.48l.6.86.43.24.94.31Z"/><path class="cls-2" d="M513.77,233.31h2.57v.77l1.66-1h2.16l2.23.6,1.51,2V246h-2.57V236.7l-.46-.65-1.2-.38h-1.27l-1.49,1-.58.82V246h-2.57Z"/><path class="cls-2" d="M529,245l-1.61-2.18L526.9,241v-2.76l.53-1.8,1.61-2.16,2.45-1.2h2.11l1.44.53.19.14v-5.93h2.57V246h-2.54v-.7l-1.46.89h-2.26Zm4.27-1.37,1.32-.91.6-.86v-4.95l-.38-.48-.77-.48-.79-.29h-1.37l-1.2.67-1,1.37-.24.91v2.16l.24.84,1,1.39,1.32.62Z"/><path class="cls-2" d="M203.76,278.36l-1.27-.82-.86-.86,1.8-1.85.79.79.43.34,1.1.29h1.46l.94-.34.86-.62.22-.53v-1.42l-1.44.86h-2.21l-2.47-1-1.68-2.18-.53-1.78v-2.21l.53-1.8,1.61-2.16,2.42-1.2h2.14l1.44.53.19.14v-.48h2.54v13l-.6,1.8-1.92,1.27-1.73.6h-2.14Zm3.55-6.7,1.32-.91.6-.94v-4.13l-.41-.48-.74-.48-.79-.29H205.9l-1.18.67-1,1.37-.24.91V269l.22.84,1,1.34,1.3.5Z"/><path class="cls-2" d="M217.25,273.76l-1.61-2.16-.5-1.75v-2.76l.5-1.8,1.61-2.16,2.45-1.2h2.16l2.45,1.2,1.58,2.16.58,1.66v2.88h-8.76l.24.58,1,1.42,1.25.6h1.22l1.44-.38,1.46-.89,1.34,2.06-1.85,1.22-2.11.53h-2Zm6.63-6.48-.26-.77-1-1.37-1.22-.67h-1.3l-1.18.62-1,1.39-.17.79Z"/><path class="cls-2" d="M229.82,262.11h2.57v.77l1.66-1h2.16l2.23.6,1.51,2v10.2h-2.57V265.5l-.46-.65-1.2-.38h-1.27l-1.49,1-.58.82v8.5h-2.57Z"/><path class="cls-2" d="M244.75,273.78l-1.27-1.85-.46-2.06V267l.46-2.06,1.27-1.85,2.42-1.2h2.54l2.45,1.2,1.27,1.85.43,2.06v2.83l-.43,2.06-1.27,1.85L249.72,275h-2.54Zm4.49-1.34,1.25-.62L251,271l.31-1.46v-2.21l-.31-1.39-.58-.86-1.18-.6h-1.66l-1.13.6-.6.84-.29,1.42v2.21l.29,1.49.55.79,1.22.62Z"/><path class="cls-2" d="M257.28,262.11h2.57v.77l1.66-1h2.18l2.23.6.72,1,.82-.67,1.63-.94h2.18l2.23.6,1.51,2v10.2h-2.57V265.5l-.46-.65-1.2-.38h-1.3l-1.49,1-.58.82v8.5h-2.57V265.5l-.46-.65-1.2-.38h-1.3l-1.49,1-.58.82v8.5h-2.57Z"/><path class="cls-2" d="M280.15,273.76l-1.61-2.16-.5-1.75v-2.76l.5-1.8,1.61-2.16,2.45-1.2h2.16l2.45,1.2,1.58,2.16.58,1.66v2.88h-8.76l.24.58,1,1.42,1.25.6h1.22l1.44-.38,1.46-.89,1.34,2.06-1.85,1.22-2.11.53h-2Zm6.63-6.48-.26-.77-1-1.37-1.22-.67H283l-1.18.62-1,1.39-.17.79Z"/><path class="cls-2" d="M301,273.76l-1.61-2.16-.5-1.75v-2.76l.5-1.8,1.61-2.16,2.45-1.2h2.16l2.45,1.2,1.58,2.16.58,1.66v2.88h-8.76l.24.58,1,1.42,1.25.6h1.22l1.44-.38,1.46-.89,1.34,2.06-1.85,1.22-2.11.53h-2Zm6.63-6.48-.26-.77-1-1.37-1.22-.67h-1.3l-1.18.62-1,1.39-.17.79Z"/><path class="cls-2" d="M313.58,262.11h2.57v.77l1.66-1H320l2.23.6,1.51,2v10.2h-2.57V265.5l-.46-.65-1.2-.38h-1.27l-1.49,1-.58.82v8.5h-2.57Z"/><path class="cls-2" d="M329.61,278.36l-1.27-.82-.86-.86,1.8-1.85.79.79.43.34,1.1.29h1.46l.94-.34.86-.62.22-.53v-1.42l-1.44.86h-2.21l-2.47-1-1.68-2.18-.53-1.78v-2.21l.53-1.8,1.61-2.16,2.42-1.2h2.14l1.44.53.19.14v-.48h2.54v13l-.6,1.8-1.92,1.27-1.73.6h-2.14Zm3.55-6.7,1.32-.91.6-.94v-4.13l-.41-.48-.74-.48-.79-.29h-1.39l-1.18.67-1,1.37-.24.91V269l.22.84,1,1.34,1.3.5Z"/><path class="cls-2" d="M341.76,256.67h3.36v3.48h-3.36Zm.41,5.45h2.57v12.65h-2.57Z"/><path class="cls-2" d="M349.22,262.11h2.57v.77l1.66-1h2.16l2.23.6,1.51,2v10.2h-2.57V265.5l-.46-.65-1.2-.38h-1.27l-1.49,1-.58.82v8.5h-2.57Z"/><path class="cls-2" d="M364.49,273.76l-1.61-2.16-.5-1.75v-2.76l.5-1.8,1.61-2.16,2.45-1.2h2.16l2.45,1.2,1.58,2.16.58,1.66v2.88h-8.76l.24.58,1,1.42,1.25.6h1.22l1.44-.38,1.46-.89,1.34,2.06-1.85,1.22L369,275h-2Zm6.63-6.48-.26-.77-1-1.37-1.22-.67h-1.3l-1.18.62-1,1.39-.17.79Z"/><path class="cls-2" d="M378.26,273.76l-1.61-2.16-.5-1.75v-2.76l.5-1.8,1.61-2.16,2.45-1.2h2.16l2.45,1.2,1.58,2.16.58,1.66v2.88h-8.76l.24.58,1,1.42,1.25.6h1.22l1.44-.38,1.46-.89,1.34,2.06-1.85,1.22-2.11.53h-2Zm6.63-6.48-.26-.77-1-1.37-1.22-.67h-1.3l-1.18.62-1,1.39-.17.79Z"/><path class="cls-2" d="M390.38,262.11h2.57V263l.29-.29,1.68-.82h1.66l1.46.41-.62,2.47-1.22-.34h-.82l-1.1.53-.84.94-.48,1v7.8h-2.57Z"/><path class="cls-2" d="M400.39,256.67h3.36v3.48h-3.36Zm.41,5.45h2.57v12.65H400.8Z"/><path class="cls-2" d="M407.85,262.11h2.57v.77l1.66-1h2.16l2.23.6,1.51,2v10.2h-2.57V265.5l-.46-.65-1.2-.38h-1.27l-1.49,1-.58.82v8.5h-2.57Z"/><path class="cls-2" d="M423.89,278.36l-1.27-.82-.86-.86,1.8-1.85.79.79.43.34,1.1.29h1.46l.94-.34.86-.62.22-.53v-1.42l-1.44.86h-2.21l-2.47-1-1.68-2.18-.53-1.78v-2.21l.53-1.8,1.61-2.16,2.42-1.2h2.14l1.44.53.19.14v-.48h2.54v13l-.6,1.8-1.92,1.27-1.73.6h-2.14Zm3.55-6.7,1.32-.91.6-.94v-4.13l-.41-.48-.74-.48-.79-.29H426l-1.18.67-1,1.37-.24.91V269l.22.84,1,1.34,1.3.5Z"/><path class="cls-2" d="M435.77,271.43H439v3.34h-3.24Z"/></g></g></svg>