<svg xmlns="http://www.w3.org/2000/svg" viewBox="0 0 640 480"><defs><style>.cls-1{fill:#c2d3df;}.cls-2{fill:#fff;}</style></defs><title>CaroPlaceholder1</title><g id="Layer_2" data-name="Layer 2"><g id="Layer_10" data-name="Layer 10"><rect class="cls-1" width="640" height="480"/><path class="cls-2" d="M70,233.33l-1.66-1.66-1-2.14-.46-2V224l.46-2.09,1-2.09,1.73-1.68L72.6,217h2.66l2.54.94,1.13.86,1.15,1.39-1.95,1.68-.91-1.15-.77-.58-1.63-.55H73.1l-1.51.7-1.05,1.06-.7,1.34-.34,1.56v2.93l.34,1.56.72,1.39,1,1,1.54.72h1.78l1.22-.55,1-.84.67-1.1.17-.72v-.79h-4v-2.57h6.6v3.5l-.26,1.44L79.2,232,77.5,233.5l-2.13,1H72.6Z"/><path class="cls-2" d="M85.1,233.26,83.5,231.1l-.5-1.75v-2.76l.5-1.8,1.61-2.16,2.45-1.2h2.16l2.45,1.2,1.58,2.16.58,1.66v2.88H85.56l.24.58,1,1.42,1.25.6h1.22l1.44-.38,1.46-.89,1.34,2.06-1.85,1.22-2.11.53h-2Zm6.63-6.48-.26-.77-1-1.37L89.26,224H88l-1.18.62-1,1.39-.17.79Z"/><path class="cls-2" d="M97.68,221.62h2.57v.77l1.66-1h2.16l2.23.6,1.51,2v10.2h-2.57V225l-.46-.65-1.2-.38h-1.27l-1.49,1-.58.82v8.5H97.68Z"/><path class="cls-2" d="M112.94,233.26l-1.61-2.16-.51-1.75v-2.76l.51-1.8,1.61-2.16,2.45-1.2h2.16l2.45,1.2,1.58,2.16.58,1.66v2.88H113.4l.24.58,1,1.42,1.25.6h1.22l1.44-.38,1.46-.89,1.34,2.06-1.85,1.22-2.11.53h-2Zm6.63-6.48-.26-.77-1-1.37-1.22-.67h-1.3l-1.18.62-1,1.39-.17.79Z"/><path class="cls-2" d="M127.39,233.79,126,231.84v-7.37h-2.16v-2.54H126v-4.42h2.57v4.42h3.14v2.54h-3.14V231l.43.58.65.29h.51l1.94-.5.65,2.5-2.45.55h-1.15Z"/><path class="cls-2" d="M135.31,216.17h3.36v3.48h-3.36Zm.41,5.45h2.57v12.65h-2.57Z"/><path class="cls-2" d="M144,233.26l-1.61-2.16-.53-1.75v-2.76l.53-1.8,1.61-2.16,2.42-1.2h2l2,.65,1.75,1.78-1.85,1.73L149,224.26l-.82-.29h-1.37l-1.15.62-1,1.39-.22.91V229l.24.86,1,1.42,1.22.6h1.2l.84-.29,1.42-1.32,1.78,1.78-1.73,1.73-2,.65h-2Z"/><path class="cls-2" d="M161.71,221.62h2.57v.91l.29-.29,1.68-.82h1.66l1.46.41-.62,2.47-1.22-.34h-.81l-1.11.53-.84.94-.48,1v7.8h-2.57Z"/><path class="cls-2" d="M173.06,233.26l-1.61-2.16-.51-1.75v-2.76l.51-1.8,1.61-2.16,2.45-1.2h2.16l2.45,1.2,1.58,2.16.58,1.66v2.88h-8.76l.24.58,1,1.42,1.25.6h1.22l1.44-.38,1.46-.89,1.34,2.06-1.85,1.22-2.11.53h-2Zm6.63-6.48-.26-.77-1-1.37-1.22-.67h-1.3l-1.18.62-1,1.39-.17.79Z"/><path class="cls-2" d="M186.86,233.26l-1.61-2.16-.53-1.75v-2.76l.53-1.8,1.61-2.16,2.42-1.2h2l2,.65,1.75,1.78-1.85,1.73-1.32-1.32-.82-.29h-1.37l-1.15.62-1,1.39-.22.91V229l.24.86,1,1.42,1.22.6H191l.84-.29,1.42-1.32,1.78,1.78-1.73,1.73-2,.65h-2Z"/><path class="cls-2" d="M198.81,233.28l-1.27-1.85-.46-2.06v-2.83l.46-2.06,1.27-1.85,2.43-1.2h2.54l2.45,1.2,1.27,1.85.43,2.06v2.83l-.43,2.06-1.27,1.85-2.45,1.18h-2.54Zm4.49-1.34,1.25-.62.53-.82.31-1.46v-2.21l-.31-1.39-.58-.86-1.18-.6h-1.66l-1.13.6-.6.84-.29,1.42V229l.29,1.49.55.79,1.22.62Z"/><path class="cls-2" d="M211.34,221.62h2.57v.77l1.66-1h2.19l2.23.6.72,1,.82-.67,1.63-.94h2.18l2.23.6,1.51,2v10.2h-2.57V225l-.46-.65-1.2-.38h-1.29l-1.49,1-.58.82v8.5h-2.57V225l-.46-.65-1.2-.38H216l-1.49,1-.58.82v8.5h-2.57Z"/><path class="cls-2" d="M235.77,233.93l-.19-.14v.48H233v-18.1h2.57v6.14l1.44-.89h2.26l2.5,1.18,1.61,2.18.53,1.75v2.76l-.53,1.8-1.61,2.16-2.45,1.2h-2.14Zm3.12-2,1.2-.67,1-1.37.24-.91v-2.14l-.24-.86-1-1.39L238.8,224H237.5l-1.32.91-.6.86v4.94l.38.48.77.48.79.29Z"/><path class="cls-2" d="M247.12,216.17h3.36v3.48h-3.36Zm.41,5.45h2.57v12.65h-2.57Z"/><path class="cls-2" d="M254.59,221.62h2.57v.77l1.66-1H261l2.23.6,1.51,2v10.2h-2.57V225l-.46-.65-1.2-.38h-1.27l-1.49,1-.58.82v8.5h-2.57Z"/><path class="cls-2" d="M276,233l-.29.31-2.21,1.13H272l-1.63-.5-1.18-.7-1.39-2v-1.46l.36-1.66,1.8-1.82,2.35-.6h1.58l1.58.53.1.07v-1l-.19-.48-.82-.55-1.05-.26h-1.54l-.79.29-.65.43-.67.65-1.78-1.85,1-.89,1.08-.7,1.61-.48h2.23l1.61.41,1.9,1.27.67,1.68v6.84l1,1.46-2.06,1.49Zm-3-1.1,1.56-.6.82-.86.19-.53v-.67l-.38-.41-.55-.26-1.1-.34h-.94l-1.3.36-.77.79-.17.62v.48l.6.86.43.24.94.31Z"/><path class="cls-2" d="M284.09,233.79l-1.37-1.94v-7.37h-2.16v-2.54h2.16v-4.42h2.57v4.42h3.14v2.54h-3.14V231l.43.58.65.29h.5l1.94-.5.65,2.5-2.45.55h-1.15Z"/><path class="cls-2" d="M292,216.17h3.36v3.48H292Zm.41,5.45H295v12.65h-2.57Z"/><path class="cls-2" d="M300.33,233.28l-1.27-1.85-.46-2.06v-2.83l.46-2.06,1.27-1.85,2.42-1.2h2.54l2.45,1.2,1.27,1.85.43,2.06v2.83l-.43,2.06-1.27,1.85-2.45,1.18h-2.54Zm4.49-1.34,1.25-.62.53-.82.31-1.46v-2.21l-.31-1.39-.58-.86-1.18-.6h-1.66l-1.13.6-.6.84-.29,1.42V229l.29,1.49.55.79,1.22.62Z"/><path class="cls-2" d="M312.86,221.62h2.57v.77l1.66-1h2.16l2.23.6,1.51,2v10.2h-2.57V225l-.46-.65-1.2-.38h-1.27L316,225l-.58.82v8.5h-2.57Z"/><path class="cls-2" d="M333.86,216.17h3.36v3.48h-3.36Zm.41,5.45h2.57v12.65h-2.57Z"/><path class="cls-2" d="M342.14,234,341,233l-.77-.86,1.8-1.73.62.72.53.41,1.39.38H346l.79-.24.48-.34.31-.43v-.7l-.31-.5-.53-.36-3.24-.67-1.61-.86-1.06-1.44v-2.26l.82-1.42,1.18-.89,1.44-.41h2.11l1.9.5,1.7,1.15-1.42,2.11-1.29-.89-1.15-.36h-1.42l-.87.24-.24.22-.21.38v.82l.34.43.5.26,3.5.7,1.42.94,1,1.58v2.16l-.94,1.42-1.22.89-1.68.48h-2.11Z"/><path class="cls-2" d="M362.23,233.79l-1.37-1.94v-7.37H358.7v-2.54h2.16v-4.42h2.57v4.42h3.14v2.54h-3.14V231l.43.58.65.29H365l1.94-.5.65,2.5-2.45.55H364Z"/><path class="cls-2" d="M370.29,216.17h2.57v6.19l1.66-.94h2.19l2.09.62,1.51,2v10.2h-2.57V225l-.48-.7-1-.34h-1.37l-1.49,1-.58.86v8.45h-2.57Z"/><path class="cls-2" d="M385.43,233.26l-1.61-2.16-.51-1.75v-2.76l.51-1.8,1.61-2.16,2.45-1.2H390l2.45,1.2,1.58,2.16.58,1.66v2.88h-8.76l.24.58,1,1.42,1.25.6h1.22l1.44-.38,1.46-.89,1.34,2.06L392,233.93l-2.11.53h-2Zm6.63-6.48-.26-.77-1-1.37-1.22-.67h-1.3l-1.18.62-1,1.39-.17.79Z"/><path class="cls-2" d="M404.63,221.62h2.57v.91l.29-.29,1.68-.82h1.66l1.46.41-.62,2.47-1.22-.34h-.82l-1.1.53-.84.94-.48,1v7.8h-2.57Z"/><path class="cls-2" d="M416,233.26l-1.61-2.16-.51-1.75v-2.76l.51-1.8,1.61-2.16,2.45-1.2h2.16l2.45,1.2,1.58,2.16.58,1.66v2.88h-8.76l.24.58,1,1.42,1.25.6h1.22l1.44-.38,1.46-.89,1.34,2.06-1.85,1.22-2.11.53h-2Zm6.63-6.48-.26-.77-1-1.37-1.22-.67h-1.3l-1.18.62-1,1.39-.17.79Z"/><path class="cls-2" d="M435.9,233l-.29.31-2.21,1.13h-1.54l-1.63-.5-1.18-.7-1.39-2v-1.46l.36-1.66,1.8-1.82,2.35-.6h1.58l1.58.53.1.07v-1l-.19-.48-.82-.55-1.05-.26h-1.54l-.79.29-.65.43-.67.65L428,223.49l1-.89,1.08-.7,1.61-.48h2.23l1.61.41,1.9,1.27.67,1.68v6.84l1,1.46L437,234.58Zm-3-1.1,1.56-.6.82-.86.19-.53v-.67l-.38-.41-.55-.26-1.1-.34h-.94l-1.3.36-.77.79-.17.62v.48l.6.86.43.24.94.31Z"/><path class="cls-2" d="M441.66,221.62h2.57v.91l.29-.29,1.68-.82h1.66l1.46.41-.62,2.47-1.22-.34h-.81l-1.11.53-.84.94-.48,1v7.8h-2.57Z"/><path class="cls-2" d="M451.36,221.62h2.57v.91l.29-.29,1.68-.82h1.66l1.46.41-.62,2.47-1.22-.34h-.82l-1.1.53-.84.94-.48,1v7.8h-2.57Z"/><path class="cls-2" d="M468.85,233l-.29.31-2.21,1.13h-1.54l-1.63-.5-1.18-.7-1.39-2v-1.46l.36-1.66,1.8-1.82,2.35-.6h1.58l1.58.53.1.07v-1l-.19-.48-.82-.55-1.05-.26H464.8l-.79.29-.65.43-.67.65-1.78-1.85,1-.89,1.08-.7,1.61-.48h2.23l1.61.41,1.9,1.27.67,1.68v6.84l1,1.46-2.06,1.49Zm-3-1.1,1.56-.6.82-.86.19-.53v-.67l-.38-.41-.55-.26-1.1-.34h-.94l-1.3.36-.77.79-.17.62v.48l.6.86.43.24.94.31Z"/><path class="cls-2" d="M475.07,221.62h2.57v.77l1.66-1h2.16l2.23.6,1.51,2v10.2h-2.57V225l-.46-.65L481,224H479.7l-1.49,1-.58.82v8.5h-2.57Z"/><path class="cls-2" d="M491.1,237.87l-1.27-.82-.87-.86,1.8-1.85.79.79.43.34,1.1.29h1.46l.94-.34.86-.62.22-.53v-1.42l-1.44.86h-2.21l-2.47-1-1.68-2.18-.53-1.78v-2.21l.53-1.8,1.61-2.16,2.42-1.2h2.13l1.44.53.19.14v-.48h2.54v13l-.6,1.8-1.92,1.27-1.73.6h-2.14Zm3.55-6.7,1.32-.91.6-.94v-4.13l-.41-.48-.74-.48-.79-.29h-1.39l-1.18.67-1,1.37-.24.91v1.58l.21.84,1,1.34,1.3.5Z"/><path class="cls-2" d="M504.59,233.26,503,231.1l-.51-1.75v-2.76l.51-1.8,1.61-2.16,2.45-1.2h2.16l2.45,1.2,1.58,2.16.58,1.66v2.88H505l.24.58,1,1.42,1.25.6h1.22l1.44-.38,1.46-.89,1.34,2.06-1.85,1.22-2.11.53h-2Zm6.63-6.48L511,226l-1-1.37-1.22-.67h-1.3l-1.18.62-1,1.39-.17.79Z"/><path class="cls-2" d="M517.16,221.62h2.57v.77l1.66-1h2.19l2.23.6.72,1,.82-.67,1.63-.94h2.18l2.23.6,1.51,2v10.2h-2.57V225l-.46-.65-1.2-.38h-1.29l-1.49,1-.58.82v8.5h-2.57V225l-.46-.65-1.2-.38h-1.3l-1.49,1-.58.82v8.5h-2.57Z"/><path class="cls-2" d="M540,233.26l-1.61-2.16-.51-1.75v-2.76l.51-1.8,1.61-2.16,2.45-1.2h2.16l2.45,1.2,1.58,2.16.58,1.66v2.88h-8.76l.24.58,1,1.42,1.25.6h1.22l1.44-.38,1.46-.89,1.34,2.06-1.85,1.22-2.11.53h-2Zm6.63-6.48-.26-.77-1-1.37-1.22-.67h-1.3l-1.18.62-1,1.39-.17.79Z"/><path class="cls-2" d="M552.61,221.62h2.57v.77l1.66-1H559l2.23.6,1.51,2v10.2h-2.57V225l-.46-.65-1.2-.38h-1.27l-1.49,1-.58.82v8.5h-2.57Z"/><path class="cls-2" d="M568.55,233.79l-1.37-1.94v-7.37H565v-2.54h2.16v-4.42h2.57v4.42h3.14v2.54h-3.14V231l.43.58.65.29h.51l1.94-.5.65,2.5-2.45.55h-1.15Z"/><path class="cls-2" d="M210.41,262.08l-1.27-1.85-.46-2.06v-2.83l.46-2.06,1.27-1.85,2.43-1.2h2.54l2.45,1.2,1.27,1.85.43,2.06v2.83l-.43,2.06-1.27,1.85-2.45,1.18h-2.54Zm4.49-1.34,1.25-.62.53-.82.31-1.46v-2.21l-.31-1.39-.58-.86-1.18-.6h-1.66l-1.13.6-.6.84-.29,1.42v2.21l.29,1.49.55.79,1.22.62Z"/><path class="cls-2" d="M223.37,253.27h-2.16v-2.54h2.16v-3.26l1.39-2.06,2.09-.62h1l2.4.5-.67,2.54-2-.5H227l-.67.24-.43.62v2.54h3v2.54h-3v9.79h-2.57Z"/><path class="cls-2" d="M241.65,266.67l-1.27-.82-.87-.86,1.8-1.85.79.79.43.34,1.1.29h1.46l.94-.34.86-.62.22-.53v-1.42l-1.44.86h-2.21l-2.47-1-1.68-2.18-.53-1.78v-2.21l.53-1.8,1.61-2.16,2.42-1.2h2.13l1.44.53.19.14v-.48h2.54v13l-.6,1.8-1.92,1.27-1.73.6h-2.14Zm3.55-6.7,1.32-.91.6-.94V254l-.41-.48L246,253l-.79-.29h-1.39l-1.18.67-1,1.37-.24.91v1.58l.21.84,1,1.34,1.3.5Z"/><path class="cls-2" d="M255.14,262.06l-1.61-2.16-.51-1.75v-2.76l.51-1.8,1.61-2.16,2.45-1.2h2.16l2.45,1.2,1.58,2.16.58,1.66v2.88H255.6l.24.58,1,1.42,1.25.6h1.22l1.44-.38,1.46-.89,1.34,2.06-1.85,1.22-2.11.53h-2Zm6.63-6.48-.26-.77-1-1.37-1.22-.67H258l-1.18.62-1,1.39-.17.79Z"/><path class="cls-2" d="M267.72,250.42h2.57v.77l1.66-1h2.16l2.23.6,1.51,2v10.2h-2.57V253.8l-.46-.65-1.2-.38h-1.27l-1.49,1-.58.82v8.5h-2.57Z"/><path class="cls-2" d="M283,262.06l-1.61-2.16-.51-1.75v-2.76l.51-1.8,1.61-2.16,2.45-1.2h2.16l2.45,1.2,1.58,2.16.58,1.66v2.88h-8.76l.24.58,1,1.42,1.25.6h1.22l1.44-.38,1.46-.89,1.34,2.06-1.85,1.22-2.11.53h-2Zm6.63-6.48-.26-.77-1-1.37-1.22-.67h-1.3l-1.18.62-1,1.39-.17.79Z"/><path class="cls-2" d="M297.43,262.58l-1.37-1.94v-7.37H293.9v-2.54h2.16v-4.42h2.57v4.42h3.14v2.54h-3.14v6.58l.43.58.65.29h.51l1.94-.5.65,2.5-2.45.55H299.2Z"/><path class="cls-2" d="M305.35,245h3.36v3.48h-3.36Zm.41,5.45h2.57v12.65h-2.57Z"/><path class="cls-2" d="M314,262.06l-1.61-2.16-.53-1.75v-2.76l.53-1.8,1.61-2.16,2.42-1.2h2l2,.65,1.75,1.78-1.85,1.73-1.32-1.32-.82-.29h-1.37l-1.15.62-1,1.39-.22.91v2.14l.24.86,1,1.42,1.22.6h1.2l.84-.29,1.42-1.32,1.78,1.78-1.73,1.73-2,.65h-2Z"/><path class="cls-2" d="M332.2,250.42h2.57v.77l1.66-1h2.18l2.23.6.72,1,.82-.67,1.63-.94h2.19l2.23.6,1.51,2v10.2h-2.57V253.8l-.46-.65-1.2-.38h-1.3l-1.49,1-.58.82v8.5h-2.57V253.8l-.46-.65-1.2-.38h-1.29l-1.49,1-.58.82v8.5H332.2Z"/><path class="cls-2" d="M361.22,261.82l-.29.31-2.21,1.13h-1.54l-1.63-.5-1.18-.7L353,260v-1.46l.36-1.66,1.8-1.82,2.35-.6h1.58l1.58.53.1.07v-1l-.19-.48-.82-.55-1.06-.26h-1.54l-.79.29-.65.43-.67.65-1.78-1.85,1-.89,1.08-.7,1.61-.48h2.23l1.61.41,1.9,1.27.67,1.68v6.84l1,1.46-2.06,1.49Zm-3-1.1,1.56-.6.82-.86.19-.53V258l-.38-.41-.55-.26-1.11-.34h-.94l-1.3.36-.77.79-.17.62v.48l.6.86.43.24.94.31Z"/><path class="cls-2" d="M369.31,262.58l-1.37-1.94v-7.37h-2.16v-2.54h2.16v-4.42h2.57v4.42h3.14v2.54h-3.14v6.58l.43.58.65.29h.51l1.94-.5.65,2.5-2.45.55h-1.15Z"/><path class="cls-2" d="M378.57,262.06,377,259.9l-.51-1.75v-2.76l.51-1.8,1.61-2.16,2.45-1.2h2.16l2.45,1.2,1.58,2.16.58,1.66v2.88H379l.24.58,1,1.42,1.25.6h1.22l1.44-.38,1.46-.89L387,261.5l-1.85,1.22-2.11.53h-2Zm6.63-6.48-.26-.77-1-1.37-1.22-.67h-1.3l-1.18.62-1,1.39-.17.79Z"/><path class="cls-2" d="M390.69,250.42h2.57v.91l.29-.29,1.68-.82h1.66l1.46.41-.62,2.47-1.22-.34h-.82l-1.1.53-.84.94-.48,1v7.8h-2.57Z"/><path class="cls-2" d="M400.7,245h3.36v3.48H400.7Zm.41,5.45h2.57v12.65h-2.57Z"/><path class="cls-2" d="M415.51,261.82l-.29.31L413,263.26h-1.54l-1.63-.5-1.18-.7-1.39-2v-1.46l.36-1.66,1.8-1.82,2.35-.6h1.58L415,255l.1.07v-1l-.19-.48L414,253l-1.05-.26h-1.54l-.79.29-.65.43-.67.65-1.78-1.85,1-.89,1.08-.7,1.61-.48h2.23l1.61.41,1.9,1.27.67,1.68v6.84l1,1.46-2.06,1.49Zm-3-1.1,1.56-.6.82-.86.19-.53V258l-.38-.41-.55-.26L413,257h-.94l-1.3.36-.77.79-.17.62v.48l.6.86.43.24.94.31Z"/><path class="cls-2" d="M421.46,245H424v18.1h-2.57Z"/><path class="cls-2" d="M427.63,259.73h3.24v3.34h-3.24Z"/></g></g></svg>