<svg xmlns="http://www.w3.org/2000/svg" viewBox="0 0 640 480"><defs><style>.cls-1{fill:#00325f;}.cls-2{fill:#fff;}</style></defs><title>CaroPlaceholder4</title><g id="Layer_2" data-name="Layer 2"><g id="Layer_10" data-name="Layer 10"><rect class="cls-1" width="640" height="480"/><path class="cls-2" d="M76.56,233A1.42,1.42,0,1,1,78,234.47,1.4,1.4,0,0,1,76.56,233Zm8,0A1.43,1.43,0,1,1,86,234.47,1.4,1.4,0,0,1,84.55,233Zm8,0A1.42,1.42,0,0,1,94,231.44,1.51,1.51,0,1,1,92.55,233Z"/><path class="cls-2" d="M98.26,221.55H101l3.36,8.67,3.38-8.67h2.74l-5,12.65h-2.18Z"/><path class="cls-2" d="M112.78,216.1h3.36v3.48h-3.36Zm.41,5.45h2.57V234.2h-2.57Z"/><path class="cls-2" d="M119.78,221.55h2.57v.91l.29-.29,1.68-.82H126l1.46.41-.62,2.47-1.22-.34h-.82l-1.1.53-.84.94-.48,1v7.8h-2.57Z"/><path class="cls-2" d="M131.18,233.79l-1.61-2.09V221.55h2.57v9.26l.55.74,1.15.31H135l1.49-1,.6-.79v-8.52h2.57V234.2h-2.54v-.77l-1.68,1h-1.92Z"/><path class="cls-2" d="M144.7,233.89l-1.15-.94-.77-.86,1.8-1.73.62.72.53.41,1.39.38h1.39l.79-.24.48-.34.31-.43v-.7l-.31-.5-.53-.36-3.24-.67-1.61-.86-1.06-1.44v-2.26l.82-1.42,1.18-.89,1.44-.41h2.11l1.9.5,1.7,1.15-1.42,2.11-1.3-.89-1.15-.36h-1.42l-.86.24-.24.22-.22.38v.82l.34.43.5.26,3.5.7,1.42.94,1,1.58v2.16L151.7,233l-1.22.89-1.68.48h-2.11Z"/><path class="cls-2" d="M157,233.19,155.42,231l-.5-1.75v-2.76l.5-1.8,1.61-2.16,2.45-1.2h2.16l2.45,1.2,1.58,2.16.58,1.66v2.88h-8.76l.24.58,1,1.42,1.25.6h1.22l1.44-.38,1.46-.89,1.34,2.06-1.85,1.22-2.11.53h-2Zm6.63-6.48-.26-.77-1-1.37-1.22-.67h-1.3l-1.18.62-1,1.39-.17.79Z"/><path class="cls-2" d="M170.42,233.89l-1.15-.94-.77-.86,1.8-1.73.62.72.53.41,1.39.38h1.39l.79-.24.48-.34.31-.43v-.7l-.31-.5-.53-.36-3.24-.67-1.61-.86-1.06-1.44v-2.26l.82-1.42,1.18-.89,1.44-.41h2.11l1.9.5,1.7,1.15-1.42,2.11-1.3-.89-1.15-.36h-1.42l-.86.24-.24.22-.22.38v.82l.34.43.5.26,3.5.7,1.42.94,1,1.58v2.16l-.94,1.42-1.22.89-1.68.48h-2.11Z"/><path class="cls-2" d="M189.89,233.79l-1.61-2.09V221.55h2.57v9.26l.55.74,1.15.31h1.1l1.49-1,.6-.79v-8.52h2.57V234.2h-2.54v-.77l-1.68,1h-1.92Z"/><path class="cls-2" d="M203.4,233.89l-1.15-.94-.77-.86,1.8-1.73.62.72.53.41,1.39.38h1.39l.79-.24.48-.34.31-.43v-.7l-.31-.5-.53-.36-3.24-.67-1.61-.86-1.06-1.44v-2.26l.82-1.42,1.18-.89,1.44-.41h2.11l1.9.5,1.7,1.15-1.42,2.11-1.3-.89-1.15-.36h-1.42l-.86.24-.24.22-.22.38v.82l.34.43.5.26,3.5.7,1.42.94,1,1.58v2.16l-.94,1.42-1.22.89-1.68.48h-2.11Z"/><path class="cls-2" d="M215.73,233.19,214.12,231l-.5-1.75v-2.76l.5-1.8,1.61-2.16,2.45-1.2h2.16l2.45,1.2,1.58,2.16.58,1.66v2.88h-8.76l.24.58,1,1.42,1.25.6h1.22l1.44-.38,1.46-.89,1.34,2.06-1.85,1.22-2.11.53h-2Zm6.63-6.48-.26-.77-1-1.37-1.22-.67h-1.3l-1.18.62-1,1.39-.17.79Z"/><path class="cls-2" d="M235.24,216.1h3.36v3.48h-3.36Zm.41,5.45h2.57V234.2h-2.57Z"/><path class="cls-2" d="M244.58,233.72l-1.37-1.94v-7.37h-2.16v-2.54h2.16v-4.42h2.57v4.42h3.14v2.54h-3.14V231l.43.58.65.29h.5l1.94-.5.65,2.5-2.45.55h-1.15Z"/><path class="cls-2" d="M261.6,233.72l-1.37-1.94v-7.37h-2.16v-2.54h2.16v-4.42h2.57v4.42h3.14v2.54H262.8V231l.43.58.65.29h.5l1.94-.5.65,2.5-2.45.55h-1.15Z"/><path class="cls-2" d="M270.52,233.22l-1.27-1.85-.46-2.06v-2.83l.46-2.06,1.27-1.85,2.42-1.2h2.54l2.45,1.2,1.27,1.85.43,2.06v2.83l-.43,2.06-1.27,1.85-2.45,1.18h-2.54Zm4.49-1.34,1.25-.62.53-.82.31-1.46v-2.21l-.31-1.39-.58-.86-1.18-.6h-1.66l-1.13.6-.6.84-.29,1.42V229l.29,1.49.55.79,1.22.62Z"/><path class="cls-2" d="M290,216.1h3.36v3.48H290Zm.41,5.45H293V234.2h-2.57Z"/><path class="cls-2" d="M297.45,221.55H300v.77l1.66-1h2.16l2.23.6,1.51,2v10.2H305v-9.26l-.46-.65-1.2-.38h-1.27l-1.49,1-.58.82v8.5h-2.57Z"/><path class="cls-2" d="M313.39,233.72,312,231.78v-7.37h-2.16v-2.54H312v-4.42h2.57v4.42h3.14v2.54h-3.14V231l.43.58.65.29h.5l1.94-.5.65,2.5-2.45.55h-1.15Z"/><path class="cls-2" d="M322.65,233.19,321,231l-.5-1.75v-2.76l.5-1.8,1.61-2.16,2.45-1.2h2.16l2.45,1.2,1.58,2.16.58,1.66v2.88h-8.76l.24.58,1,1.42,1.25.6h1.22l1.44-.38,1.46-.89,1.34,2.06-1.85,1.22-2.11.53h-2Zm6.63-6.48-.26-.77-1-1.37-1.22-.67h-1.3l-1.18.62-1,1.39-.17.79Z"/><path class="cls-2" d="M337.19,237.8l-1.27-.82-.86-.86,1.8-1.85.79.79.43.34,1.1.29h1.46l.94-.34.86-.62.22-.53v-1.42l-1.44.86H339l-2.47-1-1.68-2.18-.53-1.78v-2.21l.53-1.8,1.61-2.16,2.42-1.2H341l1.44.53.19.14v-.48h2.54v13l-.6,1.8-1.92,1.27-1.73.6h-2.14Zm3.55-6.7,1.32-.91.6-.94v-4.13l-.41-.48-.74-.48-.79-.29h-1.39l-1.18.67-1,1.37-.24.91v1.58l.22.84,1,1.34,1.3.5Z"/><path class="cls-2" d="M349,221.55h2.57v.91l.29-.29,1.68-.82h1.66l1.46.41-.62,2.47-1.22-.34H354l-1.1.53-.84.94-.48,1v7.8H349Z"/><path class="cls-2" d="M366.52,233l-.29.31L364,234.39h-1.54l-1.63-.5-1.18-.7-1.39-2v-1.46l.36-1.66,1.8-1.82,2.35-.6h1.58l1.58.53.1.07v-1l-.19-.48-.82-.55-1.06-.26h-1.54l-.79.29-.65.43-.67.65-1.78-1.85,1-.89,1.08-.7,1.61-.48h2.23l1.61.41L368,223l.67,1.68v6.84l1,1.46-2.06,1.49Zm-3-1.1,1.56-.6.82-.86.19-.53v-.67l-.38-.41-.55-.26-1.1-.34h-.94l-1.3.36-.77.79-.17.62v.48l.6.86.43.24.94.31Z"/><path class="cls-2" d="M374.61,233.72l-1.37-1.94v-7.37h-2.16v-2.54h2.16v-4.42h2.57v4.42H379v2.54h-3.14V231l.43.58.65.29h.5l1.94-.5.65,2.5-2.45.55h-1.15Z"/><path class="cls-2" d="M383.87,233.19,382.26,231l-.5-1.75v-2.76l.5-1.8,1.61-2.16,2.45-1.2h2.16l2.45,1.2,1.58,2.16.58,1.66v2.88h-8.76l.24.58,1,1.42,1.25.6H388l1.44-.38,1.46-.89,1.34,2.06-1.85,1.22-2.11.53h-2Zm6.63-6.48-.26-.77-1-1.37-1.22-.67h-1.3l-1.18.62-1,1.39-.17.79Z"/><path class="cls-2" d="M405.4,233.72,404,231.78v-7.37h-2.16v-2.54H404v-4.42h2.57v4.42h3.14v2.54H406.6V231l.43.58.65.29h.5l1.94-.5.65,2.5-2.45.55h-1.15Z"/><path class="cls-2" d="M413.46,216.1H416v6.19l1.66-.94h2.18L422,222l1.51,2v10.2H420.9v-9.26l-.48-.7-1-.34h-1.37l-1.49,1-.58.86v8.45h-2.57Z"/><path class="cls-2" d="M428.61,233.19,427,231l-.5-1.75v-2.76l.5-1.8,1.61-2.16,2.45-1.2h2.16l2.45,1.2,1.58,2.16.58,1.66v2.88h-8.76l.24.58,1,1.42,1.25.6h1.22l1.44-.38,1.46-.89,1.34,2.06-1.85,1.22-2.11.53h-2Zm6.63-6.48-.26-.77-1-1.37-1.22-.67h-1.3l-1.18.62-1,1.39-.17.79Z"/><path class="cls-2" d="M441,216.1h3.36v3.48H441Zm.41,5.45H444V234.2h-2.57Z"/><path class="cls-2" d="M448,221.55h2.57v.91l.29-.29,1.68-.82h1.66l1.46.41-.62,2.47-1.22-.34H453l-1.1.53-.84.94-.48,1v7.8H448Z"/><path class="cls-2" d="M467.25,237.8,466,237l-.86-.86,1.8-1.85.79.79.43.34,1.1.29h1.46l.94-.34.86-.62.22-.53v-1.42l-1.44.86h-2.21l-2.47-1-1.68-2.18-.53-1.78v-2.21l.53-1.8,1.61-2.16,2.42-1.2h2.14l1.44.53.19.14v-.48h2.54v13l-.6,1.8-1.92,1.27-1.73.6h-2.14Zm3.55-6.7,1.32-.91.6-.94v-4.13l-.41-.48-.74-.48-.79-.29h-1.39l-1.18.67-1,1.37-.24.91v1.58l.22.84,1,1.34,1.3.5Z"/><path class="cls-2" d="M480.73,233.19,479.13,231l-.5-1.75v-2.76l.5-1.8,1.61-2.16,2.45-1.2h2.16l2.45,1.2,1.58,2.16.58,1.66v2.88h-8.76l.24.58,1,1.42,1.25.6h1.22l1.44-.38,1.46-.89,1.34,2.06-1.85,1.22-2.11.53h-2Zm6.63-6.48-.26-.77-1-1.37-1.22-.67h-1.3l-1.18.62-1,1.39-.17.79Z"/><path class="cls-2" d="M493.31,221.55h2.57v.77l1.66-1h2.16l2.23.6,1.51,2v10.2h-2.57v-9.26l-.46-.65-1.2-.38h-1.27l-1.49,1-.58.82v8.5h-2.57Z"/><path class="cls-2" d="M508.24,233.22,507,231.37l-.46-2.06v-2.83l.46-2.06,1.27-1.85,2.42-1.2h2.54l2.45,1.2,1.27,1.85.43,2.06v2.83l-.43,2.06-1.27,1.85-2.45,1.18h-2.54Zm4.49-1.34,1.25-.62.53-.82.31-1.46v-2.21l-.31-1.39-.58-.86-1.18-.6h-1.66l-1.13.6-.6.84-.29,1.42V229l.29,1.49.55.79,1.22.62Z"/><path class="cls-2" d="M520.76,221.55h2.57v.77l1.66-1h2.18l2.23.6.72,1,.82-.67,1.63-.94h2.18l2.23.6,1.51,2v10.2h-2.57v-9.26l-.46-.65-1.2-.38H533l-1.49,1-.58.82v8.5h-2.57v-9.26l-.46-.65-1.2-.38h-1.3l-1.49,1-.58.82v8.5h-2.57Z"/><path class="cls-2" d="M543.64,233.19,542,231l-.5-1.75v-2.76l.5-1.8,1.61-2.16,2.45-1.2h2.16l2.45,1.2,1.58,2.16.58,1.66v2.88h-8.76l.24.58,1,1.42,1.25.6h1.22l1.44-.38,1.46-.89,1.34,2.06-1.85,1.22-2.11.53h-2Zm6.63-6.48-.26-.77-1-1.37-1.22-.67h-1.3l-1.18.62-1,1.39-.17.79Z"/><path class="cls-2" d="M557,233.89l-1.15-.94-.77-.86,1.8-1.73.62.72.53.41,1.39.38h1.39l.79-.24.48-.34.31-.43v-.7l-.31-.5-.53-.36-3.24-.67-1.61-.86-1.06-1.44v-2.26l.82-1.42,1.18-.89,1.44-.41h2.11l1.9.5,1.7,1.15-1.42,2.11-1.3-.89-1.15-.36h-1.42l-.86.24-.24.22-.22.38v.82l.34.43.5.26,3.5.7,1.42.94,1,1.58v2.16L564,233l-1.22.89-1.68.48H559Z"/><path class="cls-2" d="M102.08,244.9h3.36v3.48h-3.36Zm.41,5.45h2.57V263h-2.57Z"/><path class="cls-2" d="M109.55,250.35h2.57v.77l1.66-1h2.16l2.23.6,1.51,2V263h-2.57v-9.26l-.46-.65-1.2-.38h-1.27l-1.49,1-.58.82V263h-2.57Z"/><path class="cls-2" d="M124.43,262.69l-1.15-.94-.77-.86,1.8-1.73.62.72.53.41,1.39.38h1.39l.79-.24.48-.34.31-.43V259l-.31-.5-.53-.36-3.24-.67-1.61-.86-1.06-1.44v-2.26l.82-1.42,1.18-.89,1.44-.41h2.11l1.9.5,1.7,1.15-1.42,2.11-1.3-.89-1.15-.36h-1.42l-.86.24-.24.22-.22.38v.82l.34.43.5.26,3.5.7,1.42.94,1,1.58v2.16l-.94,1.42-1.22.89-1.68.48h-2.11Z"/><path class="cls-2" d="M135.42,244.9h3.36v3.48h-3.36Zm.41,5.45h2.57V263h-2.57Z"/><path class="cls-2" d="M144.08,262l-1.61-2.18-.53-1.75v-2.76l.53-1.8,1.61-2.16,2.45-1.2h2.11l1.44.53.19.14V244.9h2.57V263H150.3v-.7l-1.46.89h-2.26Zm4.27-1.37,1.32-.91.6-.86v-4.95l-.38-.48-.77-.48-.79-.29H147l-1.2.67-1,1.37-.24.91v2.16l.24.84,1,1.39,1.32.62Z"/><path class="cls-2" d="M158.34,262l-1.61-2.16-.5-1.75v-2.76l.5-1.8,1.61-2.16,2.45-1.2h2.16l2.45,1.2,1.58,2.16.58,1.66v2.88H158.8l.24.58,1,1.42,1.25.6h1.22l1.44-.38,1.46-.89,1.34,2.06-1.85,1.22-2.11.53h-2Zm6.63-6.48-.26-.77-1-1.37-1.22-.67h-1.3l-1.18.62-1,1.39-.17.79Z"/><path class="cls-2" d="M179.22,262l-1.61-2.16-.53-1.75v-2.76l.53-1.8,1.61-2.16,2.42-1.2h2l2,.65,1.75,1.78-1.85,1.73L184.24,253l-.82-.29h-1.37l-1.15.62-1,1.39-.22.91v2.14l.24.86,1,1.42,1.22.6h1.2l.84-.29L185.6,259l1.78,1.78-1.73,1.73-2,.65h-2Z"/><path class="cls-2" d="M191.51,262l-1.61-2.16-.5-1.75v-2.76l.5-1.8,1.61-2.16,2.45-1.2h2.16l2.45,1.2,1.58,2.16.58,1.66v2.88H192l.24.58,1,1.42,1.25.6h1.22l1.44-.38,1.46-.89,1.34,2.06-1.85,1.22-2.11.53h-2Zm6.63-6.48-.26-.77-1-1.37-1.22-.67h-1.3l-1.18.62-1,1.39-.17.79Z"/><path class="cls-2" d="M203.82,244.9h2.57V263h-2.57Z"/><path class="cls-2" d="M210.13,244.9h2.57V263h-2.57Z"/><path class="cls-2" d="M217.52,262.69l-1.15-.94-.77-.86,1.8-1.73.62.72.53.41,1.39.38h1.39l.79-.24.48-.34.31-.43V259l-.31-.5-.53-.36-3.24-.67-1.61-.86-1.06-1.44v-2.26l.82-1.42,1.18-.89,1.44-.41h2.11l1.9.5,1.7,1.15-1.42,2.11-1.3-.89-1.15-.36H220l-.86.24-.24.22-.22.38v.82l.34.43.5.26,3.5.7,1.42.94,1,1.58v2.16l-.94,1.42-1.22.89-1.68.48h-2.11Z"/><path class="cls-2" d="M228.08,265.52l1.34-2.52-1.18-.46v-2.88h3.24v3l-2.16,3.55Z"/><path class="cls-2" d="M242.46,250.35H245v.7l1.46-.89h2.26l2.5,1.18,1.61,2.18.53,1.75V258l-.53,1.8L251.22,262l-2.45,1.2h-2.14l-1.42-.53-.19-.14v4.39h-2.57Zm5.88,10.32,1.2-.67,1-1.37.24-.91v-2.14l-.24-.86-1-1.39-1.32-.62h-1.3l-1.32.91-.6.86v4.94l.38.48.77.48.79.29Z"/><path class="cls-2" d="M264,261.75l-.29.31-2.21,1.13H260l-1.63-.5-1.18-.7-1.39-2v-1.46l.36-1.66L258,255l2.35-.6h1.58l1.58.53.1.07v-1l-.19-.48-.82-.55-1.06-.26H260l-.79.29-.65.43-.67.65-1.78-1.85,1-.89,1.08-.7,1.61-.48H262l1.61.41,1.9,1.27.67,1.68v6.84l1,1.46-2.06,1.49Zm-3-1.1,1.56-.6.82-.86.19-.53V258l-.38-.41-.55-.26-1.1-.34h-.94l-1.3.36-.77.79-.17.62v.48l.6.86.43.24.94.31Z"/><path class="cls-2" d="M269.79,250.35h2.57v.91l.29-.29,1.68-.82H276l1.46.41-.62,2.47-1.22-.34h-.82l-1.1.53-.84.94-.48,1V263h-2.57Z"/><path class="cls-2" d="M287.29,261.75l-.29.31-2.21,1.13h-1.54l-1.63-.5-1.18-.7-1.39-2v-1.46l.36-1.66,1.8-1.82,2.35-.6h1.58l1.58.53.1.07v-1l-.19-.48-.82-.55-1.06-.26h-1.54l-.79.29-.65.43-.67.65-1.78-1.85,1-.89,1.08-.7,1.61-.48h2.23l1.61.41,1.9,1.27.67,1.68v6.84l1,1.46-2.06,1.49Zm-3-1.1,1.56-.6.82-.86.19-.53V258l-.38-.41-.55-.26-1.1-.34h-.94l-1.3.36-.77.79-.17.62v.48l.6.86.43.24.94.31Z"/><path class="cls-2" d="M294.32,262.69l-1.15-.94-.77-.86,1.8-1.73.62.72.53.41,1.39.38h1.39l.79-.24.48-.34.31-.43V259l-.31-.5-.53-.36-3.24-.67-1.61-.86L293,255.13v-2.26l.82-1.42,1.18-.89,1.44-.41h2.11l1.9.5,1.7,1.15-1.42,2.11-1.3-.89-1.15-.36h-1.42l-.86.24-.24.22-.22.38v.82l.34.43.5.26,3.5.7,1.42.94,1,1.58v2.16l-.94,1.42-1.22.89-1.68.48h-2.11Z"/><path class="cls-2" d="M305.31,244.9h3.36v3.48h-3.36Zm.41,5.45h2.57V263h-2.57Z"/><path class="cls-2" d="M314.65,262.52l-1.37-1.94v-7.37h-2.16v-2.54h2.16v-4.42h2.57v4.42H319v2.54h-3.14v6.58l.43.58.65.29h.5l1.94-.5.65,2.5-2.45.55h-1.15Z"/><path class="cls-2" d="M322.57,244.9h3.36v3.48h-3.36Zm.41,5.45h2.57V263H323Z"/><path class="cls-2" d="M330.85,262.69l-1.15-.94-.77-.86,1.8-1.73.62.72.53.41,1.39.38h1.39l.79-.24.48-.34.31-.43V259l-.31-.5-.53-.36-3.24-.67-1.61-.86-1.06-1.44v-2.26l.82-1.42,1.18-.89,1.44-.41H335l1.9.5,1.7,1.15-1.42,2.11-1.3-.89-1.15-.36h-1.42l-.86.24-.24.22-.22.38v.82l.34.43.5.26,3.5.7,1.42.94,1,1.58v2.16l-.94,1.42-1.22.89-1.68.48h-2.11Z"/><path class="cls-2" d="M341.84,244.9h3.36v3.48h-3.36Zm.41,5.45h2.57V263h-2.57Z"/><path class="cls-2" d="M349.3,250.35h2.57v.77l1.66-1h2.16l2.23.6,1.51,2V263h-2.57v-9.26l-.46-.65-1.2-.38h-1.27l-1.49,1-.58.82V263H349.3Z"/><path class="cls-2" d="M365.34,266.6l-1.27-.82-.86-.86,1.8-1.85.79.79.43.34,1.1.29h1.46l.94-.34.86-.62.22-.53v-1.42l-1.44.86h-2.21l-2.47-1L363,259.31l-.53-1.78v-2.21l.53-1.8,1.61-2.16,2.42-1.2h2.14l1.44.53.19.14v-.48h2.54v13l-.6,1.8-1.92,1.27-1.73.6H367Zm3.55-6.7,1.32-.91.6-.94v-4.13l-.41-.48-.74-.48-.79-.29h-1.39l-1.18.67-1,1.37-.24.91v1.58l.22.84,1,1.34,1.3.5Z"/><path class="cls-2" d="M386.58,262.52l-1.37-1.94v-7.37H383v-2.54h2.16v-4.42h2.57v4.42h3.14v2.54h-3.14v6.58l.43.58.65.29h.5l1.94-.5.65,2.5-2.45.55h-1.15Z"/><path class="cls-2" d="M394.64,244.9h2.57v6.19l1.66-.94H401l2.09.62,1.51,2V263h-2.57v-9.26l-.48-.7-1-.34h-1.37l-1.49,1-.58.86V263h-2.57Z"/><path class="cls-2" d="M409.78,262l-1.61-2.16-.5-1.75v-2.76l.5-1.8,1.61-2.16,2.45-1.2h2.16l2.45,1.2,1.58,2.16.58,1.66v2.88h-8.76l.24.58,1,1.42,1.25.6H414l1.44-.38,1.46-.89,1.34,2.06-1.85,1.22-2.11.53h-2Zm6.63-6.48-.26-.77-1-1.37-1.22-.67h-1.3l-1.18.62-1,1.39-.17.79Z"/><path class="cls-2" d="M430.3,262,429,260.17l-.46-2.06v-2.83l.46-2.06,1.27-1.85,2.42-1.2h2.54l2.45,1.2,1.27,1.85.43,2.06v2.83l-.43,2.06L437.72,262l-2.45,1.18h-2.54Zm4.49-1.34,1.25-.62.53-.82.31-1.46v-2.21l-.31-1.39-.58-.86-1.18-.6h-1.66l-1.13.6-.6.84-.29,1.42v2.21l.29,1.49.55.79,1.22.62Z"/><path class="cls-2" d="M442.37,250.35h2.57v.91l.29-.29,1.68-.82h1.66l1.46.41-.62,2.47-1.22-.34h-.82l-1.1.53-.84.94-.48,1V263h-2.57Z"/><path class="cls-2" d="M454.49,266.6l-1.27-.82-.86-.86,1.8-1.85.79.79.43.34,1.1.29H458l.94-.34.86-.62L460,263v-1.42l-1.44.86h-2.21l-2.47-1-1.68-2.18-.53-1.78v-2.21l.53-1.8,1.61-2.16,2.42-1.2h2.14l1.44.53.19.14v-.48h2.54v13l-.6,1.8L460,266.43l-1.73.6h-2.14Zm3.55-6.7,1.32-.91.6-.94v-4.13l-.41-.48-.74-.48-.79-.29h-1.39l-1.18.67-1,1.37-.24.91v1.58l.22.84,1,1.34,1.3.5Z"/><path class="cls-2" d="M474.13,261.75l-.29.31-2.21,1.13h-1.54l-1.63-.5-1.18-.7-1.39-2v-1.46l.36-1.66,1.8-1.82,2.35-.6H472l1.58.53.1.07v-1l-.19-.48-.82-.55-1.06-.26h-1.54l-.79.29-.65.43-.67.65-1.78-1.85,1-.89,1.08-.7,1.61-.48h2.23l1.61.41,1.9,1.27.67,1.68v6.84l1,1.46-2.06,1.49Zm-3-1.1,1.56-.6.82-.86.19-.53V258l-.38-.41-.55-.26-1.1-.34h-.94l-1.3.36-.77.79-.17.62v.48l.6.86.43.24.94.31Z"/><path class="cls-2" d="M480.34,250.35h2.57v.77l1.66-1h2.16l2.23.6,1.51,2V263H487.9v-9.26l-.46-.65-1.2-.38H485l-1.49,1-.58.82V263h-2.57Z"/><path class="cls-2" d="M494.26,244.9h3.36v3.48h-3.36Zm.41,5.45h2.57V263h-2.57Z"/><path class="cls-2" d="M502.54,262.69l-1.15-.94-.77-.86,1.8-1.73.62.72.53.41,1.39.38h1.39l.79-.24.48-.34.31-.43V259l-.31-.5-.53-.36-3.24-.67-1.61-.86-1.06-1.44v-2.26l.82-1.42,1.18-.89,1.44-.41h2.11l1.9.5,1.7,1.15-1.42,2.11-1.3-.89-1.15-.36h-1.42l-.86.24-.24.22-.22.38v.82l.34.43.5.26,3.5.7,1.42.94,1,1.58v2.16l-.94,1.42-1.22.89-1.68.48h-2.11Z"/><path class="cls-2" d="M513.68,250.35h2.57v.77l1.66-1h2.18l2.23.6.72,1,.82-.67,1.63-.94h2.18l2.23.6,1.51,2V263h-2.57v-9.26l-.46-.65-1.2-.38h-1.3l-1.49,1-.58.82V263h-2.57v-9.26l-.46-.65-1.2-.38h-1.3l-1.49,1-.58.82V263h-2.57Z"/><path class="cls-2" d="M534.94,259.67h3.24V263h-3.24Z"/></g></g></svg>