<svg xmlns="http://www.w3.org/2000/svg" viewBox="0 0 640 480"><defs><style>.cls-1{fill:#f4aa00;}.cls-2{fill:#fff;}</style></defs><title>CaroPlaceholder3</title><g id="Layer_2" data-name="Layer 2"><g id="Layer_10" data-name="Layer 10"><rect class="cls-1" width="640" height="480"/><path class="cls-2" d="M70.13,217.34h2.69l3,12L79.3,218h1.92l3.48,11.28,3-12h2.69L86,234.4H83.66l-3.41-11-3.41,11H74.5Z"/><path class="cls-2" d="M92.83,216.31H95.4v6.19l1.66-.94h2.18l2.09.62,1.51,2v10.2h-2.57v-9.26l-.48-.7-1-.34H97.46l-1.49,1-.58.86v8.45H92.83Z"/><path class="cls-2" d="M106.63,216.31H110v3.48h-3.36Zm.41,5.45h2.57V234.4H107Z"/><path class="cls-2" d="M113.83,216.31h2.57v18.1h-2.57Z"/><path class="cls-2" d="M121.61,233.4,120,231.24l-.5-1.75v-2.76l.5-1.8,1.61-2.16,2.45-1.2h2.16l2.45,1.2,1.58,2.16.58,1.66v2.88h-8.76l.24.58,1,1.42,1.25.6h1.22l1.44-.38,1.46-.89,1.34,2.06-1.85,1.22-2.11.53h-2Zm6.63-6.48-.26-.77-1-1.37-1.22-.67h-1.3l-1.18.62-1,1.39-.17.79Z"/><path class="cls-2" d="M141.31,217.34h7.18l2.3.62,1.66,1.82.53,2.35-.48,1.9-.86,1.13-.48.24.48.26,1.1,1.46.55,2.35-.58,2.35-1.32,1.63-2,.94h-8.06Zm7.49,6.72,1-.67.22-.29.29-1-.26-1-.7-.79-1.06-.34H143.9v4.15Zm-.07,7.78,1-.46.58-.65.31-1.25-.31-1.42-.48-.77-1.06-.65H143.9v5.18Z"/><path class="cls-2" d="M163.94,233.16l-.29.31-2.21,1.13h-1.54l-1.63-.5-1.18-.7-1.39-2v-1.46l.36-1.66,1.8-1.82,2.35-.6h1.58l1.58.53.1.07v-1l-.19-.48-.82-.55-1.06-.26h-1.54l-.79.29-.65.43-.67.65L156,223.63l1-.89L158,222l1.61-.48h2.23l1.61.41,1.9,1.27.67,1.68v6.84l1,1.46L165,234.72Zm-3-1.1,1.56-.6.82-.86.19-.53v-.67l-.38-.41-.55-.26-1.1-.34h-.94l-1.3.36-.77.79-.17.62v.48l.6.86.43.24.94.31Z"/><path class="cls-2" d="M171.38,233.4l-1.61-2.16-.53-1.75v-2.76l.53-1.8,1.61-2.16,2.42-1.2h2l2,.65,1.75,1.78-1.85,1.73-1.32-1.32-.82-.29h-1.37l-1.15.62-1,1.39-.22.91v2.14l.24.86,1,1.42,1.22.6h1.2l.84-.29,1.42-1.32,1.78,1.78-1.73,1.73-2,.65h-2Z"/><path class="cls-2" d="M184.34,233.92,183,232v-7.37h-2.16v-2.54H183v-4.42h2.57v4.42h3.14v2.54h-3.14v6.58l.43.58.65.29h.5l1.94-.5.65,2.5-2.45.55h-1.15Z"/><path class="cls-2" d="M193.6,233.4,192,231.24l-.5-1.75v-2.76l.5-1.8,1.61-2.16,2.45-1.2h2.16l2.45,1.2,1.58,2.16.58,1.66v2.88h-8.76l.24.58,1,1.42,1.25.6h1.22l1.44-.38,1.46-.89,1.34,2.06-1.85,1.22-2.11.53h-2Zm6.63-6.48-.26-.77-1-1.37-1.22-.67h-1.3l-1.18.62-1,1.39-.17.79Z"/><path class="cls-2" d="M205.72,221.75h2.57v.91l.29-.29,1.68-.82h1.66l1.46.41-.62,2.47-1.22-.34h-.82l-1.1.53-.84.94-.48,1v7.8h-2.57Z"/><path class="cls-2" d="M215.73,216.31h3.36v3.48h-3.36Zm.41,5.45h2.57V234.4h-2.57Z"/><path class="cls-2" d="M230.54,233.16l-.29.31L228,234.6h-1.54l-1.63-.5-1.18-.7-1.39-2v-1.46l.36-1.66,1.8-1.82,2.35-.6h1.58l1.58.53.1.07v-1l-.19-.48-.82-.55-1.06-.26h-1.54l-.79.29-.65.43-.67.65-1.78-1.85,1-.89,1.08-.7,1.61-.48h2.23l1.61.41,1.9,1.27.67,1.68v6.84l1,1.46-2.06,1.49Zm-3-1.1,1.56-.6.82-.86.19-.53v-.67l-.38-.41-.55-.26-1.1-.34h-.94l-1.3.36-.77.79-.17.62v.48l.6.86.43.24.94.31Z"/><path class="cls-2" d="M236.18,236.92l1.34-2.52-1.18-.46v-2.88h3.24v3l-2.16,3.55Z"/><path class="cls-2" d="M258.84,230.11h-5.9l-1.51,4.3h-2.76l6.22-17.07h2l6.22,17.07h-2.76Zm-.89-2.54-2.06-5.93-2.06,5.93Z"/><path class="cls-2" d="M265.05,221.75h2.57v.91l.29-.29,1.68-.82h1.66l1.46.41-.62,2.47-1.22-.34H270l-1.1.53-.84.94-.48,1v7.8h-2.57Z"/><path class="cls-2" d="M276.43,233.4l-1.61-2.16-.53-1.75v-2.76l.53-1.8,1.61-2.16,2.42-1.2h2l2,.65,1.75,1.78-1.85,1.73-1.32-1.32-.82-.29h-1.37l-1.15.62-1,1.39-.22.91v2.14l.24.86,1,1.42,1.22.6h1.2l.84-.29,1.42-1.32,1.78,1.78-1.73,1.73-2,.65h-2Z"/><path class="cls-2" d="M287.51,216.31h2.57v6.19l1.66-.94h2.18l2.09.62,1.51,2v10.2H295v-9.26l-.48-.7-1-.34h-1.37l-1.49,1-.58.86v8.45h-2.57Z"/><path class="cls-2" d="M308.8,233.16l-.29.31-2.21,1.13h-1.54l-1.63-.5-1.18-.7-1.39-2v-1.46l.36-1.66,1.8-1.82,2.35-.6h1.58l1.58.53.1.07v-1l-.19-.48-.82-.55-1.06-.26h-1.54l-.79.29-.65.43-.67.65-1.78-1.85,1-.89,1.08-.7,1.61-.48h2.23l1.61.41,1.9,1.27.67,1.68v6.84l1,1.46-2.06,1.49Zm-3-1.1,1.56-.6.82-.86.19-.53v-.67L308,229l-.55-.26-1.1-.34h-.94l-1.3.36-.77.79-.17.62v.48l.6.86.43.24.94.31Z"/><path class="cls-2" d="M316.22,233.4l-1.61-2.16-.5-1.75v-2.76l.5-1.8,1.61-2.16,2.45-1.2h2.16l2.45,1.2,1.58,2.16.58,1.66v2.88h-8.76l.24.58,1,1.42,1.25.6h1.22l1.44-.38,1.46-.89,1.34,2.06-1.85,1.22-2.11.53h-2Zm6.63-6.48-.26-.77-1-1.37-1.22-.67h-1.3l-1.18.62-1,1.39-.17.79Z"/><path class="cls-2" d="M336.14,233.16l-.29.31-2.21,1.13h-1.54l-1.63-.5-1.18-.7-1.39-2v-1.46l.36-1.66,1.8-1.82,2.35-.6H334l1.58.53.1.07v-1l-.19-.48-.82-.55-1.06-.26h-1.54l-.79.29-.65.43-.67.65-1.78-1.85,1-.89,1.08-.7,1.61-.48h2.23l1.61.41,1.9,1.27.67,1.68v6.84l1,1.46-2.06,1.49Zm-3-1.1,1.56-.6.82-.86.19-.53v-.67l-.38-.41-.55-.26-1.1-.34h-.94l-1.3.36-.77.79-.17.62v.48l.6.86.43.24.94.31Z"/><path class="cls-2" d="M356.78,233.16l-.29.31-2.21,1.13h-1.54l-1.63-.5-1.18-.7-1.39-2v-1.46l.36-1.66,1.8-1.82,2.35-.6h1.58l1.58.53.1.07v-1l-.19-.48-.82-.55-1.06-.26h-1.54l-.79.29-.65.43-.67.65-1.78-1.85,1-.89,1.08-.7,1.61-.48h2.23l1.61.41,1.9,1.27.67,1.68v6.84l1,1.46-2.06,1.49Zm-3-1.1,1.56-.6.82-.86.19-.53v-.67l-.38-.41-.55-.26-1.1-.34h-.94l-1.3.36-.77.79-.17.62v.48l.6.86.43.24.94.31Z"/><path class="cls-2" d="M363,221.75h2.57v.77l1.66-1h2.16l2.23.6,1.51,2v10.2h-2.57v-9.26l-.46-.65-1.2-.38h-1.27l-1.49,1-.58.82v8.5H363Z"/><path class="cls-2" d="M378.26,233.42l-1.61-2.18-.53-1.75v-2.76l.53-1.8,1.61-2.16,2.45-1.2h2.11l1.44.53.19.14v-5.93H387v18.1h-2.54v-.7l-1.46.89h-2.26Zm4.27-1.37,1.32-.91.6-.86v-4.95l-.38-.48-.77-.48-.79-.29h-1.37l-1.2.67-1,1.37-.24.91v2.16l.24.84,1,1.39,1.32.62Z"/><path class="cls-2" d="M398.39,217.34h11v2.57H401v4.15h5.76v2.59H401v5.18h8.35v2.57h-11Z"/><path class="cls-2" d="M413.59,234,412,231.91V221.75h2.57V231l.55.74,1.15.31h1.1l1.49-1,.6-.79v-8.52H422V234.4h-2.54v-.77l-1.68,1h-1.92Z"/><path class="cls-2" d="M426.09,216.33h2.57v10l4.56-4.56h3.65l-5.3,5.18,5.35,7.46h-3.14l-4-5.69-1.13,1.08v4.61h-2.57Z"/><path class="cls-2" d="M446.87,233.16l-.29.31-2.21,1.13h-1.54l-1.63-.5-1.18-.7-1.39-2v-1.46l.36-1.66,1.8-1.82,2.35-.6h1.58l1.58.53.1.07v-1l-.19-.48-.82-.55-1.06-.26h-1.54l-.79.29-.65.43-.67.65-1.78-1.85,1-.89L441,222l1.61-.48h2.23l1.61.41,1.9,1.27.67,1.68v6.84l1,1.46-2.06,1.49Zm-3-1.1,1.56-.6.82-.86.19-.53v-.67L446,229l-.55-.26-1.1-.34h-.94l-1.3.36-.77.79-.17.62v.48l.6.86.43.24.94.31Z"/><path class="cls-2" d="M452.63,221.75h2.57v.91l.29-.29,1.68-.82h1.66l1.46.41-.62,2.47-1.22-.34h-.82l-1.1.53-.84.94-.48,1v7.8h-2.57Z"/><path class="cls-2" d="M465.9,232.48,461,221.75h2.9l3.36,7.63,3.36-7.63h2.86L466,238.32h-2.78Z"/><path class="cls-2" d="M476.9,233.42l-1.27-1.85-.46-2.06v-2.83l.46-2.06,1.27-1.85,2.42-1.2h2.54l2.45,1.2,1.27,1.85.43,2.06v2.83l-.43,2.06-1.27,1.85-2.45,1.18h-2.54Zm4.49-1.34,1.25-.62.53-.82.31-1.46V227l-.31-1.39-.58-.86-1.18-.6h-1.66l-1.13.6-.6.84-.29,1.42v2.21l.29,1.49.55.79,1.22.62Z"/><path class="cls-2" d="M491.3,233.92,489.93,232v-7.37h-2.16v-2.54h2.16v-4.42h2.57v4.42h3.14v2.54H492.5v6.58l.43.58.65.29h.5l1.94-.5.65,2.5-2.45.55h-1.15Z"/><path class="cls-2" d="M500.56,233.4,499,231.24l-.5-1.75v-2.76l.5-1.8,1.61-2.16,2.45-1.2h2.16l2.45,1.2,1.58,2.16.58,1.66v2.88H501l.24.58,1,1.42,1.25.6h1.22l1.44-.38,1.46-.89,1.34,2.06-1.85,1.22-2.11.53h-2Zm6.63-6.48-.26-.77-1-1.37-1.22-.67h-1.3l-1.18.62-1,1.39-.17.79Z"/><path class="cls-2" d="M514,234.09l-1.15-.94-.77-.86,1.8-1.73.62.72.53.41,1.39.38h1.39l.79-.24.48-.34.31-.43v-.7l-.31-.5-.53-.36-3.24-.67-1.61-.86-1.06-1.44v-2.26l.82-1.42,1.18-.89,1.44-.41h2.11l1.9.5,1.7,1.15-1.42,2.11-1.3-.89-1.15-.36h-1.42l-.86.24-.24.22-.22.38v.82l.34.43.5.26,3.5.7,1.42.94,1,1.58v2.16l-.94,1.42-1.22.89-1.68.48h-2.11Z"/><path class="cls-2" d="M533.42,234l-1.61-2.09V221.75h2.57V231l.55.74,1.15.31h1.1l1.49-1,.6-.79v-8.52h2.57V234.4H539.3v-.77l-1.68,1h-1.92Z"/><path class="cls-2" d="M546.93,234.09l-1.15-.94-.77-.86,1.8-1.73.62.72.53.41,1.39.38h1.39l.79-.24.48-.34.31-.43v-.7l-.31-.5-.53-.36-3.24-.67-1.61-.86-1.06-1.44v-2.26l.82-1.42,1.18-.89,1.44-.41h2.11l1.9.5,1.7,1.15-1.42,2.11-1.3-.89-1.15-.36h-1.42l-.86.24-.24.22-.22.38v.82l.34.43.5.26,3.5.7,1.42.94,1,1.58v2.16l-.94,1.42-1.22.89-1.68.48h-2.11Z"/><path class="cls-2" d="M559.26,233.4l-1.61-2.16-.5-1.75v-2.76l.5-1.8,1.61-2.16,2.45-1.2h2.16l2.45,1.2,1.58,2.16.58,1.66v2.88h-8.76l.24.58,1,1.42,1.25.6h1.22l1.44-.38,1.46-.89,1.34,2.06-1.85,1.22-2.11.53h-2Zm6.63-6.48-.26-.77-1-1.37-1.22-.67h-1.3l-1.18.62-1,1.39-.17.79Z"/><path class="cls-2" d="M94.62,245.11H98v3.48H94.62Zm.41,5.45h2.57V263.2H95Z"/><path class="cls-2" d="M104,262.72l-1.37-1.94v-7.37h-2.16v-2.54h2.16v-4.42h2.57v4.42h3.14v2.54h-3.14V260l.43.58.65.29h.5l1.94-.5.65,2.5-2.45.55h-1.15Z"/><path class="cls-2" d="M121,262.72l-1.37-1.94v-7.37h-2.16v-2.54h2.16v-4.42h2.57v4.42h3.14v2.54h-3.14V260l.43.58.65.29h.5l1.94-.5.65,2.5-2.45.55h-1.15Z"/><path class="cls-2" d="M129.9,262.22l-1.27-1.85-.46-2.06v-2.83l.46-2.06,1.27-1.85,2.42-1.2h2.54l2.45,1.2,1.27,1.85.43,2.06v2.83l-.43,2.06-1.27,1.85-2.45,1.18h-2.54Zm4.49-1.34,1.25-.62.53-.82.31-1.46v-2.21l-.31-1.39-.58-.86-1.18-.6h-1.66l-1.13.6-.6.84-.29,1.42V258l.29,1.49.55.79,1.22.62Z"/><path class="cls-2" d="M149.51,250.55h2.57v.77l1.66-1h2.18l2.23.6.72,1,.82-.67,1.63-.94h2.18l2.23.6,1.51,2v10.2h-2.57v-9.26l-.46-.65-1.2-.38h-1.3l-1.49,1-.58.82v8.5h-2.57v-9.26l-.46-.65-1.2-.38h-1.3l-1.49,1-.58.82v8.5h-2.57Z"/><path class="cls-2" d="M178.52,262l-.29.31L176,263.4h-1.54l-1.63-.5-1.18-.7-1.39-2v-1.46l.36-1.66,1.8-1.82,2.35-.6h1.58l1.58.53.1.07v-1l-.19-.48-.82-.55-1.06-.26h-1.54l-.79.29-.65.43-.67.65-1.78-1.85,1-.89,1.08-.7,1.61-.48h2.23l1.61.41L180,252l.67,1.68v6.84l1,1.46-2.06,1.49Zm-3-1.1,1.56-.6.82-.86.19-.53v-.67l-.38-.41-.55-.26-1.1-.34h-.94l-1.3.36-.77.79-.17.62v.48l.6.86.43.24.94.31Z"/><path class="cls-2" d="M184.59,245.11H188v3.48h-3.36Zm.41,5.45h2.57V263.2H185Z"/><path class="cls-2" d="M192.06,250.55h2.57v.77l1.66-1h2.16l2.23.6,1.51,2v10.2h-2.57v-9.26l-.46-.65-1.2-.38h-1.27l-1.49,1-.58.82v8.5h-2.57Z"/><path class="cls-2" d="M208,262.72l-1.37-1.94v-7.37h-2.16v-2.54h2.16v-4.42h2.57v4.42h3.14v2.54h-3.14V260l.43.58.65.29h.5l1.94-.5.65,2.5-2.45.55h-1.15Z"/><path class="cls-2" d="M223.4,262l-.29.31-2.21,1.13h-1.54l-1.63-.5-1.18-.7-1.39-2v-1.46l.36-1.66,1.8-1.82,2.35-.6h1.58l1.58.53.1.07v-1l-.19-.48-.82-.55-1.06-.26h-1.54l-.79.29-.65.43-.67.65-1.78-1.85,1-.89,1.08-.7,1.61-.48h2.23l1.61.41,1.9,1.27.67,1.68v6.84l1,1.46-2.06,1.49Zm-3-1.1,1.56-.6.82-.86.19-.53v-.67l-.38-.41-.55-.26-1.1-.34H220l-1.3.36-.77.79-.17.62v.48l.6.86.43.24.94.31Z"/><path class="cls-2" d="M229.47,245.11h3.36v3.48h-3.36Zm.41,5.45h2.57V263.2h-2.57Z"/><path class="cls-2" d="M236.94,250.55h2.57v.77l1.66-1h2.16l2.23.6,1.51,2v10.2H244.5v-9.26l-.46-.65-1.2-.38h-1.27l-1.49,1-.58.82v8.5h-2.57Z"/><path class="cls-2" d="M259.28,262.2,257.67,260l-.5-1.75v-2.76l.5-1.8,1.61-2.16,2.45-1.2h2.16l2.45,1.2,1.58,2.16.58,1.66v2.88h-8.76l.24.58,1,1.42,1.25.6h1.22l1.44-.38,1.46-.89,1.34,2.06-1.85,1.22-2.11.53h-2Zm6.63-6.48-.26-.77-1-1.37-1.22-.67h-1.3l-1.18.62-1,1.39-.17.79Z"/><path class="cls-2" d="M272.67,262.89l-1.15-.94-.77-.86,1.8-1.73.62.72.53.41,1.39.38h1.39l.79-.24.48-.34.31-.43v-.7l-.31-.5-.53-.36-3.24-.67-1.61-.86-1.06-1.44v-2.26l.82-1.42,1.18-.89,1.44-.41h2.11l1.9.5,1.7,1.15-1.42,2.11-1.3-.89-1.15-.36h-1.42l-.86.24-.24.22-.22.38v.82l.34.43.5.26,3.5.7,1.42.94,1,1.58v2.16l-.94,1.42-1.22.89-1.68.48h-2.11Z"/><path class="cls-2" d="M284.62,262.89l-1.15-.94-.77-.86,1.8-1.73.62.72.53.41,1.39.38h1.39l.79-.24.48-.34.31-.43v-.7l-.31-.5-.53-.36-3.24-.67-1.61-.86-1.06-1.44v-2.26l.82-1.42,1.18-.89,1.44-.41h2.11l1.9.5,1.7,1.15L291,254.13l-1.3-.89-1.15-.36h-1.42l-.86.24-.24.22-.22.38v.82l.34.43.5.26,3.5.7,1.42.94,1,1.58v2.16l-.94,1.42-1.22.89-1.68.48h-2.11Z"/><path class="cls-2" d="M297,262.2,295.35,260l-.5-1.75v-2.76l.5-1.8,1.61-2.16,2.45-1.2h2.16l2.45,1.2,1.58,2.16.58,1.66v2.88h-8.76l.24.58,1,1.42,1.25.6h1.22l1.44-.38,1.46-.89,1.34,2.06-1.85,1.22-2.11.53h-2Zm6.63-6.48-.26-.77-1-1.37-1.22-.67h-1.3l-1.18.62-1,1.39-.17.79Z"/><path class="cls-2" d="M309.53,250.55h2.57v.77l1.66-1h2.16l2.23.6,1.51,2v10.2h-2.57v-9.26l-.46-.65-1.2-.38h-1.27l-1.49,1-.58.82v8.5h-2.57Z"/><path class="cls-2" d="M325.47,262.72l-1.37-1.94v-7.37h-2.16v-2.54h2.16v-4.42h2.57v4.42h3.14v2.54h-3.14V260l.43.58.65.29h.5l1.94-.5.65,2.5-2.45.55h-1.15Z"/><path class="cls-2" d="M333.39,245.11h3.36v3.48h-3.36Zm.41,5.45h2.57V263.2H333.8Z"/><path class="cls-2" d="M348.2,262l-.29.31-2.21,1.13h-1.54l-1.63-.5-1.18-.7-1.39-2v-1.46l.36-1.66,1.8-1.82,2.35-.6h1.58l1.58.53.1.07v-1l-.19-.48-.82-.55-1.06-.26h-1.54l-.79.29-.65.43-.67.65-1.78-1.85,1-.89,1.08-.7,1.61-.48h2.23l1.61.41,1.9,1.27.67,1.68v6.84l1,1.46-2.06,1.49Zm-3-1.1,1.56-.6.82-.86.19-.53v-.67l-.38-.41-.55-.26-1.1-.34h-.94l-1.3.36-.77.79-.17.62v.48l.6.86.43.24.94.31Z"/><path class="cls-2" d="M354.15,245.11h2.57v18.1h-2.57Z"/><path class="cls-2" d="M367.54,245.11h2.57v18.1h-2.57Z"/><path class="cls-2" d="M374,245.11h3.36v3.48H374Zm.41,5.45h2.57V263.2h-2.57Z"/><path class="cls-2" d="M381.87,253.41h-2.16v-2.54h2.16V247.6l1.39-2.06,2.09-.62h1l2.4.5-.67,2.54-2-.5h-.5l-.67.24-.43.62v2.54h3v2.54h-3v9.79h-2.57Z"/><path class="cls-2" d="M392.31,262.2,390.7,260l-.5-1.75v-2.76l.5-1.8,1.61-2.16,2.45-1.2h2.16l2.45,1.2,1.58,2.16.58,1.66v2.88h-8.76l.24.58,1,1.42,1.25.6h1.22l1.44-.38,1.46-.89,1.34,2.06-1.85,1.22-2.11.53h-2Zm6.63-6.48-.26-.77-1-1.37-1.22-.67h-1.3l-1.18.62-1,1.39-.17.79Z"/><path class="cls-2" d="M412,250.55h2.54v.7l1.46-.89h2.26l2.5,1.18,1.61,2.18.53,1.75v2.76l-.53,1.8-1.61,2.16-2.45,1.2h-2.14l-1.42-.53-.19-.14v4.39H412Zm5.88,10.32,1.2-.67,1-1.37.24-.91v-2.14l-.24-.86-1-1.39-1.32-.62h-1.3l-1.32.91-.6.86v4.94l.38.48.77.48.79.29Z"/><path class="cls-2" d="M425.76,250.55h2.57v.91l.29-.29,1.68-.82H432l1.46.41-.62,2.47-1.22-.34h-.82l-1.1.53-.84.94-.48,1v7.8h-2.57Z"/><path class="cls-2" d="M436.78,262.22l-1.27-1.85-.46-2.06v-2.83l.46-2.06,1.27-1.85,2.42-1.2h2.54l2.45,1.2,1.27,1.85.43,2.06v2.83l-.43,2.06-1.27,1.85-2.45,1.18H439.2Zm4.49-1.34,1.25-.62.53-.82.31-1.46v-2.21l-.31-1.39-.58-.86-1.18-.6h-1.66l-1.13.6-.6.84-.29,1.42V258l.29,1.49.55.79,1.22.62Z"/><path class="cls-2" d="M450.53,262.2,448.92,260l-.53-1.75v-2.76l.53-1.8,1.61-2.16,2.42-1.2h2l2,.65,1.75,1.78-1.85,1.73-1.32-1.32-.82-.29h-1.37l-1.15.62-1,1.39-.22.91V258l.24.86,1,1.42,1.22.6h1.2l.84-.29,1.42-1.32,1.78,1.78L457,262.75l-2,.65h-2Z"/><path class="cls-2" d="M462.82,262.2,461.21,260l-.5-1.75v-2.76l.5-1.8,1.61-2.16,2.45-1.2h2.16l2.45,1.2,1.58,2.16.58,1.66v2.88h-8.76l.24.58,1,1.42,1.25.6H467l1.44-.38,1.46-.89,1.34,2.06-1.85,1.22-2.11.53h-2Zm6.63-6.48-.26-.77-1-1.37-1.22-.67h-1.3l-1.18.62-1,1.39-.17.79Z"/><path class="cls-2" d="M476.21,262.89l-1.15-.94-.77-.86,1.8-1.73.62.72.53.41,1.39.38H480l.79-.24.48-.34.31-.43v-.7l-.31-.5-.53-.36-3.24-.67-1.61-.86-1.06-1.44v-2.26l.82-1.42,1.18-.89,1.44-.41h2.11l1.9.5L484,252l-1.42,2.11-1.3-.89-1.15-.36h-1.42l-.86.24-.24.22-.22.38v.82l.34.43.5.26,3.5.7,1.42.94,1,1.58v2.16l-.94,1.42-1.22.89-1.68.48H478.2Z"/><path class="cls-2" d="M488.16,262.89,487,262l-.77-.86,1.8-1.73.62.72.53.41,1.39.38H492l.79-.24.48-.34.31-.43v-.7l-.31-.5-.53-.36-3.24-.67-1.61-.86-1.06-1.44v-2.26l.82-1.42,1.18-.89,1.44-.41h2.11l1.9.5L496,252l-1.42,2.11-1.3-.89-1.15-.36h-1.42l-.86.24-.24.22-.22.38v.82l.34.43.5.26,3.5.7,1.42.94,1,1.58v2.16l-.94,1.42-1.22.89-1.68.48h-2.11Z"/><path class="cls-2" d="M500.5,262.2,498.89,260l-.5-1.75v-2.76l.5-1.8,1.61-2.16,2.45-1.2h2.16l2.45,1.2,1.58,2.16.58,1.66v2.88H501l.24.58,1,1.42,1.25.6h1.22l1.44-.38,1.46-.89,1.34,2.06-1.85,1.22-2.11.53h-2Zm6.63-6.48-.26-.77-1-1.37-1.22-.67h-1.3l-1.18.62-1,1.39-.17.79Z"/><path class="cls-2" d="M513.89,262.89l-1.15-.94-.77-.86,1.8-1.73.62.72.53.41,1.39.38h1.39l.79-.24.48-.34.31-.43v-.7l-.31-.5-.53-.36-3.24-.67-1.61-.86-1.06-1.44v-2.26l.82-1.42,1.18-.89,1.44-.41h2.11l1.9.5,1.7,1.15-1.42,2.11-1.3-.89-1.15-.36h-1.42l-.86.24-.24.22-.22.38v.82l.34.43.5.26,3.5.7,1.42.94,1,1.58v2.16L520.9,262l-1.22.89-1.68.48h-2.11Z"/><path class="cls-2" d="M525.48,262a1.42,1.42,0,1,1,1.42,1.51A1.4,1.4,0,0,1,525.48,262Zm8,0a1.43,1.43,0,1,1,1.42,1.51A1.4,1.4,0,0,1,533.47,262Zm8,0a1.42,1.42,0,0,1,1.44-1.51,1.51,1.51,0,1,1-1.44,1.51Z"/></g></g></svg>