<svg xmlns="http://www.w3.org/2000/svg" viewBox="0 0 283.4 283.17"><defs><style>.cls-1{fill:#fff;}.cls-1,.cls-2{stroke:#000;stroke-width:3px;}.cls-2{fill:none;}.cls-3{fill:#f4aa00;}</style></defs><title>ButtonContactMouse</title><g id="Layer_2" data-name="Layer 2"><g id="Layer_12" data-name="Layer 12"><polygon class="cls-1" points="1.5 1.5 270.64 1.5 281.9 12.76 281.9 281.67 12.76 281.67 1.5 270.41 1.5 1.5"/><polyline class="cls-2" points="1.5 270.41 270.56 270.41 270.59 2"/><line class="cls-1" x1="281.9" y1="281.67" x2="270.56" y2="270.41"/><path class="cls-3" d="M76.32,143.72l-2.45-2.48L72.32,138,71.64,135v-5.29l.68-3.13,1.51-3.13,2.59-2.52,3.78-1.66h4L88,120.76,89.64,122l1.73,2-2.81,2.66L87,125l-1-.76-2.45-1.08H81l-2.27,1-1.62,1.58-1,2-.54,2.34v4.39l.54,2.34,1,2.09,1.55,1.51,2.3,1.08h2.66l2.52-1.08.94-.76L88.56,138l2.81,2.66-1.73,2L88,143.9l-3.82,1.51h-4Z"/><path class="cls-3" d="M97.16,143.65l-1.91-2.77-.68-3.1v-4.25l.68-3.1,1.91-2.77,3.64-1.8h3.82l3.67,1.8,1.91,2.77.65,3.1v4.25l-.65,3.1-1.91,2.77-3.67,1.76H100.8Zm6.73-2,1.87-.94.79-1.22.47-2.2V134l-.47-2.09-.86-1.3-1.76-.9h-2.48l-1.69.9-.9,1.26L98.42,134v3.31l.43,2.23.83,1.19,1.84.94Z"/><path class="cls-3" d="M116,126.16h3.85v1.15l2.48-1.44h3.24l3.35.9,2.27,3.06v15.3H127.3V131.23l-.68-1-1.8-.58H122.9l-2.23,1.48-.86,1.22v12.74H116Z"/><path class="cls-3" d="M139.86,144.41l-2.05-2.92V130.44h-3.24v-3.82h3.24V120h3.85v6.62h4.72v3.82h-4.72v9.86l.65.86,1,.43H144l2.92-.76,1,3.74-3.67.83h-1.73Z"/><path class="cls-3" d="M163,143.26l-.43.47-3.31,1.69h-2.3l-2.45-.76-1.76-1-2.09-3v-2.2l.54-2.48,2.7-2.74,3.53-.9h2.38l2.38.79.14.11v-1.55l-.29-.72-1.22-.83-1.58-.4h-2.3l-1.19.43-1,.65-1,1L151.06,129l1.44-1.33,1.62-1,2.41-.72h3.35l2.41.61,2.84,1.91,1,2.52v10.26l1.51,2.2-3.1,2.23Zm-4.54-1.66,2.34-.9,1.22-1.3.29-.79v-1l-.58-.61-.83-.4-1.66-.5h-1.4l-1.94.54-1.15,1.19-.25.94v.72l.9,1.3.65.36,1.4.47Z"/><path class="cls-3" d="M174.13,143.62l-2.41-3.24-.79-2.63v-4.14l.79-2.7,2.41-3.24,3.64-1.8h3l3,1,2.63,2.66-2.77,2.59-2-2-1.22-.43h-2.05l-1.73.94-1.55,2.09-.32,1.37v3.2l.36,1.3,1.55,2.12,1.84.9h1.8l1.26-.43,2.12-2,2.66,2.66-2.59,2.59-3,1h-3Z"/><path class="cls-3" d="M193.57,144.41l-2.05-2.92V130.44h-3.24v-3.82h3.24V120h3.85v6.62h4.72v3.82h-4.72v9.86l.65.86,1,.43h.76l2.92-.76,1,3.74-3.67.83h-1.73Z"/></g></g></svg>