<svg xmlns="http://www.w3.org/2000/svg" viewBox="0 0 868.31 361.86"><defs><style>.cls-1{fill:#fff;}.cls-1,.cls-2{stroke:#000;stroke-width:6px;}.cls-2{fill:none;}</style></defs><title>Toolkit Content</title><g id="Layer_2" data-name="Layer 2"><g id="Layer_2-2" data-name="Layer 2"><polygon class="cls-1" points="718.08 170.14 457.74 170.14 446.48 158.89 446.48 3 706.83 3 718.08 14.26 718.08 170.14"/><polyline class="cls-2" points="718.08 14.26 457.82 14.26 457.82 170.14"/><line class="cls-2" x1="446.48" y1="3" x2="457.82" y2="14.26"/><polygon class="cls-1" points="151.25 170.14 411.6 170.14 422.85 158.89 422.85 3 162.5 3 151.25 14.26 151.25 170.14"/><polyline class="cls-1" points="151.25 14.26 411.51 14.26 411.51 170.14"/><line class="cls-1" x1="422.85" y1="3" x2="411.51" y2="14.26"/></g><g id="Layer_5" data-name="Layer 5"><path d="M500,79.41l-1.68-1.63-.55-1.9V73.67l.6-1.85,1.22-1.18-.77-.67-.67-1.73V66.49l.6-1.87,1.54-1.27,2.26-.67h1.82l2.26.67,1.51,1.27.62,1.87v1.75L508,70l-.77.7,1.22,1.15.6,1.85v2.26l-.55,1.85-1.68,1.63-2.35.72h-2.18Zm4.25-1.87,1.25-.38.79-.79.24-.84V74l-.26-.82-.82-.86-.91-.34h-2.18l-.89.34-.84.84-.24.82v1.49l.22.89.82.79,1.22.38Zm.22-8.09.79-.26.67-.67.22-.67v-1l-.26-.74-.58-.48L504,65.27h-1.18l-1.27.34-.58.48-.26.74v1l.24.7.65.67.84.24Z"/><path d="M520.5,79l-1.27-1.85L518.77,75V72.21l.46-2.06,1.27-1.85,2.42-1.2h2.54l2.45,1.2,1.27,1.85.43,2.06V75l-.43,2.06L527.92,79l-2.45,1.18h-2.54ZM525,77.61l1.25-.62.53-.82.31-1.46V72.5l-.31-1.39-.58-.86-1.18-.6h-1.66l-1.13.6-.6.84-.29,1.42V74.7l.29,1.49.55.79,1.22.62Z"/><path d="M532.57,67.29h2.57v.91l.29-.29,1.68-.82h1.66l1.46.41L539.61,70l-1.22-.34h-.82l-1.1.53-.84.94-.48,1v7.8h-2.57Z"/><path d="M544.6,79.46l-1.37-1.94V70.14h-2.16V67.6h2.16V63.18h2.57V67.6h3.14v2.54H545.8v6.58l.43.58.65.29h.5l1.94-.5.65,2.5-2.45.55h-1.15Z"/><path d="M552.66,61.84h2.57V68l1.66-.94h2.18l2.09.62,1.51,2v10.2H560.1V70.67l-.48-.7-1-.34h-1.37l-1.49,1-.58.86v8.45h-2.57Z"/><path d="M567.47,79,566.2,77.1,565.74,75V72.21l.46-2.06,1.27-1.85,2.42-1.2h2.54l2.45,1.2,1.27,1.85.43,2.06V75l-.43,2.06L574.89,79l-2.45,1.18h-2.54ZM572,77.61,573.2,77l.53-.82L574,74.7V72.5l-.31-1.39-.58-.86-1.18-.6h-1.66l-1.13.6-.6.84-.29,1.42V74.7l.29,1.49.55.79,1.22.62Z"/><path d="M582,83.54l-1.27-.82-.86-.86,1.8-1.85.79.79.43.34,1.1.29h1.46l.94-.34.86-.62.22-.53V78.52l-1.44.86h-2.21l-2.47-1-1.68-2.18-.53-1.78V72.26l.53-1.8,1.61-2.16,2.42-1.2h2.14l1.44.53.19.14v-.48H590v13l-.6,1.8-1.92,1.27-1.73.6H583.6Zm3.55-6.7,1.32-.91.6-.94V70.86l-.41-.48-.74-.48-.79-.29H584.1l-1.18.67-1,1.37-.24.91v1.58l.22.84,1,1.34,1.3.5Z"/><path d="M595.12,79l-1.27-1.85L593.39,75V72.21l.46-2.06,1.27-1.85,2.42-1.2h2.54l2.45,1.2,1.27,1.85.43,2.06V75l-.43,2.06L602.53,79l-2.45,1.18h-2.54Zm4.49-1.34,1.25-.62.53-.82.31-1.46V72.5l-.31-1.39-.58-.86-1.18-.6H598l-1.13.6-.6.84L596,72.5V74.7l.29,1.49.55.79,1.22.62Z"/><path d="M607.64,67.29h2.57v.77l1.66-1H614l2.23.6,1.51,2v10.2H615.2V70.67l-.46-.65-1.2-.38h-1.27l-1.49,1-.58.82v8.5h-2.57Z"/><path d="M629.05,78.69l-.29.31-2.21,1.13H625l-1.63-.5-1.18-.7-1.39-2V75.45l.36-1.66L623,72l2.35-.6h1.58l1.58.53.1.07v-1l-.19-.48-.82-.55-1.06-.26H625l-.79.29-.65.43-.67.65-1.78-1.85,1-.89,1.08-.7,1.61-.48H627l1.61.41,1.9,1.27.67,1.68V77.3l1,1.46-2.06,1.49Zm-3-1.1,1.56-.6.82-.86.19-.53v-.67l-.38-.41-.55-.26-1.1-.34h-.94l-1.3.36-.77.79-.17.62v.48l.6.86.43.24.94.31Z"/><path d="M635,61.84h2.57v18.1H635Z"/><path d="M648.39,61.84H651v18.1h-2.57Z"/><path d="M655.83,79l-1.27-1.85L654.11,75V72.21l.46-2.06,1.27-1.85,2.42-1.2h2.54l2.45,1.2,1.27,1.85.43,2.06V75l-.43,2.06L663.25,79l-2.45,1.18h-2.54Zm4.49-1.34,1.25-.62.53-.82.31-1.46V72.5l-.31-1.39-.58-.86-1.18-.6h-1.66l-1.13.6-.6.84-.29,1.42V74.7l.29,1.49.55.79,1.22.62Z"/><path d="M671.24,73.6l-4.73-6.31h3.22l3.12,4.2,3.1-4.2h3.22l-4.73,6.31c1.46,2,3.34,4.42,4.78,6.34H676l-3.12-4.25-3.14,4.25h-3.24Z"/><path d="M526.8,108.42l-1.15-.94-.77-.86,1.8-1.73.62.72.53.41,1.39.38h1.39l.79-.24.48-.34.31-.43v-.7l-.31-.5-.53-.36-3.24-.67-1.61-.86-1.06-1.44V98.61l.82-1.42,1.18-.89,1.44-.41H531l1.9.5,1.7,1.15-1.42,2.11-1.3-.89-1.15-.36h-1.42l-.86.24-.24.22-.22.38v.82l.34.43.5.26,3.5.7,1.42.94,1,1.58v2.16l-.94,1.42-1.22.89-1.68.48h-2.11Z"/><path d="M537.79,90.64h3.36v3.48h-3.36Zm.41,5.45h2.57v12.65H538.2Z"/><path d="M547.13,108.26l-1.37-1.94V98.94H543.6V96.4h2.16V92h2.57V96.4h3.14v2.54h-3.14v6.58l.43.58.65.29h.5l1.94-.5.65,2.5-2.45.55H548.9Z"/><path d="M556.39,107.73l-1.61-2.16-.5-1.75v-2.76l.5-1.8,1.61-2.16,2.45-1.2H561l2.45,1.2L565,99.26l.58,1.66v2.88h-8.76l.24.58,1,1.42,1.25.6h1.22L562,106l1.46-.89,1.34,2.06L563,108.4l-2.11.53h-2Zm6.63-6.48-.26-.77-1-1.37-1.22-.67h-1.3l-1.18.62-1,1.39-.17.79Z"/><path d="M569.78,108.42l-1.15-.94-.77-.86,1.8-1.73.62.72.53.41,1.39.38h1.39l.79-.24.48-.34.31-.43v-.7l-.31-.5-.53-.36-3.24-.67-1.61-.86-1.06-1.44V98.61l.82-1.42,1.18-.89,1.44-.41H574l1.9.5,1.7,1.15-1.42,2.11-1.3-.89-1.15-.36H572.3l-.86.24-.24.22-.22.38v.82l.34.43.5.26,3.5.7,1.42.94,1,1.58v2.16l-.94,1.42-1.22.89-1.68.48h-2.11Z"/><path d="M589.87,108.26l-1.37-1.94V98.94h-2.16V96.4h2.16V92h2.57V96.4h3.14v2.54h-3.14v6.58l.43.58.65.29h.5l1.94-.5.65,2.5-2.45.55h-1.15Z"/><path d="M598.8,107.75l-1.27-1.85-.46-2.06V101l.46-2.06,1.27-1.85,2.42-1.2h2.54l2.45,1.2,1.27,1.85.43,2.06v2.83l-.43,2.06-1.27,1.85-2.45,1.18h-2.54Zm4.49-1.34,1.25-.62.53-.82.31-1.46V101.3l-.31-1.39-.58-.86-1.18-.6h-1.66l-1.13.6-.6.84-.29,1.42v2.21l.29,1.49.55.79,1.22.62Z"/><path d="M619.63,107.73,618,105.57l-.53-1.75v-2.76l.53-1.8,1.61-2.16,2.42-1.2h2l2,.65,1.75,1.78L626,100l-1.32-1.32-.82-.29h-1.37l-1.15.62-1,1.39-.22.91v2.14l.24.86,1,1.42,1.22.6h1.2l.84-.29,1.42-1.32,1.78,1.78-1.73,1.73-2,.65h-2Z"/><path d="M630.26,96.09h2.57V97l.29-.29,1.68-.82h1.66l1.46.41-.62,2.47-1.22-.34h-.82l-1.1.53-.84.94-.48,1v7.8h-2.57Z"/><path d="M641.61,107.73,640,105.57l-.5-1.75v-2.76l.5-1.8,1.61-2.16,2.45-1.2h2.16l2.45,1.2,1.58,2.16.58,1.66v2.88h-8.76l.24.58,1,1.42,1.25.6h1.22l1.44-.38,1.46-.89,1.34,2.06-1.85,1.22-2.11.53h-2Zm6.63-6.48-.26-.77-1-1.37-1.22-.67h-1.3l-1.18.62-1,1.39-.17.79Z"/><path d="M203.93,77.56l-1.46-1.37,1.85-1.87,1.08,1.08,1.44.6h1.54l1.63-.72.79-.86.41-1V72.25l-.34-.89-1-1-1.22-.48h-2l-1.51.53L203.21,69l1.06-7.71h8.4V63.9h-6.14L206,67.35l.19,0h3l2.26.86,1.68,1.68.74,2v2l-.72,1.94-1.61,1.7-2.54,1.13h-2.62Z"/><path d="M225.17,78.08,224,77.15l-.77-.86,1.8-1.73.62.72.53.41,1.39.38H229l.79-.24.48-.34.31-.43v-.7l-.31-.5-.53-.36-3.24-.67L224.88,72l-1.06-1.44V68.27l.82-1.42,1.18-.89,1.44-.41h2.11l1.9.5,1.7,1.15-1.42,2.11-1.3-.89-1.15-.36h-1.42l-.86.24-.24.22-.22.38v.82l.34.43.5.26,3.5.7,1.42.94,1,1.58V75.8l-.94,1.42-1.22.89-1.68.48h-2.11Z"/><path d="M236.16,60.3h3.36v3.48h-3.36Zm.41,5.45h2.57V78.39h-2.57Z"/><path d="M245.5,77.91,244.13,76V68.6H242V66.06h2.16V61.64h2.57v4.42h3.14V68.6H246.7v6.58l.43.58.65.29h.5l1.94-.5.65,2.5-2.45.55h-1.15Z"/><path d="M254.76,77.39l-1.61-2.16-.5-1.75V70.71l.5-1.8,1.61-2.16,2.45-1.2h2.16l2.45,1.2,1.58,2.16.58,1.66v2.88h-8.76l.24.58,1,1.42,1.25.6h1.22l1.44-.38,1.46-.89,1.34,2.06-1.85,1.22-2.11.53h-2Zm6.63-6.48-.26-.77-1-1.37-1.22-.67h-1.3l-1.18.62-1,1.39-.17.79Z"/><path d="M275.24,78.08l-1.15-.94-.77-.86,1.8-1.73.62.72.53.41,1.39.38h1.39l.79-.24.48-.34.31-.43v-.7l-.31-.5-.53-.36-3.24-.67L274.95,72l-1.06-1.44V68.27l.82-1.42,1.18-.89,1.44-.41h2.11l1.9.5,1.7,1.15-1.42,2.11-1.3-.89-1.15-.36h-1.42l-.86.24-.24.22-.22.38v.82l.34.43.5.26,3.5.7,1.42.94,1,1.58V75.8l-.94,1.42-1.22.89-1.68.48h-2.11Z"/><path d="M286.39,65.75h2.54v.7l1.46-.89h2.26l2.5,1.18,1.61,2.18.53,1.75v2.76l-.53,1.8-1.61,2.16-2.45,1.2h-2.14l-1.42-.53-.19-.14v4.39h-2.57Zm5.88,10.32,1.2-.67,1-1.37.24-.91V71l-.24-.86-1-1.39-1.32-.62h-1.3l-1.32.91-.6.86v4.94l.38.48.77.48.79.29Z"/><path d="M301.83,77.39l-1.61-2.16-.5-1.75V70.71l.5-1.8,1.61-2.16,2.45-1.2h2.16l2.45,1.2,1.58,2.16.58,1.66v2.88h-8.76l.24.58,1,1.42,1.25.6H306l1.44-.38,1.46-.89,1.34,2.06-1.85,1.22-2.11.53h-2Zm6.63-6.48-.26-.77-1-1.37L306,68.1h-1.3l-1.18.62-1,1.39-.17.79Z"/><path d="M315.63,77.39,314,75.23l-.53-1.75V70.71l.53-1.8,1.61-2.16,2.42-1.2h2l2,.65L323.81,68,322,69.71l-1.32-1.32-.82-.29h-1.37l-1.15.62-1,1.39-.22.91v2.14l.24.86,1,1.42,1.22.6h1.2l.84-.29L322,74.44l1.78,1.78-1.73,1.73-2,.65h-2Z"/><path d="M326.57,60.3h3.36v3.48h-3.36Zm.41,5.45h2.57V78.39H327Z"/><path d="M334.47,68.6h-2.16V66.06h2.16V62.79l1.39-2.06,2.09-.62h1l2.4.5-.67,2.54-2-.5h-.5l-.67.24-.43.62v2.54h3V68.6h-3v9.79h-2.57Z"/><path d="M343.56,60.3h3.36v3.48h-3.36Zm.41,5.45h2.57V78.39H344Z"/><path d="M352.25,77.39l-1.61-2.16-.53-1.75V70.71l.53-1.8,1.61-2.16,2.42-1.2h2l2,.65L360.43,68l-1.85,1.73-1.32-1.32-.82-.29h-1.37l-1.15.62-1,1.39-.22.91v2.14l.24.86,1,1.42,1.22.6h1.2l.84-.29,1.42-1.32,1.78,1.78-1.73,1.73-2,.65h-2Z"/><path d="M204.2,94.55h2.57v.91l.29-.29,1.68-.82h1.66l1.46.41-.62,2.47L210,96.9h-.82l-1.1.53-.84.94-.48,1v7.8H204.2Z"/><path d="M215.55,106.19,213.94,104l-.5-1.75V99.51l.5-1.8,1.61-2.16,2.45-1.2h2.16l2.45,1.2,1.58,2.16.58,1.66v2.88H216l.24.58,1,1.42,1.25.6h1.22l1.44-.38,1.46-.89,1.34,2.06-1.85,1.22-2.11.53h-2Zm6.63-6.48-.26-.77-1-1.37-1.22-.67h-1.3l-1.18.62-1,1.39-.17.79Z"/><path d="M229.35,106.19,227.74,104l-.53-1.75V99.51l.53-1.8,1.61-2.16,2.42-1.2h2l2,.65,1.75,1.78-1.85,1.73-1.32-1.32-.82-.29h-1.37l-1.15.62-1,1.39-.22.91V102l.24.86,1,1.42,1.22.6h1.2l.84-.29,1.42-1.32,1.78,1.78-1.73,1.73-2,.65h-2Z"/><path d="M241.3,106.21,240,104.36l-.46-2.06V99.47L240,97.4l1.27-1.85,2.42-1.2h2.54l2.45,1.2L250,97.4l.43,2.06v2.83l-.43,2.06-1.27,1.85-2.45,1.18h-2.54Zm4.49-1.34,1.25-.62.53-.82.31-1.46V99.75l-.31-1.39L247,97.5l-1.18-.6h-1.66l-1.13.6-.6.84-.29,1.42V102l.29,1.49.55.79,1.22.62Z"/><path d="M253.83,94.55h2.57v.77l1.66-1h2.18l2.23.6.72,1,.82-.67,1.63-.94h2.18l2.23.6,1.51,2v10.2H269V97.93l-.46-.65-1.2-.38H266l-1.49,1-.58.82v8.5h-2.57V97.93l-.46-.65-1.2-.38h-1.3l-1.49,1-.58.82v8.5h-2.57Z"/><path d="M278.26,106.86l-.19-.14v.48H275.5V89.1h2.57v6.14l1.44-.89h2.26l2.5,1.18,1.61,2.18.53,1.75v2.76l-.53,1.8-1.61,2.16-2.45,1.2h-2.14Zm3.12-2,1.2-.67,1-1.37.24-.91V99.78l-.24-.86-1-1.39-1.32-.62H280l-1.32.91-.6.86v4.94l.38.48.77.48.79.29Z"/><path d="M289.61,89.1H293v3.48h-3.36Zm.41,5.45h2.57v12.65H290Z"/><path d="M297.07,94.55h2.57v.77l1.66-1h2.16l2.23.6,1.51,2v10.2h-2.57V97.93l-.46-.65L303,96.9h-1.27l-1.49,1-.58.82v8.5h-2.57Z"/><path d="M318.48,105.95l-.29.31L316,107.39h-1.54l-1.63-.5-1.18-.7-1.39-2v-1.46l.36-1.66,1.8-1.82,2.35-.6h1.58l1.58.53.1.07v-1l-.19-.48-.82-.55L316,96.9h-1.54l-.79.29-.65.43-.67.65-1.78-1.85,1-.89,1.08-.7,1.61-.48h2.23l1.61.41,1.9,1.27.67,1.68v6.84l1,1.46-2.06,1.49Zm-3-1.1,1.56-.6.82-.86.19-.53v-.67l-.38-.41-.55-.26-1.1-.34h-.94l-1.3.36-.77.79-.17.62v.48l.6.86.43.24.94.31Z"/><path d="M325.51,106.88l-1.15-.94-.77-.86,1.8-1.73.62.72.53.41,1.39.38h1.39l.79-.24.48-.34.31-.43v-.7l-.31-.5-.53-.36-3.24-.67-1.61-.86-1.06-1.44V97.07l.82-1.42,1.18-.89,1.44-.41h2.11l1.9.5,1.7,1.15-1.42,2.11-1.3-.89-1.15-.36H328l-.86.24-.24.22-.22.38v.82l.34.43.5.26,3.5.7,1.42.94,1,1.58v2.16l-.94,1.42-1.22.89-1.68.48h-2.11Z"/><path d="M337.85,106.19,336.24,104l-.5-1.75V99.51l.5-1.8,1.61-2.16,2.45-1.2h2.16l2.45,1.2,1.58,2.16.58,1.66v2.88h-8.76l.24.58,1,1.42,1.25.6H342l1.44-.38,1.46-.89,1.34,2.06-1.85,1.22-2.11.53h-2Zm6.63-6.48-.26-.77-1-1.37L342,96.9h-1.3l-1.18.62-1,1.39-.17.79Z"/><path d="M351.24,106.88l-1.15-.94-.77-.86,1.8-1.73.62.72.53.41,1.39.38h1.39l.79-.24.48-.34.31-.43v-.7l-.31-.5-.53-.36-3.24-.67-1.61-.86-1.06-1.44V97.07l.82-1.42,1.18-.89,1.44-.41h2.11l1.9.5L359,96l-1.42,2.11-1.3-.89-1.15-.36h-1.42l-.86.24-.24.22-.22.38v.82l.34.43.5.26,3.5.7,1.42.94,1,1.58v2.16l-.94,1.42-1.22.89-1.68.48h-2.11Z"/><polygon class="cls-1" points="274.6 358.86 14.26 358.86 3 347.6 3 191.72 263.35 191.72 274.6 202.97 274.6 358.86"/><polyline class="cls-2" points="274.6 202.97 14.34 202.97 14.34 358.86"/><line class="cls-2" x1="3" y1="191.72" x2="14.34" y2="202.97"/><path d="M75.44,252.17,74,250.8l1.87-1.87L76.92,250l1.42.6h1.54l1.63-.72.79-.84.41-1v-1l-.36-.94-.89-.91-1.87-.77H77.81v-2l2.86-4H75.25v-2.57h9v2L81,242.3l1.92.74,1.66,1.66.74,1.94v1.78l-.72,1.94L83,252.07l-2.54,1.13H77.84Z"/><path d="M96.53,252l-1.27-1.85-.46-2.06v-2.83l.46-2.06,1.27-1.85,2.42-1.2h2.54l2.45,1.2,1.27,1.85.43,2.06v2.83l-.43,2.06L103.95,252l-2.45,1.18H99Zm4.49-1.34,1.25-.62.53-.82.31-1.46v-2.21l-.31-1.39-.58-.86-1.18-.6H99.39l-1.13.6-.6.84-.29,1.42v2.21l.29,1.49.55.79,1.22.62Z"/><path d="M108.6,240.36h2.57v.91l.29-.29,1.68-.82h1.66l1.46.41-.62,2.47-1.22-.34h-.82l-1.1.53-.84.94-.48,1V253H108.6Z"/><path d="M120.63,252.53l-1.37-1.94v-7.37H117.1v-2.54h2.16v-4.42h2.57v4.42H125v2.54h-3.14v6.58l.43.58.65.29h.5l1.94-.5.65,2.5-2.45.55H122.4Z"/><path d="M128.69,234.91h2.57v6.19l1.66-.94h2.18l2.09.62,1.51,2V253h-2.57v-9.26l-.48-.7-1-.34h-1.37l-1.49,1-.58.86V253h-2.57Z"/><path d="M143.5,252l-1.27-1.85-.46-2.06v-2.83l.46-2.06,1.27-1.85,2.42-1.2h2.54l2.45,1.2,1.27,1.85.43,2.06v2.83l-.43,2.06L150.91,252l-2.45,1.18h-2.54Zm4.49-1.34,1.25-.62.53-.82.31-1.46v-2.21l-.31-1.39-.58-.86-1.18-.6h-1.66l-1.13.6-.6.84-.29,1.42v2.21l.29,1.49.55.79,1.22.62Z"/><path d="M158,256.61l-1.27-.82-.86-.86,1.8-1.85.79.79.43.34,1.1.29h1.46l.94-.34.86-.62.22-.53v-1.42l-1.44.86h-2.21l-2.47-1-1.68-2.18-.53-1.78v-2.21l.53-1.8,1.61-2.16,2.42-1.2h2.14l1.44.53.19.14v-.48H166v13l-.6,1.8-1.92,1.27-1.73.6h-2.14Zm3.55-6.7,1.32-.91.6-.94v-4.13l-.41-.48-.74-.48-.79-.29h-1.39l-1.18.67-1,1.37-.24.91v1.58l.22.84,1,1.34,1.3.5Z"/><path d="M171.14,252l-1.27-1.85-.46-2.06v-2.83l.46-2.06,1.27-1.85,2.42-1.2h2.54l2.45,1.2,1.27,1.85.43,2.06v2.83l-.43,2.06L178.56,252l-2.45,1.18h-2.54Zm4.49-1.34,1.25-.62.53-.82.31-1.46v-2.21l-.31-1.39-.58-.86-1.18-.6H174l-1.13.6-.6.84-.29,1.42v2.21l.29,1.49.55.79,1.22.62Z"/><path d="M183.67,240.36h2.57v.77l1.66-1h2.16l2.23.6,1.51,2V253h-2.57v-9.26l-.46-.65-1.2-.38h-1.27l-1.49,1-.58.82V253h-2.57Z"/><path d="M205.08,251.76l-.29.31-2.21,1.13H201l-1.63-.5-1.18-.7-1.39-2v-1.46l.36-1.66L199,245l2.35-.6h1.58l1.58.53.1.07v-1l-.19-.48-.82-.55-1.06-.26H201l-.79.29-.65.43-.67.65-1.78-1.85,1-.89,1.08-.7,1.61-.48H203l1.61.41,1.9,1.27.67,1.68v6.84l1,1.46-2.06,1.49Zm-3-1.1,1.56-.6.82-.86.19-.53V248l-.38-.41-.55-.26-1.1-.34h-.94l-1.3.36-.77.79-.17.62v.48l.6.86.43.24.94.31Z"/><path d="M211,234.91h2.57V253H211Z"/><path d="M66.13,281.5,65,280.56l-.77-.86L66,278l.62.72.53.41,1.39.38h1.39l.79-.24.48-.34.31-.43v-.7l-.31-.5-.53-.36-3.24-.67-1.61-.86-1.06-1.44v-2.26l.82-1.42,1.18-.89,1.44-.41h2.11l1.9.5,1.7,1.15-1.42,2.11-1.3-.89-1.15-.36H68.65l-.86.24-.24.22-.22.38v.82l.34.43.5.26,3.5.7,1.42.94,1,1.58v2.16l-.94,1.42-1.22.89-1.68.48H68.12Z"/><path d="M77.12,263.71h3.36v3.48H77.12Zm.41,5.45h2.57v12.65H77.53Z"/><path d="M86.45,281.33l-1.37-1.94V272H82.93v-2.54h2.16v-4.42h2.57v4.42H90.8V272H87.65v6.58l.43.58.65.29h.5l1.94-.5.65,2.5-2.45.55H88.23Z"/><path d="M95.72,280.8l-1.61-2.16-.5-1.75v-2.76l.5-1.8,1.61-2.16,2.45-1.2h2.16l2.45,1.2,1.58,2.16.58,1.66v2.88H96.17l.24.58,1,1.42,1.25.6h1.22l1.44-.38,1.46-.89,1.34,2.06-1.85,1.22-2.11.53h-2Zm6.63-6.48-.26-.77-1-1.37-1.22-.67h-1.3l-1.18.62-1,1.39-.17.79Z"/><path d="M109.11,281.5l-1.15-.94-.77-.86L109,278l.62.72.53.41,1.39.38h1.39l.79-.24.48-.34.31-.43v-.7l-.31-.5-.53-.36-3.24-.67-1.61-.86-1.06-1.44v-2.26l.82-1.42,1.18-.89,1.44-.41h2.11l1.9.5,1.7,1.15-1.42,2.11-1.3-.89-1.15-.36h-1.42l-.86.24-.24.22-.22.38v.82l.34.43.5.26,3.5.7,1.42.94,1,1.58v2.16l-.94,1.42-1.22.89-1.68.48H111.1Z"/><path d="M127.76,272H125.6v-2.54h2.16v-3.26l1.39-2.06,2.09-.62h1l2.4.5-.67,2.54-2-.5h-.5l-.67.24-.43.62v2.54h3V272h-3v9.79h-2.57Z"/><path d="M137.86,280.82,136.59,279l-.46-2.06v-2.83l.46-2.06,1.27-1.85,2.42-1.2h2.54l2.45,1.2,1.27,1.85.43,2.06v2.83l-.43,2.06-1.27,1.85L142.83,282h-2.54Zm4.49-1.34,1.25-.62.53-.82.31-1.46v-2.21l-.31-1.39-.58-.86-1.18-.6h-1.66l-1.13.6-.6.84-.29,1.42v2.21l.29,1.49.55.79,1.22.62Z"/><path d="M149.93,269.16h2.57v.91l.29-.29,1.68-.82h1.66l1.46.41-.62,2.47-1.22-.34h-.82l-1.1.53L153,273l-.48,1v7.8h-2.57Z"/><path d="M168,280.82,166.76,279l-.46-2.06v-2.83l.46-2.06,1.27-1.85,2.42-1.2H173l2.45,1.2,1.27,1.85.43,2.06v2.83l-.43,2.06-1.27,1.85L173,282h-2.54Zm4.49-1.34,1.25-.62.53-.82.31-1.46v-2.21l-.31-1.39-.58-.86-1.18-.6h-1.66l-1.13.6-.6.84-.29,1.42v2.21l.29,1.49.55.79,1.22.62Z"/><path d="M182.43,281.33l-1.37-1.94V272H178.9v-2.54h2.16v-4.42h2.57v4.42h3.14V272h-3.14v6.58l.43.58.65.29h.5l1.94-.5.65,2.5-2.45.55H184.2Z"/><path d="M190.49,263.71h2.57v6.19l1.66-.94h2.18l2.09.62,1.51,2v10.2h-2.57v-9.26l-.48-.7-1-.34h-1.37l-1.49,1-.58.86v8.45h-2.57Z"/><path d="M205.63,280.8,204,278.64l-.5-1.75v-2.76l.5-1.8,1.61-2.16,2.45-1.2h2.16l2.45,1.2,1.58,2.16.58,1.66v2.88h-8.76l.24.58,1,1.42,1.25.6h1.22l1.44-.38,1.46-.89,1.34,2.06-1.85,1.22-2.11.53h-2Zm6.63-6.48-.26-.77-1-1.37-1.22-.67h-1.3l-1.18.62-1,1.39-.17.79Z"/><path d="M217.75,269.16h2.57v.91l.29-.29,1.68-.82h1.66l1.46.41-.62,2.47-1.22-.34h-.82l-1.1.53-.84.94-.48,1v7.8h-2.57Z"/><path d="M67.29,298h2.57v.91l.29-.29,1.68-.82h1.66l1.46.41-.62,2.47-1.22-.34h-.82l-1.1.53-.84.94-.48,1v7.8H67.29Z"/><path d="M78.64,309.6,77,307.44l-.5-1.75v-2.76l.5-1.8L78.64,299l2.45-1.2h2.16L85.7,299l1.58,2.16.58,1.66v2.88H79.1l.24.58,1,1.42,1.25.6h1.22l1.44-.38,1.46-.89L87.07,309l-1.85,1.22-2.11.53h-2Zm6.63-6.48-.26-.77L84,301l-1.22-.67H81.5l-1.18.62-1,1.39-.17.79Z"/><path d="M92.44,309.6l-1.61-2.16-.53-1.75v-2.76l.53-1.8L92.44,299l2.42-1.2h2l2,.65,1.75,1.78-1.85,1.73-1.32-1.32-.82-.29H95.27l-1.15.62-1,1.39-.22.91v2.14l.24.86,1,1.42,1.22.6h1.2l.84-.29,1.42-1.32,1.78,1.78-1.73,1.73-2,.65h-2Z"/><path d="M104.39,309.63l-1.27-1.85-.46-2.06v-2.83l.46-2.06,1.27-1.85,2.42-1.2h2.54l2.45,1.2,1.27,1.85.43,2.06v2.83l-.43,2.06-1.27,1.85-2.45,1.18h-2.54Zm4.49-1.34,1.25-.62.53-.82.31-1.46v-2.21l-.31-1.39-.58-.86-1.18-.6h-1.66l-1.13.6-.6.84-.29,1.42v2.21l.29,1.49.55.79,1.22.62Z"/><path d="M116.92,298h2.57v.77l1.66-1h2.18l2.23.6.72,1,.82-.67,1.63-.94h2.18l2.23.6,1.51,2v10.2h-2.57v-9.26l-.46-.65-1.2-.38h-1.3l-1.49,1-.58.82v8.5H124.5v-9.26l-.46-.65-1.2-.38h-1.3l-1.49,1-.58.82v8.5h-2.57Z"/><path d="M141.35,310.27l-.19-.14v.48h-2.57v-18.1h2.57v6.14l1.44-.89h2.26l2.5,1.18,1.61,2.18.53,1.75v2.76l-.53,1.8-1.61,2.16-2.45,1.2h-2.14Zm3.12-2,1.2-.67,1-1.37.24-.91v-2.14l-.24-.86-1-1.39-1.32-.62h-1.3l-1.32.91-.6.86V307l.38.48.77.48.79.29Z"/><path d="M152.7,292.51h3.36V296H152.7Zm.41,5.45h2.57v12.65h-2.57Z"/><path d="M160.17,298h2.57v.77l1.66-1h2.16l2.23.6,1.51,2v10.2h-2.57v-9.26l-.46-.65-1.2-.38H164.8l-1.49,1-.58.82v8.5h-2.57Z"/><path d="M181.58,309.36l-.29.31-2.21,1.13h-1.54l-1.63-.5-1.18-.7-1.39-2v-1.46l.36-1.66,1.8-1.82,2.35-.6h1.58l1.58.53.1.07v-1l-.19-.48-.82-.55-1.06-.26h-1.54l-.79.29-.65.43-.67.65-1.78-1.85,1-.89,1.08-.7,1.61-.48h2.23l1.61.41,1.9,1.27.67,1.68V308l1,1.46-2.06,1.49Zm-3-1.1,1.56-.6.82-.86.19-.53v-.67l-.38-.41-.55-.26-1.1-.34h-.94l-1.3.36-.77.79-.17.62v.48l.6.86.43.24.94.31Z"/><path d="M188.61,310.3l-1.15-.94-.77-.86,1.8-1.73.62.72.53.41,1.39.38h1.39l.79-.24.48-.34.31-.43v-.7l-.31-.5-.53-.36-3.24-.67-1.61-.86-1.06-1.44v-2.26l.82-1.42,1.18-.89,1.44-.41h2.11l1.9.5,1.7,1.15L195,301.54l-1.3-.89-1.15-.36h-1.42l-.86.24-.24.22-.22.38v.82l.34.43.5.26,3.5.7,1.42.94,1,1.58V308l-.94,1.42-1.22.89-1.68.48H190.6Z"/><path d="M200.94,309.6l-1.61-2.16-.5-1.75v-2.76l.5-1.8,1.61-2.16,2.45-1.2h2.16L208,299l1.58,2.16.58,1.66v2.88H201.4l.24.58,1,1.42,1.25.6h1.22l1.44-.38L208,307l1.34,2.06-1.85,1.22-2.11.53h-2Zm6.63-6.48-.26-.77-1-1.37-1.22-.67h-1.3l-1.18.62-1,1.39-.17.79Z"/><path d="M214.33,310.3l-1.15-.94-.77-.86,1.8-1.73.62.72.53.41,1.39.38h1.39l.79-.24.48-.34.31-.43v-.7l-.31-.5-.53-.36-3.24-.67-1.61-.86L213,302.74v-2.26l.82-1.42,1.18-.89,1.44-.41h2.11l1.9.5,1.7,1.15-1.42,2.11-1.3-.89-1.15-.36h-1.42l-.86.24-.24.22-.22.38v.82l.34.43.5.26,3.5.7,1.42.94,1,1.58V308l-.94,1.42-1.22.89-1.68.48h-2.11Z"/><polygon class="cls-1" points="298.35 357.86 558.7 357.86 569.96 346.6 569.96 190.72 309.61 190.72 298.35 201.97 298.35 357.86"/><polyline class="cls-1" points="298.35 201.97 558.61 201.97 558.61 357.86"/><line class="cls-1" x1="569.96" y1="190.72" x2="558.61" y2="201.97"/><path d="M333.75,254.7H329.4v-2.57h11.4v2.57h-4.44v14.5h-2.62Z"/><path d="M343.42,251.1H346v6.19l1.66-.94h2.18l2.09.62,1.51,2v10.2h-2.57v-9.26l-.48-.7-1-.34h-1.37l-1.49,1-.58.86v8.45h-2.57Z"/><path d="M358.56,268.19,357,266l-.5-1.75v-2.76l.5-1.8,1.61-2.16,2.45-1.2h2.16l2.45,1.2,1.58,2.16.58,1.66v2.88H359l.24.58,1,1.42,1.25.6h1.22l1.44-.38,1.46-.89,1.34,2.06-1.85,1.22-2.11.53h-2Zm6.63-6.48-.26-.77-1-1.37-1.22-.67h-1.3l-1.18.62-1,1.39-.17.79Z"/><path d="M377.76,256.55h2.57v.91l.29-.29,1.68-.82H384l1.46.41-.62,2.47-1.22-.34h-.82l-1.1.53-.84.94-.48,1v7.8h-2.57Z"/><path d="M389.11,268.19,387.51,266l-.5-1.75v-2.76l.5-1.8,1.61-2.16,2.45-1.2h2.16l2.45,1.2,1.58,2.16.58,1.66v2.88h-8.76l.24.58,1,1.42,1.25.6h1.22l1.44-.38,1.46-.89,1.34,2.06-1.85,1.22-2.11.53h-2Zm6.63-6.48-.26-.77-1-1.37-1.22-.67H392l-1.18.62-1,1.39-.17.79Z"/><path d="M399.84,256.55h2.74l3.36,8.67,3.38-8.67h2.74l-5,12.65h-2.18Z"/><path d="M415.7,268.19,414.1,266l-.5-1.75v-2.76l.5-1.8,1.61-2.16,2.45-1.2h2.16l2.45,1.2,1.58,2.16.58,1.66v2.88h-8.76l.24.58,1,1.42,1.25.6h1.22l1.44-.38,1.46-.89,1.34,2.06-1.85,1.22-2.11.53h-2Zm6.63-6.48-.26-.77-1-1.37-1.22-.67h-1.3l-1.18.62-1,1.39-.17.79Z"/><path d="M427.82,256.55h2.57v.91l.29-.29,1.68-.82H434l1.46.41-.62,2.47-1.22-.34h-.82l-1.1.53-.84.94-.48,1v7.8h-2.57Z"/><path d="M438.79,268.89l-1.15-.94-.77-.86,1.8-1.73.62.72.53.41,1.39.38h1.39l.79-.24.48-.34.31-.43v-.7l-.31-.5-.53-.36-3.24-.67-1.61-.86-1.06-1.44v-2.26l.82-1.42,1.18-.89,1.44-.41H443l1.9.5,1.7,1.15-1.42,2.11-1.3-.89-1.15-.36h-1.42l-.86.24-.24.22-.22.38v.82l.34.43.5.26,3.5.7,1.42.94,1,1.58v2.16L445.8,268l-1.22.89-1.68.48h-2.11Z"/><path d="M451.13,268.19,449.52,266l-.5-1.75v-2.76l.5-1.8,1.61-2.16,2.45-1.2h2.16l2.45,1.2,1.58,2.16.58,1.66v2.88h-8.76l.24.58,1,1.42,1.25.6h1.22l1.44-.38,1.46-.89,1.34,2.06-1.85,1.22-2.11.53h-2Zm6.63-6.48-.26-.77-1-1.37-1.22-.67H454l-1.18.62-1,1.39-.17.79Z"/><path d="M470.81,256.55h2.54v.7l1.46-.89h2.26l2.5,1.18,1.61,2.18.53,1.75v2.76l-.53,1.8-1.61,2.16-2.45,1.2H475l-1.42-.53-.19-.14v4.39h-2.57Zm5.88,10.32,1.2-.67,1-1.37.24-.91v-2.14l-.24-.86-1-1.39-1.32-.62h-1.3l-1.32.91-.6.86v4.94l.38.48.77.48.79.29Z"/><path d="M492.38,268l-.29.31-2.21,1.13h-1.54l-1.63-.5-1.18-.7-1.39-2v-1.46l.36-1.66,1.8-1.82,2.35-.6h1.58l1.58.53.1.07v-1l-.19-.48-.82-.55-1.06-.26h-1.54l-.79.29-.65.43-.67.65-1.78-1.85,1-.89,1.08-.7,1.61-.48h2.23l1.61.41,1.9,1.27.67,1.68v6.84l1,1.46-2.06,1.49Zm-3-1.1,1.56-.6.82-.86.19-.53v-.67l-.38-.41-.55-.26-1.1-.34H489l-1.3.36-.77.79-.17.62v.48l.6.86.43.24.94.31Z"/><path d="M498.14,256.55h2.57v.91l.29-.29,1.68-.82h1.66l1.46.41-.62,2.47-1.22-.34h-.82l-1.1.53-.84.94-.48,1v7.8h-2.57Z"/><path d="M510.17,268.72l-1.37-1.94v-7.37h-2.16v-2.54h2.16v-4.42h2.57v4.42h3.14v2.54h-3.14V266l.43.58.65.29h.5l1.94-.5.65,2.5-2.45.55h-1.15Z"/><path d="M519,268.89l-1.15-.94-.77-.86,1.8-1.73.62.72.53.41,1.39.38h1.39l.79-.24.48-.34.31-.43v-.7l-.31-.5-.53-.36-3.24-.67-1.61-.86-1.06-1.44v-2.26l.82-1.42,1.18-.89,1.44-.41h2.11l1.9.5,1.7,1.15-1.42,2.11-1.3-.89-1.15-.36h-1.42l-.86.24-.24.22-.22.38v.82l.34.43.5.26,3.5.7,1.42.94,1,1.58v2.16l-.94,1.42-1.22.89-1.68.48H521Z"/><path d="M327.91,288.21h-2.16v-2.54h2.16V282.4l1.39-2.06,2.09-.62h1l2.4.5-.67,2.54-2-.5h-.5l-.67.24-.43.62v2.54h3v2.54h-3V298h-2.57Z"/><path d="M338,297l-1.27-1.85-.46-2.06v-2.83l.46-2.06,1.27-1.85,2.42-1.2H343l2.45,1.2,1.27,1.85.43,2.06v2.83l-.43,2.06L345.43,297,343,298.19h-2.54Zm4.49-1.34,1.25-.62.53-.82.31-1.46v-2.21l-.31-1.39-.58-.86-1.18-.6h-1.66l-1.13.6-.6.84-.29,1.42v2.21l.29,1.49.55.79,1.22.62Z"/><path d="M350.09,285.35h2.57v.91l.29-.29,1.68-.82h1.66l1.46.41-.62,2.47-1.22-.34h-.82l-1.1.53-.84.94-.48,1V298h-2.57Z"/><path d="M374.67,296.75l-.29.31-2.21,1.13h-1.54l-1.63-.5-1.18-.7-1.39-2v-1.46l.36-1.66,1.8-1.82,2.35-.6h1.58l1.58.53.1.07v-1l-.19-.48-.82-.55-1.06-.26h-1.54l-.79.29-.65.43-.67.65-1.78-1.85,1-.89,1.08-.7,1.61-.48h2.23l1.61.41,1.9,1.27.67,1.68v6.84l1,1.46-2.06,1.49Zm-3-1.1,1.56-.6.82-.86.19-.53V293l-.38-.41-.55-.26-1.1-.34h-.94l-1.3.36-.77.79-.17.62v.48l.6.86.43.24.94.31Z"/><path d="M380.62,279.9h2.57V298h-2.57Z"/><path d="M386.93,279.9h2.57V298h-2.57Z"/><path d="M402.46,297.52l-1.37-1.94v-7.37h-2.16v-2.54h2.16v-4.42h2.57v4.42h3.14v2.54h-3.14v6.58l.43.58.65.29h.5l1.94-.5.65,2.5-2.45.55h-1.15Z"/><path d="M417.86,296.75l-.29.31-2.21,1.13h-1.54l-1.63-.5L411,297l-1.39-2v-1.46l.36-1.66,1.8-1.82,2.35-.6h1.58l1.58.53.1.07v-1l-.19-.48-.82-.55-1.06-.26h-1.54L413,288l-.65.43-.67.65-1.78-1.85,1-.89,1.08-.7,1.61-.48h2.23l1.61.41,1.9,1.27.67,1.68v6.84l1,1.46-2.06,1.49Zm-3-1.1,1.56-.6.82-.86.19-.53V293l-.38-.41-.55-.26-1.1-.34h-.94l-1.3.36-.77.79-.17.62v.48l.6.86.43.24.94.31Z"/><path d="M423.62,285.35h2.57v.91l.29-.29,1.68-.82h1.66l1.46.41-.62,2.47-1.22-.34h-.82l-1.1.53-.84.94-.48,1V298h-2.57Z"/><path d="M435.74,301.6l-1.27-.82-.86-.86,1.8-1.85.79.79.43.34,1.1.29h1.46l.94-.34.86-.62.22-.53v-1.42l-1.44.86h-2.21l-2.47-1-1.68-2.18-.53-1.78v-2.21l.53-1.8,1.61-2.16,2.42-1.2h2.14l1.44.53.19.14v-.48h2.54v13l-.6,1.8-1.92,1.27-1.73.6h-2.14Zm3.55-6.7,1.32-.91.6-.94v-4.13l-.41-.48-.74-.48-.79-.29h-1.39l-1.18.67-1,1.37-.24.91v1.58l.22.84,1,1.34,1.3.5Z"/><path d="M449.23,297l-1.61-2.16-.5-1.75v-2.76l.5-1.8,1.61-2.16,2.45-1.2h2.16l2.45,1.2,1.58,2.16.58,1.66v2.88h-8.76l.24.58,1,1.42,1.25.6h1.22l1.44-.38,1.46-.89,1.34,2.06-1.85,1.22-2.11.53h-2Zm6.63-6.48-.26-.77-1-1.37-1.22-.67h-1.3l-1.18.62-1,1.39-.17.79Z"/><path d="M463.68,297.52l-1.37-1.94v-7.37h-2.16v-2.54h2.16v-4.42h2.57v4.42H468v2.54h-3.14v6.58l.43.58.65.29h.5l1.94-.5.65,2.5-2.45.55h-1.15Z"/><path d="M479.64,297.69l-1.15-.94-.77-.86,1.8-1.73.62.72.53.41,1.39.38h1.39l.79-.24.48-.34.31-.43V294l-.31-.5-.53-.36-3.24-.67-1.61-.86-1.06-1.44v-2.26l.82-1.42,1.18-.89,1.44-.41h2.11l1.9.5,1.7,1.15L486,288.93l-1.3-.89-1.15-.36h-1.42l-.86.24-.24.22-.22.38v.82l.34.43.5.26,3.5.7,1.42.94,1,1.58v2.16l-.94,1.42-1.22.89-1.68.48h-2.11Z"/><path d="M490.63,279.9H494v3.48h-3.36Zm.41,5.45h2.57V298H491Z"/><path d="M500,297.52l-1.37-1.94v-7.37h-2.16v-2.54h2.16v-4.42h2.57v4.42h3.14v2.54h-3.14v6.58l.43.58.65.29h.5l1.94-.5.65,2.5-2.45.55h-1.15Z"/><path d="M509.23,297l-1.61-2.16-.5-1.75v-2.76l.5-1.8,1.61-2.16,2.45-1.2h2.16l2.45,1.2,1.58,2.16.58,1.66v2.88h-8.76l.24.58,1,1.42,1.25.6h1.22l1.44-.38,1.46-.89,1.34,2.06-1.85,1.22-2.11.53h-2Zm6.63-6.48-.26-.77-1-1.37-1.22-.67h-1.3l-1.18.62-1,1.39-.17.79Z"/><path d="M522.62,297.69l-1.15-.94-.77-.86,1.8-1.73.62.72.53.41,1.39.38h1.39l.79-.24.48-.34.31-.43V294l-.31-.5-.53-.36-3.24-.67-1.61-.86-1.06-1.44v-2.26l.82-1.42,1.18-.89,1.44-.41h2.11l1.9.5,1.7,1.15L529,288.93l-1.3-.89-1.15-.36h-1.42l-.86.24-.24.22-.22.38v.82l.34.43.5.26,3.5.7,1.42.94,1,1.58v2.16l-.94,1.42-1.22.89-1.68.48h-2.11Z"/><polygon class="cls-1" points="865.31 357.86 604.96 357.86 593.71 346.6 593.71 190.72 854.05 190.72 865.31 201.97 865.31 357.86"/><polyline class="cls-2" points="865.31 201.97 605.05 201.97 605.05 357.86"/><line class="cls-2" x1="593.71" y1="190.72" x2="605.05" y2="201.97"/><path d="M666.83,252.22h-5.9l-1.51,4.3h-2.76l6.22-17.07h2l6.22,17.07h-2.76Zm-.89-2.54-2.06-5.93-2.06,5.93Z"/><path d="M680.58,243.87h2.57v.77l1.66-1H687l2.23.6.72,1,.82-.67,1.63-.94h2.18l2.23.6,1.51,2v10.2h-2.57v-9.26l-.46-.65-1.2-.38h-1.3l-1.49,1-.58.82v8.5h-2.57v-9.26l-.46-.65-1.2-.38h-1.3l-1.49,1-.58.82v8.5h-2.57Z"/><path d="M702.11,238.42h3.36v3.48h-3.36Zm.41,5.45h2.57v12.65h-2.57Z"/><path d="M710.79,255.51l-1.61-2.16-.53-1.75v-2.76l.53-1.8,1.61-2.16,2.42-1.2h2l2,.65L719,246.1l-1.85,1.73-1.32-1.32-.82-.29h-1.37l-1.15.62-1,1.39-.22.91v2.14l.24.86,1,1.42,1.22.6h1.2l.84-.29,1.42-1.32,1.78,1.78-1.73,1.73-2,.65h-2Z"/><path d="M721.43,243.87H724v.91l.29-.29,1.68-.82h1.66l1.46.41-.62,2.47-1.22-.34h-.82l-1.1.53-.84.94-.48,1v7.8h-2.57Z"/><path d="M732.44,255.53l-1.27-1.85-.46-2.06v-2.83l.46-2.06,1.27-1.85,2.42-1.2h2.54l2.45,1.2,1.27,1.85.43,2.06v2.83l-.43,2.06-1.27,1.85-2.45,1.18h-2.54Zm4.49-1.34,1.25-.62.53-.82.31-1.46v-2.21l-.31-1.39-.58-.86-1.18-.6H735.3l-1.13.6-.6.84-.29,1.42v2.21l.29,1.49.55.79,1.22.62Z"/><path d="M745.4,246.73h-2.16v-2.54h2.16v-3.26l1.39-2.06,2.09-.62h1l2.4.5-.67,2.54-2-.5h-.5l-.67.24-.43.62v2.54h3v2.54h-3v9.79H745.4Z"/><path d="M754.38,238.42h2.57v18.1h-2.57Z"/><path d="M762.2,256.11,760.59,254V243.87h2.57v9.26l.55.74,1.15.31H766l1.49-1,.6-.79v-8.52h2.57v12.65h-2.54v-.77l-1.68,1h-1.92Z"/><path d="M774.75,238.42h3.36v3.48h-3.36Zm.41,5.45h2.57v12.65h-2.57Z"/><path d="M783.42,255.53l-1.61-2.18-.53-1.75v-2.76l.53-1.8,1.61-2.16,2.45-1.2H788l1.44.53.19.14v-5.93h2.57v18.1h-2.54v-.7l-1.46.89h-2.26Zm4.27-1.37,1.32-.91.6-.86v-4.95l-.38-.48-.77-.48-.79-.29H786.3l-1.2.67-1,1.37-.24.91v2.16l.24.84,1,1.39,1.32.62Z"/><path d="M796.33,238.42h3.36v3.48h-3.36Zm.41,5.45h2.57v12.65h-2.57Z"/><path d="M805,255.51l-1.61-2.16-.53-1.75v-2.76l.53-1.8,1.61-2.16,2.42-1.2h2l2,.65,1.75,1.78-1.85,1.73L810,246.51l-.82-.29h-1.37l-1.15.62-1,1.39-.22.91v2.14l.24.86,1,1.42,1.22.6h1.2l.84-.29,1.42-1.32,1.78,1.78-1.73,1.73-2,.65h-2Z"/><path d="M632.83,284.33l-1.61-2.18-.53-1.75v-2.76l.53-1.8,1.61-2.16,2.45-1.2h2.11l1.44.53.19.14v-5.93h2.57v18.1H639v-.7l-1.46.89h-2.26ZM637.1,283l1.32-.91.6-.86v-4.95l-.38-.48-.77-.48-.79-.29h-1.37l-1.2.67-1,1.37-.24.91v2.16l.24.84,1,1.39,1.32.62Z"/><path d="M647.09,284.31l-1.61-2.16-.5-1.75v-2.76l.5-1.8,1.61-2.16,2.45-1.2h2.16l2.45,1.2,1.58,2.16.58,1.66v2.88h-8.76l.24.58,1,1.42,1.25.6h1.22l1.44-.38,1.46-.89,1.34,2.06L653.66,285l-2.11.53h-2Zm6.63-6.48-.26-.77-1-1.37-1.22-.67h-1.3l-1.18.62-1,1.39-.17.79Z"/><path d="M657.81,272.67h2.74l3.36,8.67,3.38-8.67H670l-5,12.65h-2.18Z"/><path d="M672.33,267.22h3.36v3.48h-3.36Zm.41,5.45h2.57v12.65h-2.57Z"/><path d="M681,284.31l-1.61-2.16-.53-1.75v-2.76l.53-1.8,1.61-2.16,2.42-1.2h2l2,.65,1.75,1.78-1.85,1.73L686,275.31l-.82-.29h-1.37l-1.15.62-1,1.39-.22.91v2.14l.24.86,1,1.42,1.22.6h1.2l.84-.29,1.42-1.32,1.78,1.78-1.73,1.73-2,.65h-2Z"/><path d="M693.31,284.31l-1.61-2.16-.5-1.75v-2.76l.5-1.8,1.61-2.16,2.45-1.2h2.16l2.45,1.2,1.58,2.16.58,1.66v2.88h-8.76l.24.58,1,1.42,1.25.6h1.22l1.44-.38,1.46-.89,1.34,2.06L699.89,285l-2.11.53h-2Zm6.63-6.48-.26-.77-1-1.37-1.22-.67h-1.3l-1.18.62L694,277l-.17.79Z"/><path d="M714.84,284.84l-1.37-1.94v-7.37h-2.16V273h2.16v-4.42H716V273h3.14v2.54H716v6.58l.43.58.65.29h.5l1.94-.5.65,2.5-2.45.55h-1.15Z"/><path d="M723.77,284.33l-1.27-1.85-.46-2.06v-2.83l.46-2.06,1.27-1.85,2.42-1.2h2.54l2.45,1.2,1.27,1.85.43,2.06v2.83l-.43,2.06-1.27,1.85-2.45,1.18h-2.54Zm4.49-1.34,1.25-.62.53-.82.31-1.46v-2.21l-.31-1.39-.58-.86-1.18-.6h-1.66l-1.13.6-.6.84-.29,1.42v2.21l.29,1.49.55.79,1.22.62Z"/><path d="M744.24,284.33,743,282.49l-.46-2.06v-2.83l.46-2.06,1.27-1.85,2.42-1.2h2.54l2.45,1.2,1.27,1.85.43,2.06v2.83l-.43,2.06-1.27,1.85-2.45,1.18h-2.54Zm4.49-1.34,1.25-.62.53-.82.31-1.46v-2.21l-.31-1.39-.58-.86-1.18-.6h-1.66l-1.13.6-.6.84-.29,1.42v2.21l.29,1.49.55.79,1.22.62Z"/><path d="M756.79,272.67h2.54v.7l1.46-.89h2.26l2.5,1.18,1.61,2.18.53,1.75v2.76l-.53,1.8-1.61,2.16-2.45,1.2H761l-1.42-.53-.19-.14v4.39h-2.57ZM762.67,283l1.2-.67,1-1.37.24-.91V277.9l-.24-.86-1-1.39-1.32-.62h-1.3l-1.32.91-.6.86v4.94l.38.48.77.48.79.29Z"/><path d="M772.89,284.84l-1.37-1.94v-7.37h-2.16V273h2.16v-4.42h2.57V273h3.14v2.54h-3.14v6.58l.43.58.65.29h.5l1.94-.5.65,2.5-2.45.55h-1.15Z"/><path d="M780.81,267.22h3.36v3.48h-3.36Zm.41,5.45h2.57v12.65h-2.57Z"/><path d="M788.27,272.67h2.57v.77l1.66-1h2.18l2.23.6.72,1,.82-.67,1.63-.94h2.18l2.23.6,1.51,2v10.2h-2.57v-9.26l-.46-.65-1.2-.38h-1.3L799,276l-.58.82v8.5h-2.57v-9.26l-.46-.65-1.2-.38h-1.3l-1.49,1-.58.82v8.5h-2.57Z"/><path d="M809.8,267.22h3.36v3.48H809.8Zm.41,5.45h2.57v12.65h-2.57Z"/><path d="M818.08,285l-1.15-.94-.77-.86,1.8-1.73.62.72.53.41,1.39.38h1.39l.79-.24.48-.34.31-.43v-.7l-.31-.5-.53-.36-3.24-.67-1.61-.86-1.06-1.44v-2.26l.82-1.42,1.18-.89,1.44-.41h2.11l1.9.5,1.7,1.15-1.42,2.11-1.3-.89L822,275H820.6l-.86.24-.24.22-.22.38v.82l.34.43.5.26,3.5.7L825,279l1,1.58v2.16l-.94,1.42-1.22.89-1.68.48h-2.11Z"/><path d="M830.42,284.31l-1.61-2.16-.5-1.75v-2.76l.5-1.8,1.61-2.16,2.45-1.2H835l2.45,1.2,1.58,2.16.58,1.66v2.88h-8.76l.24.58,1,1.42,1.25.6h1.22l1.44-.38,1.46-.89,1.34,2.06L837,285l-2.11.53h-2Zm6.63-6.48-.26-.77-1-1.37-1.22-.67h-1.3l-1.18.62-1,1.39-.17.79Z"/><path d="M682.52,313.81l-1.15-.94-.77-.86,1.8-1.73.62.72.53.41,1.39.38h1.39l.79-.24.48-.34.31-.43v-.7l-.31-.5-.53-.36-3.24-.67-1.61-.86-1.06-1.44V304l.82-1.42,1.18-.89,1.44-.41h2.11l1.9.5,1.7,1.15L688.91,305l-1.3-.89-1.15-.36H685l-.86.24-.24.22-.22.38v.82l.34.43.5.26,3.5.7,1.42.94,1,1.58v2.16l-.94,1.42-1.22.89-1.68.48h-2.11Z"/><path d="M694.88,313.11,693.27,311l-.53-1.75v-2.76l.53-1.8,1.61-2.16,2.42-1.2h2l2,.65,1.75,1.78-1.85,1.73-1.32-1.32-.82-.29h-1.37l-1.15.62-1,1.39-.22.91v2.14l.24.86,1,1.42,1.22.6H699l.84-.29,1.42-1.32,1.78,1.78-1.73,1.73-2,.65h-2Z"/><path d="M705.51,301.47h2.57v.91l.29-.29,1.68-.82h1.66l1.46.41-.62,2.47-1.22-.34h-.82l-1.1.53-.84.94-.48,1v7.8h-2.57Z"/><path d="M716.87,313.11,715.26,311l-.5-1.75v-2.76l.5-1.8,1.61-2.16,2.45-1.2h2.16l2.45,1.2,1.58,2.16.58,1.66v2.88h-8.76l.24.58,1,1.42,1.25.6H721l1.44-.38,1.46-.89,1.34,2.06-1.85,1.22-2.11.53h-2Zm6.63-6.48-.26-.77-1-1.37-1.22-.67h-1.3l-1.18.62-1,1.39-.17.79Z"/><path d="M730.64,313.11,729,311l-.5-1.75v-2.76l.5-1.8,1.61-2.16,2.45-1.2h2.16l2.45,1.2,1.58,2.16.58,1.66v2.88H731.1l.24.58,1,1.42,1.25.6h1.22l1.44-.38,1.46-.89,1.34,2.06-1.85,1.22-2.11.53h-2Zm6.63-6.48-.26-.77-1-1.37-1.22-.67h-1.3l-1.18.62-1,1.39-.17.79Z"/><path d="M743.22,301.47h2.57v.77l1.66-1h2.16l2.23.6,1.51,2v10.2h-2.57v-9.26l-.46-.65-1.2-.38h-1.27l-1.49,1-.58.82v8.5h-2.57Z"/><path d="M757.14,296h3.36v3.48h-3.36Zm.41,5.45h2.57v12.65h-2.57Z"/><path d="M764.6,301.47h2.57v.77l1.66-1H771l2.23.6,1.51,2v10.2h-2.57v-9.26l-.46-.65-1.2-.38h-1.27l-1.49,1-.58.82v8.5H764.6Z"/><path d="M780.63,317.72l-1.27-.82-.86-.86,1.8-1.85.79.79.43.34,1.1.29h1.46l.94-.34.86-.62.22-.53V312.7l-1.44.86h-2.21l-2.47-1-1.68-2.18-.53-1.78v-2.21l.53-1.8,1.61-2.16,2.42-1.2h2.14l1.44.53.19.14v-.48h2.54v13l-.6,1.8-1.92,1.27-1.73.6h-2.14Zm3.55-6.7,1.32-.91.6-.94V305l-.41-.48-.74-.48-.79-.29h-1.39l-1.18.67-1,1.37-.24.91v1.58l.22.84,1,1.34,1.3.5Z"/></g></g></svg>