<svg xmlns="http://www.w3.org/2000/svg" viewBox="0 0 100 36"><defs><style>.cls-1{fill:#f4aa00;}.cls-2{fill:#fff;}</style></defs><title>ContactUsMouse</title><g id="Layer_2" data-name="Layer 2"><g id="Layer_1-2" data-name="Layer 1"><rect class="cls-1" width="100" height="36" rx="18" ry="18"/><path class="cls-2" d="M23.29,22.65a6.9,6.9,0,0,1-2.85.51c-3,0-5.33-1.92-5.33-5.46A5.37,5.37,0,0,1,20.75,12a5.78,5.78,0,0,1,2.56.48L23,13.65a5.08,5.08,0,0,0-2.18-.45c-2.53,0-4.21,1.62-4.21,4.45,0,2.64,1.52,4.34,4.15,4.34A5.57,5.57,0,0,0,23,21.54Z"/><path class="cls-2" d="M31.82,19.06A3.79,3.79,0,0,1,28,23.18a3.68,3.68,0,0,1-3.71-4,3.78,3.78,0,0,1,3.84-4.11A3.67,3.67,0,0,1,31.82,19.06Zm-6.15.08c0,1.7,1,3,2.35,3s2.35-1.26,2.35-3c0-1.31-.66-3-2.32-3S25.67,17.67,25.67,19.14Z"/><path class="cls-2" d="M33.59,17.35c0-.8,0-1.46-.06-2.1h1.25l.08,1.28h0a2.85,2.85,0,0,1,2.56-1.46c1.07,0,2.74.64,2.74,3.3V23H38.78V18.53c0-1.25-.46-2.29-1.79-2.29a2,2,0,0,0-1.89,1.44,2,2,0,0,0-.1.66V23H33.59Z"/><path class="cls-2" d="M44.1,13v2.22h2v1.07h-2V20.5c0,1,.27,1.5,1.06,1.5a3.1,3.1,0,0,0,.82-.1L46,23a3.44,3.44,0,0,1-1.25.19,2,2,0,0,1-1.52-.59,2.87,2.87,0,0,1-.54-2V16.33h-1.2V15.25h1.2V13.4Z"/><path class="cls-2" d="M52,23l-.11-1h0a2.88,2.88,0,0,1-2.37,1.15A2.21,2.21,0,0,1,47.1,21c0-1.87,1.66-2.9,4.66-2.88v-.16A1.6,1.6,0,0,0,50,16.12a3.86,3.86,0,0,0-2,.58l-.32-.93a4.81,4.81,0,0,1,2.54-.69c2.37,0,2.95,1.62,2.95,3.17v2.9A10.94,10.94,0,0,0,53.27,23Zm-.21-4c-1.54,0-3.28.24-3.28,1.74a1.25,1.25,0,0,0,1.33,1.34,1.93,1.93,0,0,0,1.87-1.3,1.47,1.47,0,0,0,.08-.45Z"/><path class="cls-2" d="M60.94,22.71a5.18,5.18,0,0,1-2.22.45,3.68,3.68,0,0,1-3.86-4A3.94,3.94,0,0,1,59,15.09a4.7,4.7,0,0,1,2,.4l-.32,1.09A3.27,3.27,0,0,0,59,16.21a2.68,2.68,0,0,0-2.74,2.93A2.66,2.66,0,0,0,59,22a4,4,0,0,0,1.73-.38Z"/><path class="cls-2" d="M64.49,13v2.22h2v1.07h-2V20.5c0,1,.27,1.5,1.06,1.5a3.1,3.1,0,0,0,.82-.1L66.42,23a3.44,3.44,0,0,1-1.25.19,2,2,0,0,1-1.52-.59,2.87,2.87,0,0,1-.54-2V16.33h-1.2V15.25h1.2V13.4Z"/><path class="cls-2" d="M78,20.89c0,.8,0,1.5.06,2.11H76.78l-.08-1.26h0a2.92,2.92,0,0,1-2.56,1.44c-1.22,0-2.67-.67-2.67-3.39V15.25h1.41v4.29c0,1.47.45,2.46,1.73,2.46a2,2,0,0,0,1.86-1.28,2.07,2.07,0,0,0,.13-.72V15.25H78Z"/><path class="cls-2" d="M80.1,21.56a3.7,3.7,0,0,0,1.86.56c1,0,1.5-.51,1.5-1.15s-.4-1-1.44-1.42c-1.39-.5-2-1.26-2-2.19a2.39,2.39,0,0,1,2.67-2.27,3.87,3.87,0,0,1,1.9.48l-.35,1a3,3,0,0,0-1.58-.45c-.83,0-1.3.48-1.3,1.06s.46.93,1.47,1.31c1.34.51,2,1.18,2,2.34,0,1.36-1.06,2.32-2.9,2.32a4.42,4.42,0,0,1-2.18-.53Z"/></g></g></svg>